<?xml version="1.0" encoding="utf-8"?>
<svg version="1.1" xmlns:xlink="http://www.w3.org/1999/xlink" width="26px" height="20px" xmlns="http://www.w3.org/2000/svg">
  <g transform="matrix(1 0 0 1 -173 -36 )">
    <path d="M 16.7953020134228 8.75543908227848  C 16.5260591442953 9.2820411392405  16.3590604026846 10.243769778481  16.345427852349 10.3673852848101  C 16.2977139261745 12.2315071202532  25.803009647651 12.8668908227848  25.8064177852349 16.837420886076  L 25.833682885906 16.837420886076  L 25.833682885906 19.3740110759494  C 25.833682885906 19.7176621835443  25.4485633389262 19.9970332278481  24.9748322147651 20  L 0.862258808724832 20  C 0.388527684563758 19.9970332278481  0.00340813758389262 19.7176621835443  0.00340813758389262 19.3740110759494  L 0.00340813758389262 16.837420886076  L 0.0306732382550336 16.837420886076  C 0.0545302013422819 12.557852056962  9.44735738255033 12.1598101265823  9.49166317114094 10.3673852848101  C 9.50529572147651 10.2759098101266  9.5087038590604 9.29193037974683  9.04519714765101 8.75543908227848  C 8.55442533557047 8.18433544303797  6.89125419463087 6.38202136075949  6.89125419463087 4.69590585443038  C 6.89125419463087 2.10739715189873  9.35533766778524 0.0084058544303784  12.9202495805369 0.0084058544303784  C 16.4885696308725 0.0084058544303784  18.949244966443 2.10739715189873  18.949244966443 4.69590585443038  C 18.949244966443 6.38202136075949  17.044096057047 8.27086629746835  16.7953020134228 8.75543908227848  Z " fill-rule="nonzero" fill="#4eb3ff" stroke="none" transform="matrix(1 0 0 1 173 36 )" />
  </g>
</svg>