<?xml version="1.0" encoding="utf-8"?>
<svg version="1.1" xmlns:xlink="http://www.w3.org/1999/xlink" width="30px" height="31px" xmlns="http://www.w3.org/2000/svg">
  <g transform="matrix(1 0 0 1 -287 -8 )">
    <path d="M 29.9234693877551 30.6125  C 29.9234693877551 30.6125  29.5408163265306 31  29.1581632653061 31  L 0.841836734693878 31  C 0.459183673469388 31  0.0765306122448979 30.6125  0.0765306122448979 30.225  C 0.0765306122448979 23.6375  5.81632653061224 21.89375  8.49489795918367 21.11875  C 9.06887755102041 20.925  9.4515306122449 20.73125  9.64285714285714 20.73125  C 11.9387755102041 19.56875  12.1301020408163 18.79375  12.1301020408163 18.6  C 12.1301020408163 18.40625  12.1301020408163 18.40625  12.1301020408163 18.40625  C 10.2168367346939 17.24375  9.26020408163265 14.14375  8.68622448979592 12.98125  C 8.68622448979592 12.98125  8.68622448979592 12.7875  8.68622448979592 12.7875  C 7.3469387755102 12.20625  7.15561224489796 9.88125  7.15561224489796 8.9125  C 7.15561224489796 7.75  7.3469387755102 7.3625  7.92091836734694 6.975  C 8.11224489795918 3.1  11.1734693877551 0  15 0  C 18.8265306122449 0  21.8877551020408 2.90625  21.8877551020408 6.78125  C 22.4617346938775 7.16875  22.844387755102 7.3625  22.844387755102 8.525  C 22.844387755102 9.6875  22.4617346938775 12.0125  21.3137755102041 12.59375  C 21.3137755102041 12.59375  21.3137755102041 12.7875  21.3137755102041 12.7875  C 20.9311224489796 14.14375  19.9744897959184 17.05  17.8698979591837 18.40625  C 17.8698979591837 18.40625  17.8698979591837 18.6  17.8698979591837 18.79375  C 17.8698979591837 19.18125  18.8265306122449 20.15  20.3571428571429 20.925  C 20.7397959183673 21.11875  21.1224489795918 21.3125  21.8877551020408 21.50625  C 24.7576530612245 22.28125  29.9234693877551 24.025  29.9234693877551 30.6125  Z M 8.87755102040816 22.66875  C 6.39030612244898 23.25  1.98979591836735 24.60625  1.60714285714286 29.64375  L 28.3928571428571 29.64375  C 28.0102040816327 24.8  23.9923469387755 23.44375  21.3137755102041 22.66875  C 20.5484693877551 22.475  19.9744897959184 22.28125  19.5918367346939 22.0875  C 18.6352040816327 21.50625  16.3392857142857 20.34375  16.3392857142857 18.6  C 16.3392857142857 17.825  16.530612244898 17.24375  17.1045918367347 17.05  C 18.6352040816327 16.08125  19.5918367346939 13.36875  19.9744897959184 12.4  C 20.1658163265306 11.625  20.3571428571429 11.2375  20.7397959183673 11.2375  C 20.9311224489796 11.04375  21.5051020408163 9.6875  21.5051020408163 8.525  C 21.5051020408163 8.1375  21.5051020408163 7.94375  21.5051020408163 7.94375  C 21.5051020408163 7.94375  21.3137755102041 7.94375  21.3137755102041 7.75  C 21.3137755102041 7.75  21.1224489795918 7.75  21.1224489795918 7.55625  C 20.9311224489796 7.3625  20.7397959183673 7.16875  20.7397959183673 6.975  L 20.7397959183673 6.78125  C 20.5484693877551 3.875  18.2525510204082 1.35625  15 1.35625  C 11.9387755102041 1.35625  9.26020408163265 3.875  9.26020408163265 6.975  L 9.26020408163265 7.16875  C 9.26020408163265 7.55625  9.26020408163265 7.75  9.06887755102041 7.94375  C 8.49489795918367 8.1375  8.49489795918367 8.1375  8.49489795918367 8.9125  C 8.49489795918367 10.075  8.87755102040816 11.2375  9.06887755102041 11.43125  C 9.4515306122449 11.43125  9.64285714285714 11.81875  9.83418367346939 12.4  C 10.4081632653061 13.5625  11.3647959183673 16.275  12.8954081632653 17.24375  C 13.2780612244898 17.4375  13.6607142857143 17.825  13.6607142857143 18.6  C 13.6607142857143 19.7625  12.5127551020408 20.925  10.4081632653061 22.0875  C 10.0255102040816 22.28125  9.64285714285714 22.475  8.87755102040816 22.66875  Z " fill-rule="nonzero" fill="#00ffff" stroke="none" transform="matrix(1 0 0 1 287 8 )" />
  </g>
</svg>