<?xml version="1.0" encoding="utf-8"?>
<svg version="1.1" xmlns:xlink="http://www.w3.org/1999/xlink" width="33px" height="30px" xmlns="http://www.w3.org/2000/svg">
  <g transform="matrix(1 0 0 1 -411 -10 )">
    <path d="M 32.842234141791 14.4642857142857  L 10.5113106343284 0.549879807692308  C 10.0110774253731 0.237594436813187  9.4306786380597 0.0734031593406593  8.84065998134328 0.0734031593406593  C 8.33080690298508 0.0734031593406593  7.83698694029851 0.195741758241758  7.39767957089552 0.421102335164835  C 6.95837220149254 0.646462912087912  6.5703708022388 0.978064903846154  6.27215485074627 1.39015281593407  L 2.50116604477612 6.63783482142857  C 2.21256996268657 7.03704498626374  2.05865205223881 7.51996050824176  2.05865205223881 8.01575377747253  C 2.05865205223881 8.42140281593407  2.16126399253731 8.81095467032967  2.35045475746269 9.15221497252747  C 2.53964552238806 9.49669471153846  2.81220848880597 9.78966346153846  3.1553171641791 10.005365728022  L 23.3442164179104 22.7317994505495  C 23.8508628731343 23.0505236950549  24.4376749067164 23.2211538461538  25.0373134328358 23.2211538461538  C 25.5535797574627 23.2211538461538  26.0538129664179 23.0955958104396  26.5027402052239 22.8637963598901  C 26.9484608208955 22.6319969093407  27.3396688432836 22.293956043956  27.6378847947761 21.8689903846154  L 32.842234141791 14.4642857142857  Z M 29.9081739738806 15.0598815247253  L 25.9608208955224 20.6810182005494  C 25.7491837686567 20.983645260989  25.4060750932836 21.1607142857143  25.0373134328358 21.1607142857143  C 24.931494869403 21.1607142857143  24.8256763059701 21.1446171016483  24.7230643656716 21.1156421703297  C 24.6204524253731 21.086667239011  24.5242537313433 21.0415951236264  24.4344682835821 20.9868646978022  L 4.24556902985075 8.26043097527473  C 4.16219682835821 8.20570054945055  4.11089085820896 8.11233688186813  4.11089085820896 8.01253434065934  C 4.11089085820896 7.95136504120879  4.13013059701493 7.89019574175824  4.16540345149254 7.84190418956044  L 7.93639225746269 2.59422218406593  C 8.14482276119403 2.30447287087912  8.48151819029851 2.13062328296703  8.84065998134328 2.13062328296703  C 8.94327192164179 2.13062328296703  9.04909048507463 2.14672046703297  9.14528917910448 2.17247596153846  C 9.24469449626866 2.20145089285714  9.33768656716418 2.24330357142857  9.42747201492537 2.29803399725275  L 29.9081739738806 15.0598815247253  Z M 24.3863689365672 24.1129378434066  C 24.4889808768657 23.9519660027473  24.3735424440299 23.7362637362637  24.1811450559701 23.7362637362637  C 23.8252098880597 23.7362637362637  23.4756879664179 23.6879721840659  23.1357859141791 23.5913890796703  C 22.7958838619403 23.4948059752747  22.4720149253731 23.3531507554945  22.1673857276119 23.1664234203297  L 2.54926539179104 11.1579241071429  C 2.33442164179104 11.0259271978022  2.05865205223881 11.1804601648352  2.05865205223881 11.4347956730769  L 2.05865205223881 12.1623883928571  C 2.05865205223881 12.6324261675824  2.30235541044776 13.0702695741758  2.69997667910448 13.314946771978  L 8.55206389925373 16.9303743131868  C 7.734375 17.4261675824176  7.18924906716418 18.3276098901099  7.18924906716418 19.3578296703297  C 7.18924906716418 20.0081559065934  7.40729944029851 20.6069711538462  7.77606110074627 21.086667239011  C 7.40009977882164 21.4639414036633  6.89028982775511 21.6758600215847  6.35873367537313 21.6758241758242  L 2.05865205223881 21.6758241758242  L 2.05865205223881 20.1691277472527  C 2.05865205223881 19.2354910714286  1.43336054104478 18.4177541208791  0.532299440298508 18.1762963598901  L 0 18.0378605769231  L 0 29.9175824175824  L 0.923507462686567 29.4572029532967  C 1.61934468283582 29.1095037774725  2.06185867537313 28.3947888049451  2.06185867537313 27.6124656593407  L 2.06185867537313 23.7362637362637  L 6.40683302238806 23.7362637362637  C 7.2373484141791 23.7362637362637  8.03579757462687 23.4046617445055  8.62581623134328 22.8122853708791  L 8.72522154850746 22.7124828296703  C 9.06512360074627 22.3712225274725  9.52687733208955 22.1877146291209  10.0078708022388 22.1877146291209  L 10.0142840485075 22.1877146291209  C 11.5021571828358 22.1877146291209  12.7206739738806 21.0319368131868  12.8296991604478 19.5670930631868  L 21.6190531716418 24.998282967033  C 21.9140625 25.1817908653846  22.2571711753731 25.2783739697802  22.6034864738806 25.2783739697802  C 22.9177355410448 25.2783739697802  23.222364738806 25.1978880494506  23.4917210820896 25.0562328296703  C 23.7610774253731 24.9113581730769  23.9951609141791 24.7020947802198  24.1683185634328 24.4381009615385  L 24.3863689365672 24.1129378434066  Z M 10.7806669776119 19.3578296703297  C 10.7806669776119 19.7827953296703  10.4343516791045 20.1304945054945  10.0110774253731 20.1304945054945  C 9.58780317164179 20.1304945054945  9.24148787313433 19.7827953296703  9.24148787313433 19.3578296703297  C 9.24148787313433 18.932864010989  9.58780317164179 18.5851648351648  10.0110774253731 18.5851648351648  C 10.4343516791045 18.5851648351648  10.7806669776119 18.932864010989  10.7806669776119 19.3578296703297  Z " fill-rule="nonzero" fill="#00ffff" stroke="none" transform="matrix(1 0 0 1 411 10 )" />
  </g>
</svg>