<?xml version="1.0" encoding="utf-8"?>
<svg version="1.1" xmlns:xlink="http://www.w3.org/1999/xlink" width="28px" height="28px" xmlns="http://www.w3.org/2000/svg">
  <g transform="matrix(1 0 0 1 -660 -11 )">
    <path d="M 27 4.62323389648437  C 27.1198736914062 2.5521845703125  25.4409362597656 0.873247138671875  23.3698869335938 1  L 4.62323389648437 1  C 2.5521845703125 0.873247138671875  0.873247138671875 2.5521845703125  1 4.62323389648437  L 1 23.3698869335938  C 0.873247138671875 25.4409362597656  2.5521845703125 27.1198736914062  4.62323389648437 27  L 23.3698869335938 27  C 25.4409362597656 27.1198736914062  27.1198736914062 25.4409362597656  27 23.3698869335938  L 27 4.62323389648437  Z M 25 4.62503307617187  L 25 23.3749669238281  C 25.2466269756195 23.3754622620195  25.2466271724137 23.3759576003499  25.2466271724137 23.3764529386976  C 25.2466271724137 24.4093237103077  24.4093199752739 25.2466309074476  23.3764492036637 25.2466309074476  C 23.3751084490663 25.2466309074476  23.3737676948558 25.2466294656413  23.3724269433594 25  L 4.62757305664063 25  C 4.126241328125 25.2466265820313  3.65284953125 25.0540102050781  3.29830844726563 24.6994690625  C 2.94376736328125 24.3449279199219  2.74649427734375 23.8762986523437  3 23.3749669238281  L 3 4.62503307617187  C 2.74836160170637 3.58732759972834  3.58986600436433 2.74695946247864  4.62757305664063 3  L 23.3724269433594 3  C 24.4078271378362 2.74754475290869  25.2466281623908 3.58719722308734  25.2466281623908 4.62259795044921  C 25.2466281623908 4.62340965927903  25.2466276356042 4.6242213680258  25 4.62503307617187  Z " fill-rule="nonzero" fill="#00ffff" stroke="none" transform="matrix(1 0 0 1 660 11 )" />
  </g>
</svg>