<?xml version="1.0" encoding="utf-8"?>
<svg version="1.1" xmlns:xlink="http://www.w3.org/1999/xlink" width="19px" height="15px" xmlns="http://www.w3.org/2000/svg">
  <g transform="matrix(1 0 0 1 -665 -18 )">
    <path d="M 17.2030762207031 2.30815090820312  L 9.70310267578125 2.30815090820312  C 9.18581976210493 2.30815090820312  8.76647910644531 2.72749156386274  8.76647910644531 3.24477447753906  C 8.76647910644531 3.76205739121539  9.18581976210493 4.181398046875  9.70310267578125 4.181398046875  L 17.2030762207031 4.181398046875  C 17.7203591343795 4.181398046875  18.1396997900391 3.76205739121539  18.1396997900391 3.24477447753906  C 18.1396997900391 2.72749156386274  17.7203591343795 2.30815090820312  17.2030762207031 2.30815090820312  Z M 17.2030762207031 9.81172278320313  L 9.70310267578125 9.81172278320313  C 9.18581976210493 9.81172278320313  8.76647910644532 10.2310634388627  8.76647910644532 10.7483463525391  C 8.76647910644532 11.2656292662154  9.18581976210493 11.684969921875  9.70310267578125 11.684969921875  L 17.2030762207031 11.684969921875  C 17.7203591343795 11.684969921875  18.1396997900391 11.2656292662154  18.1396997900391 10.7483463525391  C 18.1396997900391 10.2310634388627  17.7203591343794 9.81172278320313  17.2030762207031 9.81172278320313  Z M 7.35900375 10.7495105078125  C 7.35900372070313 8.93775244140625  5.89035682617187 7.46868217773438  4.07817544921875 7.46868220703125  C 2.26599404296875 7.46868220703125  0.797347119140624 8.93775247070313  0.797347119140624 10.7495105078125  C 0.797347119140624 12.5612685449219  2.2664173828125 14.0303388378906  4.07817544921875 14.0303388378906  C 5.889933515625 14.0303388378906  7.35900377929688 12.5612685742187  7.35900375 10.7495105078125  Z M 5.07374809570313 11.7455064941406  C 4.80981440814166 12.009186655331  4.45199563989936 12.1572993335058  4.07891626652796 12.1572993335058  C 3.30153064036563 12.1572993335058  2.67133507512171 11.5271037682619  2.67133507512171 10.7497181420996  C 2.67133507512171 9.97233251593725  3.30153064036563 9.34213695069333  4.07891626652796 9.34213695069333  C 4.85630189269029 9.34213695069333  5.48649745793421 9.97233251593725  5.48649745793421 10.7497181420996  C 5.48744142921896 11.123636989692  5.33881080067874 11.4821798250448  5.07374809570312 11.74561234375  Z M 6.88613092436748 0.44290405728432  C 6.63994428609025 0.44290405728432  6.40365598294475 0.539831550911135  6.22838797851563 0.712715869140624  L 3.14059936523437 3.8003986328125  L 1.927962890625 2.58765633789062  C 1.75230895143932 2.41200239481994  1.51407108231214 2.31332103681328  1.26565889648437 2.31332103681328  C 0.748367305733337 2.31332103681328  0.329019615914842 2.73266872663177  0.329019615914842 3.24996031738281  C 0.329019615914842 3.49837249603202  0.427700968234075 3.73661035888032  0.60335490234375 3.912264296875  L 2.47829537109375 5.78731061523437  C 2.65394726513354 5.96296841168824  2.8921859007547 6.06165243037229  3.14059936523438 6.06165243037229  C 3.38901282971405 6.06165243037229  3.62725146533521 5.96296841168824  3.802903359375 5.78731061523437  L 7.5528901171875 2.037323828125  C 7.72580663544488 1.86205119002322  7.82275447905498 1.62574016232905  7.82275447905498 1.37952761197182  C 7.82275447905498 0.862244706385606  7.40341382995369 0.44290405728432  6.88613092436748 0.44290405728432  Z " fill-rule="nonzero" fill="#00ffff" stroke="none" transform="matrix(1 0 0 1 665 18 )" />
  </g>
</svg>