<?xml version="1.0" encoding="utf-8"?>
<svg version="1.1" xmlns:xlink="http://www.w3.org/1999/xlink" width="28px" height="28px" xmlns="http://www.w3.org/2000/svg">
  <g transform="matrix(1 0 0 1 -784 -11 )">
    <path d="M 27.0492788461538 9.13070913461538  C 27.0555889423077 9.20958533653846  27.0524338942308 9.28846153846154  27.04296875 9.36418269230769  C 27.0555889423077 9.43990384615384  27.0618990384615 9.51246995192308  27 9.59134615384615  L 27 25.5338040865385  C 27.0618990384615 25.5779747596154  27.0587439903846 25.6189903846154  27.0555889423077 25.6631610576923  C 27.0145733173077 26.4077524038462  26.3993389423077 26.9914362980769  25.6515925480769 27  L 2.29477163461538 27  C 1.51862980769231 26.9945913461539  0.887620192307692 26.3635817307692  1 25.5874399038462  L 1 9.59134615384616  C 0.887620192307692 9.51878004807693  0.893930288461539 9.44621394230769  0.903395432692308 9.37680288461539  C 0.893930288461539 9.29477163461539  0.887620192307692 9.21274038461539  0.887620192307692 9.13070913461539  L 0.887620192307692 8.19050480769231  L 0.881310096153846 8.18734975961538  L 4.56956129807692 1.8046875  C 4.89137620192308 1.24308894230769  5.48137019230769 0.889723557692307  6.12815504807692 0.870793269230768  C 6.26382211538462 0.829777644230768  6.40264423076923 0.807692307692307  6.54462139423077 1  L 21.3891225961538 1  C 21.5405649038462 0.807692307692307  21.6920072115385 0.832932692307692  21.8371394230769 0.880258413461538  C 22.4776141826923 0.905498798076923  23.064453125 1.25886418269231  23.3831129807692 1.81415264423077  L 27.0682091346154 8.19681490384615  L 27.0492788461538 8.20943509615384  L 27.0492788461538 9.13070913461538  Z M 3.97325721153846 8.22836538461538  L 24.5378605769231 8.22836538461538  C 24.4842247596154 8.14948918269231  24.4368990384615 8.06430288461538  24.3927283653846 7.97596153846154  L 21.7677283653846 3  L 6.72445913461539 3  L 3.97325721153846 8.22836538461538  Z M 24.7303185096154 25  L 24.7303185096154 10.1213942307692  L 3.22235576923077 10.1213942307692  L 3.22235576923077 25  L 24.7303185096154 25  Z " fill-rule="nonzero" fill="#00ffff" stroke="none" transform="matrix(1 0 0 1 784 11 )" />
  </g>
</svg>