<?xml version="1.0" encoding="utf-8"?>
<svg version="1.1" xmlns:xlink="http://www.w3.org/1999/xlink" width="28px" height="28px" xmlns="http://www.w3.org/2000/svg">
  <g transform="matrix(1 0 0 1 -908 -11 )">
    <path d="M 27.671875 0.328125  L 27.671875 14.68359375  L 27.671875 27.671875  L 0.328125 27.671875  L 0.328125 0.328125  L 27.671875 0.328125  Z M 21.7803564453125 25.826171875  L 25.826171875 21.780322265625  L 25.826171875 16.674560546875  L 17.34236328125 25.826171875  L 21.7803564453125 25.826171875  Z M 5.0820751953125 2.1396484375  L 2.1396484375 5.0818359375  L 2.1396484375 9.385400390625  L 9.3852978515625 2.1396484375  L 5.0820751953125 2.1396484375  Z M 14.1025390625 2.1396484375  L 2.1396484375 14.1025390625  L 2.1396484375 18.40576171875  L 18.40576171875 2.1396484375  L 14.1025390625 2.1396484375  Z M 25.826171875 2.1396484375  L 23.122763671875 2.1396484375  L 2.1396484375 23.122900390625  L 2.1396484375 25.826171875  L 3.7395654296875 25.826171875  L 25.826171875 3.739599609375  L 25.826171875 2.1396484375  Z M 25.826171875 12.55556640625  L 25.826171875 8.45673828125  L 8.4566357421875 25.826171875  L 12.735009765625 25.826171875  L 25.826171875 12.55556640625  Z " fill-rule="nonzero" fill="#00ffff" stroke="none" transform="matrix(1 0 0 1 908 11 )" />
  </g>
</svg>