<?xml version="1.0" encoding="utf-8"?>
<svg version="1.1" xmlns:xlink="http://www.w3.org/1999/xlink" width="33px" height="30px" xmlns="http://www.w3.org/2000/svg">
  <g transform="matrix(1 0 0 1 -534 -10 )">
    <path d="M 23.408478246858 21.925  L 23.408478246858 21.9178571289063  C 23.3378711513587 21.7014242315156  23.377336543711 21.4643250019964  23.5142934922724 21.2821428571429  L 27.3433695652174 17.7874999860491  C 27.9113295937094 17.1591719145891  28.727565219963 16.8105912382335  29.57625 16.8339285574777  L 32.766847826087 16.8339285574777  C 32.6203354049795 15.2412644844759  31.6541189907179 13.8384395903023  30.214728246858 13.1285714285714  L 30.214728246858 12.9160714425223  C 29.0691399332607 10.0515070263371  27.682011598069 7.28866273468485  26.0682065217391 4.65714284319197  C 25.6040242507671 4.28653442794745  25.0572143739106 4.03237950743174  24.4738043338145 3.91607144252233  C 25.1121354130418 3.53465190450545  25.5125888745351 2.85689533568798  25.5373369705333 2.11607144252233  C 25.5333906795055 0.947635335082269  24.5819994975099 0.00195882060692654  23.408478246858 0  L 10.6478804347826 0  C 9.47436186595541 0.00294443376950631  8.52377244821451 0.949418727101859  8.52081520337975 2.11785712890625  C 8.54556329937793 2.8586810220719  8.94601676087121 3.53643759088938  9.5843478400985 3.91785712890625  C 9.00093779617528 4.03416520616852  8.45412791899961 4.2883201411862  7.98994565217392 4.65892857142857  C 6.39705263289118 7.3019301723535  5.01078648721018 10.0630571645197  3.84342392705503 12.9178571289062  L 3.84342392705503 13.130357156808  C 2.47524621166429 13.9196398982644  1.53710657011972 15.2807443334531  1.28951085555367 16.8357142857143  L 4.48010868164062 16.8357142857143  C 5.32879346167763 16.8123769664701  6.14502908793128 17.1609576428257  6.71298911642323 17.7892857142857  L 10.5420652314029 21.1821428710938  C 10.6223203992956 21.4207007577671  10.658179499279 21.671838142592  10.6478804347826 21.9232142717634  C 10.6478804347826 22.1357142578125  10.3286412903363 22.2410714285714  10.1098369565217 22.2410714285714  L 1.28951085555367 22.2410714285714  C 1.33854331468504 22.8151870395872  1.44549552865511 23.3829300939874  1.60875 23.9357142996652  C 1.70273352993615 24.1597777757694  1.90611376653767 24.3197526198841  2.14679347826087 24.3589285853795  L 2.14679347826087 26.6803571289063  C 2.14678444585854 26.6827425719441  2.14677992964533 26.6851280298159  2.14677992964533 26.6875134898063  C 2.14677992964533 27.7358682994222  3.00033446095578 28.5857277894715  4.05324733496123 28.5857277894715  C 4.05564315255866 28.5857277894715  4.05803896802578 28.5857232928614  4.06043476859715 28.5857142996652  L 7.78190218792459 28.5857142996652  C 7.78429798849476 28.5857232928614  7.78669380396427 28.5857277894715  7.78908962156051 28.5857277894715  C 8.84200249556596 28.5857277894715  9.6955570268764 27.7358682994222  9.6955570268764 26.6875134898063  C 9.6955570268764 26.685128029816  9.6955525106632 26.6827425719439  9.69554347826087 26.6803571289063  L 9.69554347826087 24.7767857282366  L 11.0783152173913 25  L 23.2004347826087 25  L 24.5832065217391 24.7767857282366  L 24.5832065217391 26.6821428571429  C 24.5831974894424 26.6845282862296  24.5831929732821 26.6869137301505  24.5831929732821 26.6892991761897  C 24.5831929732821 27.7376539858055  25.4367475045925 28.5875134758548  26.489660378598 28.5875134758548  C 26.4920561961416 28.5875134758548  26.4944520115578 28.5875089792449  26.4968478120754 28.5874999860491  L 30.2183152314029 28.5874999860491  C 30.2225044990294 28.5875274839329  30.226693846309 28.5875412329869  30.2308832049676 28.5875412329869  C 31.283796078973 28.5875412329869  32.1373506102835 27.7376817429375  32.1373506102835 26.6893269333217  C 32.1373506102835 26.6869322348317  32.1373460590214 26.6845375384824  32.1373369565217 26.6821428571429  L 32.1373369565217 24.3607142717634  C 32.3780166682449 24.3215383062681  32.5813969048465 24.1615634621534  32.6753804347826 23.9374999860491  C 32.8243726321599 23.3814001390485  32.931087501518 22.814917014165  32.9946195792289 22.242857156808  L 24.1527717391304 22.242857156808  C 23.7277173913043 22.242857156808  23.5142934922724 22.1375000279018  23.408478246858 21.925  Z M 19.154347826087 2.64642858537946  L 19.154347826087 1.58749998604911  C 19.1501691594944 1.56050153913817  19.1480706451681 1.53322440417011  19.1480706451681 1.50590725685142  C 19.1480706451681 1.21004042658493  19.3889609156396 0.970192971137137  19.686114123429 0.970192971137137  C 19.9832673312184 0.970192971137137  20.2241576016899 1.21004042658493  20.2241576016899 1.50590725685142  C 20.2241576016899 1.53322440417011  20.2220590873636 1.56050153913817  20.2178804207711 1.58749998604911  L 20.2178804207711 2.64642858537946  C 20.2220590873636 2.67342703229042  20.2241576016899 2.70070416725845  20.2241576016899 2.72802131457715  C 20.2241576016899 3.02388814484364  19.9832673312184 3.26373560029143  19.686114123429 3.26373560029143  C 19.3889609156396 3.26373560029143  19.1480706451681 3.02388814484364  19.1480706451681 2.72802131457715  C 19.1480706451681 2.70070416725845  19.1501691594944 2.67342703229042  19.154347826087 2.64642858537946  Z M 13.8366847685972 2.64642858537946  L 13.8366847685972 1.58749998604911  C 13.8325061159751 1.56050158340177  13.8304076086957 1.53322449409777  13.8304076086957 1.50590739264486  C 13.8304076086957 1.21004056237837  14.0712978791671 0.970193106930577  14.3684510869565 0.970193106930577  C 14.6656042947459 0.970193106930577  14.9064945652174 1.21004056237837  14.9064945652174 1.50590739264486  C 14.9064945652174 1.53322449409777  14.9043960579379 1.56050158340176  14.9002174053159 1.58749998604911  L 14.9002174053159 2.64642858537946  C 14.9043960579379 2.6734269880268  14.9064945652174 2.7007040773308  14.9064945652174 2.72802117878371  C 14.9064945652174 3.0238880090502  14.6656042947459 3.26373546449799  14.3684510869565 3.26373546449799  C 14.0712978791671 3.26373546449799  13.8304076086957 3.0238880090502  13.8304076086957 2.72802117878371  C 13.8304076086957 2.7007040773308  13.8325061159751 2.67342698802681  13.8366847685972 2.64642858537946  Z M 5.11679347826087 12.5982142857143  L 5.11679347826087 12.6000000139509  C 6.08243521997813 10.1402432632837  7.25661969301511 7.76679413418777  8.62663044879416 5.50535714285715  C 9.37092394106658 4.86964287109375  12.0342391584579 4.23392855747768  16.2829891444463 4.23392855747768  L 17.6657608835768 4.23392855747768  C 22.0257065497622 4.23392855747768  24.6836413323709 4.86964282924107  25.3221195792289 5.50535714285715  C 26.7051555081437 7.79645639647268  27.8797735850381 10.2060413219062  28.8319565077276 12.7053571428571  C 24.9165147563285 11.8994274056983  20.9159384743353 11.5791353334718  16.9214673913043 11.7517857142857  C 12.966272115847 11.5084247927246  8.99615448992867 11.7930934769477  5.11679347826087 12.5982142857143  Z M 25.4422825946841 17.7928571289062  L 21.1738043618376 22.1285714285714  C 21.0679891584579 22.2339285574777  20.9603804628057 22.2339285574777  20.7487500140116 22.2339285574777  L 13.3058152173913 22.2339285574777  C 13.2000000140116 22.2339285574777  12.986576072945 22.1285714285714  12.8807608695652 22.1285714285714  L 8.62663044879416 17.892857156808  C 8.54006110357536 17.692644158353  8.50374379656123 17.4744579054132  8.52081520337975 17.257142843192  C 8.62335768934261 17.0565271847861  8.83287354544767 16.9327526047573  9.05885868164063 17  L 25.0100543618376 17  C 25.2360394980306 16.9327526047573  25.4455553541356 17.0565271847861  25.5480978400985 17.257142843192  C 25.6325597777033 17.4397478803649  25.5899049701833 17.6556977621933  25.4422825946841 17.7928571289062  Z " fill-rule="nonzero" fill="#00ffff" stroke="none" transform="matrix(1 0 0 1 534 10 )" />
  </g>
</svg>