<?xml version="1.0" encoding="utf-8"?>
<svg version="1.1" xmlns:xlink="http://www.w3.org/1999/xlink" width="26px" height="26px" xmlns="http://www.w3.org/2000/svg">
  <g transform="matrix(1 0 0 1 -154 -10 )">
    <path d="M 10.59375 25.59375  C 11.1115169529664 25.59375  11.53125 25.1740169529664  11.53125 24.65625  C 11.53125 24.1384830470336  11.1115169529664 23.71875  10.59375 23.71875  L 2 23.71875  L 2 2  L 23.71875 2  L 23.71875 10.6875  C 23.71875 11.2052669529664  24.1384830470336 11.625  24.65625 11.625  C 25.1740169529664 11.625  25.59375 11.2052669529664  25.59375 10.6875  L 25.59375 0.9375  C 25.59375 0.419733047033631  25.1740169529664 0  24.65625 0  L 0.9375 0  C 0.419733047033631 0  0 0.419733047033631  0 0.9375  L 0 24.65625  C 0 25.1740169529664  0.419733047033631 25.59375  0.9375 25.59375  L 10.59375 25.59375  Z " fill-rule="nonzero" fill="#00ffff" stroke="none" transform="matrix(1 0 0 1 154 10 )" />
  </g>
</svg>