<?xml version="1.0" encoding="utf-8"?>
<svg version="1.1" xmlns:xlink="http://www.w3.org/1999/xlink" width="50px" height="50px" xmlns="http://www.w3.org/2000/svg">
  <g transform="matrix(1 0 0 1 -11 0 )">
    <path d="M 36 0.5  C 49.72 0.5  60.5 11.28  60.5 25  C 60.5 38.72  49.72 49.5  36 49.5  C 22.28 49.5  11.5 38.72  11.5 25  C 11.5 11.28  22.28 0.5  36 0.5  Z " fill-rule="nonzero" fill="#ffffff" stroke="none" />
    <path d="M 36 0.5  C 49.72 0.5  60.5 11.28  60.5 25  C 60.5 38.72  49.72 49.5  36 49.5  C 22.28 49.5  11.5 38.72  11.5 25  C 11.5 11.28  22.28 0.5  36 0.5  Z " stroke-width="1" stroke="#027db4" fill="none" stroke-opacity="0.654901960784314" />
  </g>
</svg>