<?xml version="1.0" encoding="utf-8"?>
<svg version="1.1" xmlns:xlink="http://www.w3.org/1999/xlink" width="30px" height="26px" xmlns="http://www.w3.org/2000/svg">
  <g transform="matrix(1 0 0 1 -21 -13 )">
    <path d="M 22.9 9.50000000000001  C 23.4 9.20000000000001  23.4 8.50000000000001  23 8  C 22.8 7.8  22.5 7.7  22.2 7.7  C 21.9 7.7  21.7 7.8  21.5 8  L 17.5 11.7  L 14.7 8.8  L 14.6 8.7  C 14.4 8.5  14.2 8.5  13.9 8.5  L 13.7 8.5  C 13.5 8.5  13.3 8.6  13.2 8.8  L 7.2 14.4  L 6.9 14.9  C 6.8 15.3  6.9 15.7  7.1 15.9  C 7.3 16.1  7.6 16.2  7.9 16.2  C 8.2 16.2  8.4 16.1  8.6 15.9  L 13.9 11  L 16.7 13.9  C 16.9 14.1  17.2 14.2  17.4 14.2  C 17.7 14.2  17.9 14.1  18.1 13.9  C 18.2 13.9  18.2 13.8  18.3 13.8  L 22.9 9.50000000000001  Z M 23.4 24.8  C 23.4 24.1  23.1 23.7  22.4 23.7  L 7.6 23.7  C 6.9 23.7  6.5 24.1  6.5 24.8  C 6.5 25.5  6.9 25.9  7.6 25.9  L 22.3 25.9  C 23 25.9  23.4 25.5  23.4 24.8  Z M 27.9 20  L 2.2 20  L 2.2 3  L 27.9 3  L 27.9 20  Z M 30 2.7  C 30 1.7  29.2 0.800000000000001  28.1 1  L 1.9 1  C 0.9 0.799999999999995  0 1.6  0 2.69999999999999  L 0 20.6  C 0 21.6  0.899999999999999 22.5  1.9 22  L 28.1 22  C 29.1 22.5  30 21.7  30 20.6  L 30 2.7  Z " fill-rule="nonzero" fill="#80ffff" stroke="none" transform="matrix(1 0 0 1 21 13 )" />
  </g>
</svg>