<svg t="1763366109876" class="icon" viewBox="0 0 1024 1024" version="1.1" xmlns="http://www.w3.org/2000/svg" p-id="13181" width="200" height="200"><path d="M707.242218 691.50121c-36.951587-36.789904-74.002434-73.485665-110.474091-110.748337-6.812149-6.956436-9.887184-6.626931-16.366759 0.320295-49.975205 53.5578-100.183723 106.903775-150.808728 159.846568-27.0204 28.259624-60.499909 38.929638-98.738815 30.166043-39.794331-9.119705-66.223261-34.337039-77.082586-73.471338-11.102872-40.015366-0.412392-75.417667 29.647227-104.089683 53.470819-50.998511 107.339704-101.58156 161.245428-152.123676 4.948709-4.641717 5.845125-6.906294 0.426719-12.236696-37.614689-37.028335-74.889641-74.402547-112.010073-111.927185-4.727675-4.777817-7.237845-5.568832-12.730952-0.623193-54.667064 49.226145-109.487623 98.28549-164.596755 147.016355-60.367903 53.379745-88.957031 120.868835-90.626044 197.386556 0.720408 58.827827 14.462387 110.892623 44.333718 157.787676 52.648081 82.651418 128.23664 129.521912 225.951125 138.082892 84.829014 7.430226 158.743444-18.390859 217.162972-81.349773 52.859905-56.964386 103.755062-115.745141 155.774833-173.491333C712.830493 697.076182 710.740902 694.984544 707.242218 691.50121z" fill="#d81e06" p-id="13182"></path><path d="M713.917244 496.062006c-16.353456-16.152888-37.352723-15.941064-53.317323 0.535189-14.44499 14.910595-28.453029 30.248931-42.913369 45.143153-3.614317 3.721765-4.098341 5.921873-0.10847 9.878998 38.095643 37.798884 76.033697 75.755358 113.845884 113.835651 3.799536 3.828188 5.91778 4.117784 9.601682-0.12382 14.656815-16.880459 29.715789-33.409924 44.509726-50.170656 5.903453-6.686283 8.93551-14.619976 9.146311-23.969924-0.149403-10.457166-4.660136-19.257599-12.229532-26.786063C759.580237 541.65132 736.870002 518.732331 713.917244 496.062006z" fill="#d81e06" p-id="13183"></path><path d="M472.423121 406.429593c3.558036 3.581572 5.615904 3.498684 9.144264 0.075725 15.584953-15.128559 31.484062-29.933753 47.166229-44.963051 7.003508-6.711865 10.590196-15.024182 10.635221-27.021423 0.105401-7.507998-3.041266-16.015765-9.897418-22.911826-23.882943-24.00574-47.704488-48.072879-71.853491-71.807443-14.044878-13.802354-33.605376-14.632255-48.529273-1.912559-17.254989 14.705933-33.862225 30.170137-50.930973 45.098127-3.752464 3.282766-3.906983 5.314029-0.267083 8.930393C396.190903 329.965084 434.372503 368.132358 472.423121 406.429593z" fill="#d81e06" p-id="13184"></path><path d="M958.815907 403.730111c-0.490164-2.174526-1.076518-4.333702-1.731434-6.465249-47.976688-156.288532-148.564617-263.296685-301.31251-321.263911-13.069667-4.960988-26.480094-9.191336-39.842427-11.904121-7.836479 0.916882-13.393032 4.374634-15.030321 11.824303-1.672082 7.612375 0.682545 14.047947 8.270361 17.414625 3.464915 1.537006 7.262404 2.322905 10.910491 3.448542 136.547933 42.188868 233.399771 128.733966 290.284339 259.892145 7.749498 17.866926 13.568017 36.403095 18.8493 55.137785 2.551102 9.04705 10.94119 13.434987 19.419282 10.969842C956.394764 420.525636 960.772468 412.377048 958.815907 403.730111z" fill="#d81e06" p-id="13185"></path><path d="M621.018437 152.145166c-8.66945-3.109828-17.628496-5.405103-24.243147-7.40976-10.219759-0.158612-16.686031 5.307889-17.698081 12.899798-1.180895 8.867972 3.332908 14.853289 13.4575 17.917068 130.770346 39.581484 215.842907 124.907824 255.685333 255.486812 3.344165 10.955516 10.254551 15.684214 19.589151 13.260002 8.961092-2.326998 13.071713-10.700713 9.898441-21.339004C837.868277 289.37155 752.157173 199.189621 621.018437 152.145166z" fill="#d81e06" p-id="13186"></path><path d="M607.463724 235.505735c-10.883885-4.435009-22.099321-8.198729-32.378431-10.225899-9.828856-0.445138-16.375969 4.729721-17.73492 12.859889-1.431605 8.570189 3.683902 14.586207 14.665001 17.98256 99.580996 30.79947 164.785044 96.042403 195.623399 195.591677 3.648087 11.777231 10.473539 16.822131 19.825534 14.104229 9.403161-2.734274 13.085016-10.774391 9.631358-22.328541C767.283686 343.735715 703.65246 274.707572 607.463724 235.505735z" fill="#d81e06" p-id="13187"></path></svg>