<svg t="1763343586664" class="icon" viewBox="0 0 1024 1024" version="1.1" xmlns="http://www.w3.org/2000/svg" p-id="7921" width="200" height="200"><path d="M511.642 162.729c63.062 0 122.178 16.869 173.094 46.333l-122.075 211.449c-15.007-8.69-32.429-13.667-51.019-13.667-18.585 0-36.012 4.972-51.019 13.667l-122.075-211.449c50.919-29.461 110.030-46.333 173.094-46.333v0zM511.642 435.997c40.245 0 72.871 32.625 72.871 72.87 0 40.251-32.629 72.871-72.871 72.871s-72.871-32.622-72.871-72.871c0-40.245 32.625-72.87 72.871-72.87v0zM460.624 597.232l-122.075 211.446c-103.444-59.854-173.046-171.696-173.046-299.81h244.119c-0.001 37.757 20.505 70.726 50.997 88.374v0zM613.657 508.865h244.119c0 128.112-69.598 239.957-173.050 299.81l-122.075-211.446c30.494-17.645 51.001-50.606 51.001-88.374v0z" fill="#EB8740" p-id="7922"></path><path d="M511.642 75.276c119.73 0 228.124 48.531 306.593 126.995s126.997 186.866 126.997 306.593c0 119.73-48.532 228.125-126.997 306.597-78.462 78.46-186.866 126.995-306.593 126.995s-228.124-48.531-306.593-126.995c-78.462-78.462-126.995-186.87-126.995-306.597 0-119.725 48.532-228.123 126.995-306.593 78.462-78.462 186.866-126.995 306.593-126.995v0zM787.321 233.188c-70.542-70.544-168.007-114.183-275.678-114.183-107.659 0-205.129 43.633-275.678 114.183-70.547 70.544-114.187 168.014-114.187 275.677 0 107.666 43.639 205.13 114.187 275.684 70.544 70.542 168.014 114.183 275.678 114.183 107.666 0 205.13-43.639 275.678-114.183 70.547-70.547 114.193-168.014 114.193-275.684 0-107.659-43.639-205.129-114.193-275.677v0z" fill="#EB8740" p-id="7923"></path></svg>