<svg t="1763262069705" class="icon" viewBox="0 0 1024 1024" version="1.1" xmlns="http://www.w3.org/2000/svg" p-id="25954" width="200" height="200"><path d="M337.1442 267.2c-44 6.6-71 11.4-88.6 15.8-17 4.4-19.2 4.6-23.4 1.8-3-2-8.2-2.8-15.2-2.4-9.4 0.6-11.2 1.4-14.8 6.6-3.6 5.6-6.2 6.8-30.2 12.6-35.8 8.6-74.2 20.6-104.6 32.6-31.8 12.4-31.2 12-28.2 17.8 2.4 4.6 2.6 4.6 35.8 3.4 34.6-1.2 65-5 89.8-11.4 7.8-2 14.4-3.4 14.4-3.2 0 0 1.8 8.4 3.8 18.2 2.4 11.6 7.8 27 15 43 14.8 32.4 16 34 23.2 34 8 0 11-3.8 13.8-18 1.8-9.4 3.8-13.4 8.6-17.6 3.4-3 6.6-6.8 7.4-8.6 1-2.6 8.4 0.8 40.2 18.2 21.4 11.8 49.2 26.8 61.6 33.4l22.6 12-16.6 12.4c-12.2 9.2-39.2 23.8-102.2 55.4-47.2 23.6-87.8 42.8-90.4 42.8-5.2 0-13-8.4-13-14 0-4.8-5.8-9.2-15.2-11.8-4.6-1.2-9.4-3.6-10.8-5.2-11.4-13.8-105.8-59.2-116.2-56-8 2.6-4.2 9.6 14.8 28 11.8 11.4 28.6 24.6 46 36l27.2 18 0.2 10.2c0 5.8-1.2 11.6-3 14-8.8 11.8 1.4 56.2 19.2 82.4 3.6 5.2 12.6 23.6 20 41s15 33.8 16.6 36.6c6.2 9.2 23.2 4.2 23.2-6.8 0-3-4-19.4-8.8-36.4-4.8-17-8.4-31.2-8.2-31.6 0.2-0.2 7.8 3.2 17 7.8 19.8 10 32.2 12 38.2 6.6 6.2-5.6 4-16.2-9.2-45-6.2-13.4-10.8-24.6-10.4-25.2 2-1.8 178.6-58.6 180.4-57.8 1.2 0.4 3.8 5.2 5.8 10.4 8 20.2 27 38.6 44.8 43.4 5.8 1.6 9.6 4 11 6.8 2.4 5.4 5.8 5.8 9.4 1.6 1.4-1.6 3.8-3 5.2-3 2.2 0 2.8 5 2.8 24.4 0 13.6 0.6 26.6 1.2 29 1.2 4.6 10.8 8.6 20.6 8.6 2.6 0 7.2 2.2 10.6 5 12.6 10.6 34.2 10.6 45.6 0.2 3.6-3.4 8.4-5 16.8-5.8 6.4-0.6 12-1.6 12.6-2.2 2.2-2.2 4.4-18.8 4.6-34.2 0-17.4 2.2-23.6 6.4-19.4 3.6 3.6 7 3 8.2-1.6 0.6-2.2 2.2-4.4 3.8-5 22.6-7.8 27.2-10.4 36.6-19.8 5.8-5.8 13.2-16.2 17-23.8 3.6-7.4 7.4-13.4 8.2-13.4 1.8 0 166 60 167.6 61.2 0.4 0.4-6 9-14.4 19.2-16.8 20.8-33.4 46.6-33.4 52 0 5.4 8 11.6 15.2 11.6 7.6 0 35-8.4 50.8-15.4 23-10.4 24-10.8 23-8.2-5.4 16.4-19 66.2-19 70.2 0 9 16 15.6 21.6 8.8 1-1.2 8.2-16 16-32.6 7.6-16.6 17.4-35.4 21.8-42 11.4-16.8 18-30.2 20.6-41.6 1.2-5.4 1.8-10 1.4-10.6-0.6-0.4-3 3.6-5.6 8.8-5 10-12 14.8-25.8 17.6l-7 1.4 5.2-5.6c2.8-3.2 7-8.6 9.4-12 2.4-3.6 6.8-7 9.8-7.8 3-0.6 8-3.2 11.2-5.4 5.4-3.8 5.6-4.8 4.6-13.4-0.8-5-1.8-13.8-2.4-19.2l-1-10 29.6-14.8c32.8-16.2 55.2-30.2 74.2-46 18.4-15.6 16.2-22.8-5.4-17.2-36.6 9.4-92.4 31.8-124.2 50-5 2.8-11 5-13.4 5-2.4 0-8.6 3.6-13.6 8l-9.4 8-15.2-8.4c-119.6-65.4-178.4-100.2-178.4-105.8 0-1.4 10-6 79.6-37l46.8-20.8 7.6 8.4c5.8 6.4 8.6 11.8 10.8 21.4 3 13.2 5.2 16.2 12.2 16.2 6.4 0 7.8-1.8 21.6-27.4 12.8-23.6 17.4-34.8 21.4-51.6l2-8.2 22.4 7.4c47 15.4 95.8 23.6 101.2 17.2 2.2-2.6 1.6-3.8-4-8-18.8-14.4-65.4-38.6-106-55.4-23-9.4-28.2-12.4-32.2-18-5.4-8.2-14.6-11.6-24-8.6-5.6 1.6-10.2 0.8-27.6-4.6-34.4-11-124.4-30.8-127.2-28-2.8 2.8 5 7.2 25.8 15 26.6 9.8 71.4 24.4 93.2 30.4 13.4 3.6 16.4 5 15.2 7.6-0.8 1.8-2.8 8.2-4.6 14.2-1.8 6-5.4 13.4-8.2 16.2-2.8 2.8-5.8 6.4-7 8.2-1.4 2.4-21 7.2-70.8 17.6l-68.8 14.2-28.4-18.8c-42.4-28.4-34-26-92-26.2l-50.2-0.2-24.6 15c-13.6 8.2-27.6 16.6-31.2 18.4-3.8 2-7.2 4.2-7.8 5.2-0.6 1-33.2-7.4-72.6-18.6-69.6-19.8-71.4-20.4-72.8-26-1-3-3.4-7.4-5.4-9.8-4-4.4-9.2-25.2-6.8-27.4 0.8-0.6 10.6-2.8 21.8-4.6 34.6-5.8 107.4-25.6 112.6-30.4 2.4-2.4 1.4-2.8-8-2.6-6 0.2-19 1.4-29 3z m20.4 2c-0.6 0.6-2.4 0.8-3.8 0.2-1.6-0.6-1-1.2 1.2-1.2 2.2-0.2 3.4 0.4 2.6 1z m-7.6 1.6c-0.8 0.6-72.8 17.2-75 17.2-0.6 0-0.6-0.8 0.2-1.8 0.6-1-1-2.2-3.4-2.6-2.6-0.4 12-3.4 32.4-7 35.2-6 47.6-7.6 45.8-5.8z m367.8 11.2c57.6 12.8 94.6 26 72.8 26-4 0-4.6-0.6-2.6-1.8 4-2.6-24.2-11-31.8-9.6-5.2 1.2-39.4-8.2-68-18.4-16.4-5.8-10.2-5 29.6 3.8z m-454.2 3.2c-0.6 0.6-2.4 0.8-3.8 0.2-1.6-0.6-1-1.2 1.2-1.2 2.2-0.2 3.4 0.4 2.6 1z m-8 2c-0.6 0.6-2.4 0.8-3.8 0.2-1.6-0.6-1-1.2 1.2-1.2 2.2-0.2 3.4 0.4 2.6 1z m-34.4 4.8c0 6.8-18 9.2-20.4 2.6-1.6-4.4 3.2-6.8 12.4-6.2 5.4 0.4 8 1.6 8 3.6z m22.2-1c-3.2 1.8-7.4 2.6-9 1.8-2.6-1-2.2-1.6 1.8-2.8 2.8-1 6.8-1.6 9-1.8 3-0.2 2.6 0.6-1.8 2.8zM197.1442 306c4.4 2.2 9 4 10.4 4 8.4 0-7 12.4-26.6 21.4-9 4-11.4 4.6-14 2.4-3.8-3.2-12.4-4.2-14-1.6-0.6 1-2 1.4-3 0.8-1-0.8-1.8-0.2-1.8 0.8 0 1.2-2.2 2.2-4.8 2.2-6.4 0-11.4 2-10.2 4 0.6 1-3.6 1.4-9.2 1-7.6-0.4-9.8 0-9 2 0.6 1.8-0.6 2.4-3.8 2-2.6-0.2-10.8 0.8-18.4 2.2-20.4 4-51.8 5.8-53.4 3.2-1.8-2.8 1.2-4.2 31.8-15.4 35.4-12.8 87.2-27.6 89.4-25.4 1 1 6.2 0.6 12-0.8 5.6-1.6 11-2.2 11.8-1.6 1 0.6 1.8-0.4 1.8-2 0-4.2 1.6-4 11 0.8z m628.8 1.8c8.4 6.4-0.4 11.8-11.6 7-9.6-4-7.6-9.8 3.8-10.6 1.6 0 5.2 1.6 7.8 3.6z m-588.2 19.6c-0.4 5.8-2 8.2-7 11-11.6 6.8-35 7.2-43.6 0.8-3.6-2.6-3.4-3 3-7 4.4-2.6 10.6-4.2 16-4.2 5-0.2 13.6-1.8 19-3.8 13.6-5 13.4-5.2 12.6 3.2z m602.6-2.6l-4.8 2.6 5.6 1.4c3.6 1 6.2 0.6 7-0.8 1.6-2.4 11.6-1.2 18 2.2 1.6 0.8 10.6 5 20 9 17.4 7.6 61.4 30.6 77.6 40.8 8 5 8.6 5.6 4.8 6.8-4.8 1.6-18.2-0.4-21.6-3-1.2-1-4.6-2-7.4-2.2-2.8-0.2-4.8-1-4.2-1.8 0.4-0.8-3.2-2.2-8-2.8-5-0.8-9.4-2.6-10-4.2-0.6-1.6-2.4-2.2-4.2-1.6-1.8 0.8-4.2-0.2-5.8-2.2-1.6-2.2-3.6-3-5.2-2-1.4 0.8-3.2 0.4-4-1-0.8-1.4-4.2-2.8-7.2-3.2-3.2-0.2-6-1.4-6.4-2.4-0.4-1.2-2.4-1.4-4.8-0.8-2.8 0.6-3.8 0.2-2.8-1.2 1.6-2.8-7.4-5.4-11-3.2-1.6 1-1.8 0.6-0.8-1.2 1-1.8 0.4-2-2.6-1.2-2.8 1-5.4 0-8-2.8-3.2-3.6-4.8-4-8-2.2-6.4 3.4-7.6 2.8-18.6-8.2l-10.6-10.6 11-3.2c13.2-4.2 18.4-4.6 12-1z m-21.2 22.2c7.4 0.8 14 3 17 5.4l5 4-4.8 3.8c-8.4 6.8-34.4 3.8-44.4-5.4-3.6-3.2-5.4-14.6-2.6-17.2 0.6-0.6 4.8 1 9.4 3.4 4.6 2.6 13.8 5.4 20.4 6z m-640.8-3.6c2.6 3.2 2.4 3.4-0.6 0.8-2-1.4-3.6-3-3.6-3.4 0-1.6 1.6-0.6 4.2 2.6z m62.8 4.6c-0.6 1-2.4 2-3.6 2-1.4 0-1.2-0.8 0.6-2 3.8-2.4 4.6-2.4 3 0z m82.8 20.2c34.6 9.8 63 18 63.2 18.2 0.4 0.4-3.6 5.2-8.8 10.8l-9.6 10.4-64.4-27.2-64.4-27 5.4-3.6c4.2-2.6 6.6-3 10.6-1.4 2.8 1 33.4 10 68 19.8z m233-15.8c0.6 2.6 1.4 9.8 2.2 16.4 0.6 6.4 2.6 16.2 4.4 21.6 4.4 13.4 2.8 35.6-3.4 47.6-3.2 6.2-5.4 16-7.2 32-3.8 32.6-1.2 31-50.6 31h-39.8l-4.2-5c-3.8-4.6-4-6.6-3-25.4 1.2-18.4 0.8-21.6-3.2-31.8-4.4-10.8-4.6-12.4-2.4-29.4 1.2-9.8 3.6-19.8 5.2-22.4 1.8-2.6 5-11.8 7.4-20.4 2.4-8.6 4.6-16.2 5.2-17.2 0.4-0.8 20.6-1.4 44.6-1.4h44l0.8 4.4z m-361.2 3.8c7.2 1.4 13.4 1.4 22.4-0.2 6.8-1.2 12.8-2 13.2-1.6 0.4 0.6 1.6 7 2.6 14.6 1.6 10.4 1.4 14.2-0.4 15.4-1.4 0.8-9 1.6-17.2 1.6-23.4 0-34.2-8-37.4-28-1.4-8-1.2-8.4 2.8-6.2 2.2 1.2 8.6 3.2 14 4.4z m259.4 5.2c-0.8 5.4-3.8 15.4-7 22.6-3 7.2-6.8 20.2-8 28.8-2 14-2 17.4 1 27.4 3.2 10.4 3.4 16.2 1.6 61-1.2 27.2-1.6 51-1.2 53 0.6 2 2.4 4 4.4 4.4 7.2 2-13.8 1.2-24.8-0.8-15.8-2.8-29-9.8-40.8-21.4-9.4-9.2-9.6-9.8-12.2-27-2.2-15.8-3-17.8-7.4-19.6-2.6-1-7-1.2-9.8-0.6-2.8 0.8-4.8 0.4-4.8-0.8 0-1.2-0.6-3.4-1.2-5-0.6-2 3.2-6 11.6-11.8 20.4-14.6 68.8-67 65.2-70.6-0.4-0.4-6.6 6.2-13.6 14.8-12.4 15-18 18.8-18 12.6 0-1.8-4.2-7-9.2-11.6l-9.2-8.6 10.4-10.6c5.8-5.8 10-9 9.4-7.2-2.2 6.4 3.6 8.2 13 4 11.2-5 15.2-9.6 12.2-14.4-2-3 0-5 17-15.6 10.6-6.6 20.2-12.2 21.2-12.2 0.8-0.2 1 4 0.2 9.2z m136.6 6.2c13 8.8 16.2 11.8 15.2 14.8-1.8 5.8 1 11.4 7.2 14.6 10.4 5.4 17.2 3.8 16.2-4-0.4-3.2 13.6 13.6 15 18 1 2.6 0.2 4.6-2.2 6-8 4.6-14 10.8-16 16.8l-2 6.4-10.6-13.6c-5.8-7.4-11.8-15.4-13.2-17.6-1.6-2.2-3.4-3.6-4-3-1.2 1.4 10.2 18.6 24 36 11.2 14 21.8 24.2 35.8 34.2 8 5.8 8.6 6.6 6.6 12-2 5.6-6.2 7.6-8.4 4-1.8-2.8-19-8.2-22-7-3.8 1.4-8.4 18.4-5.6 21.2 1 1 3 1.6 4 0.8 3-1.8 5-11.6 2.6-13-3.8-2.4 1-6.8 5.6-5.2 3.2 1 4 2.4 3 4.6-0.6 2-3.2 11-5.4 20.4-3.4 15-4.8 18-12.4 25.2-14 13.6-28 19.2-53.8 21.6l-22.2 2.2 15.6 0.6c25.4 1 46-6.2 62.6-22l6.2-5.8-1.8 12.4c-2 15.2-9.6 32.4-18.2 41.6-6.6 6.8-27.6 18.2-34 18.2-2 0-5.8-2.4-8.4-5.6l-4.6-5.4-67.4-0.6-67.2-0.6-2.4 6c-1.2 3.4-3.2 6.2-4.4 6.2-1 0-7.4-2.6-14.2-5.8-23-10.8-35.2-28.6-38.4-55.6l-1.6-14.4 9.6 9c19.4 18.2 40.6 23 96.6 22.4l22-0.4-16-1.2c-11-0.8-1.6-1.4 29.2-1.6 37.2-0.4 45.6-1 46.4-3.2 0.6-1.6 1.8-25.2 2.6-52.6l1.2-49.6 5.8-10.8c5.2-9.8 5.8-12.8 5.8-29 0-12.6-1.2-22.2-4-30.8-2.2-7-4-17.2-4-22.6 0-11.6-1.2-12 25.6 5.8z m188.4-12.6c0 1.6-0.8 3-2 3-1 0-1.4-1.4-0.8-3 0.8-1.6 1.6-3 2-3 0.4 0 0.8 1.4 0.8 3z m-489.6 27.2c27.8 12 56.2 24.4 63 27.4 10.2 4.4 12.4 6.4 13.4 11.2 1.4 7 1.6 25.2 0.2 25.2-4 0-121-61.2-125.4-65.6-3.8-4-7-20.4-4-20.4 1.2 0 24.8 10 52.8 22.2z m489.6-15.2c2.8 3.4 7 4.2 5 1-1.8-2.8-1.2-2.6 9.6 2.8 15.4 7.8 34.2 8.6 50.2 2.2 3.4-1.4 3.6-1 2.4 4.2-3.4 13.8-8 19.6-20.2 25.6-11.4 5.6-12.4 5.8-24.6 3.6-7-1.2-13.4-2.6-14-3.4-0.6-0.6 0-7.6 1.2-15.4 1.4-7.8 1.8-15 1-15.8-1.6-1.6-31.2 7.2-99.2 29.6-39.6 13.2-41.4 13.6-42.6 9.6-0.8-2.2-3.6-7-6.2-10.6-2.8-3.6-4.6-7-4.2-7.6 0.6-0.4 28.8-6.6 62.8-13.8 34-7.2 62.8-13.4 63.8-13.8 4.6-2 12.6-1 15 1.8z m6.2 19.8c-1 5.2-2.2 9.8-2.8 10.4-1 1.2-84.4 37.4-117 51l-18.8 7.8 1.4-12.6c1.8-17.2 2.4-18.6 8.6-21.2 10.6-4.4 129.4-45.8 130-45.4 0.2 0.4-0.4 4.8-1.4 10zM409.1442 384c0.6 1-0.2 2-2 2s-2.6-1-2-2c0.6-1.2 1.6-2 2-2 0.4 0 1.4 0.8 2 2z m-196.8 6.4c12 0.2 13.2 0.6 12.4 3.8-0.6 2.2-3 4.2-5.4 4.8-11.2 2.2-15.2 2.2-15.8 0.2-0.4-1.2-1.4-1.6-2.2-1-0.8 0.6 1.2 8.6 4.4 17.6 3.2 8.8 5 16.2 4.2 16.2-1 0-1.8-0.2-1.8-0.6 0-0.4-4.4-10.6-9.8-22.8l-10-22.4 5.4 2c3 1.2 11.4 2.2 18.6 2.2z m25.8 2.6c-5.6 5.8-7.2 6.2-8.8 1.6-1.6-3.8 1.8-6.6 8.6-6.6h4.8l-4.6 5z m-25.2 22c4.6 18.2 3.8 20.2-1.8 5-5.2-14-6-18-3.2-18 1 0 3.2 5.8 5 13z m7.6-4c-0.8 6.4-4.4 10.2-4.4 4.4 0-1.2-0.6-4.4-1.2-7-1-3.4-0.4-4.4 2.6-4.4 3.2 0 3.6 1.2 3 7z m573.2-2c0.4 0.4 0.4 2.2 0 4-0.4 2.8-1.4 2.4-5.6-2l-5-5.4 5 1.4c2.8 0.8 5.4 1.8 5.6 2z m38.4 3.8c-5.6 15.2-20 39.8-20 34.4 0-0.4 2.8-7.8 6.2-16.2 7-17.6 6.2-23.2-0.8-6.8-2.6 6-5.4 12.2-6.2 13.8-1.2 2.8-1 1.4 2-12.6 1.2-4.6 0.6-5.4-3-5.4-5.8 0-12.2-3.4-12.2-6.6 0-2 3-2.4 11.6-1.8 6.2 0.4 13.6-0.2 16.4-1.4 7.4-3 8-2.6 6 2.6z m-449.2 10.2c1.8 2.8 3.2 6.8 3.2 9 0 4.4-7.6 16-10.4 16-0.8 0-1.6-7.2-1.6-16 0-13 0.6-15.6 2.8-14.8 1.6 0.6 4.4 3.2 6 5.8z m261 14.2c-1.2 8.6-2.4 16.2-2.8 16.6-0.4 0.4-3-1.8-5.8-4.8-8.2-8.8-6.2-20.2 4.4-25.8 3-1.6 5.6-2.6 6-2.4 0.2 0.4-0.6 7.6-1.8 16.4z m-200.4-7.8c-0.6 2-1 0.8-1-2.4 0-3.4 0.4-4.8 1-3.6 0.4 1.4 0.4 4.2 0 6z m365-0.4c-1 5.6-4.4 8.8-4.4 4.2 0-1.6-0.6-4.2-1.2-6-0.8-2.2 0-3.2 2.8-3.2 3 0 3.6 1 2.8 5zM570.1442 431.6c0 1-1.4 3.4-3 5.6-2.8 3.6-2.8 3.4-0.8-1.8 2.4-5.4 3.8-6.8 3.8-3.8z m-120.6 28.8c-0.4 2.6-0.8 1-0.8-3.4-0.2-4.4 0.2-6.4 0.8-4.6 0.4 2 0.4 5.6 0 8z m110 3c-0.6 2-1 0.4-1-3.4s0.4-5.4 1-3.6c0.4 2 0.4 5.2 0 7z m-216.4 25.8c2.8 7 3.4 7.2 10.2 5.8 8-1.4 10.8 0.6 10.8 8.6 0 5.4 7.8 2-84.8 36.6-41.8 15.4-83.8 31.6-93.6 36.2-9.8 4.4-18.2 7.6-18.6 7.2-0.2-0.2-2-3.4-3.6-6.8l-3.2-6.2 11.8-5.2c10.2-4.4 11.8-4.6 13-1.8 1 2.4 1.6 2.6 3.6 0.4 1.8-2 1.8-2.8-0.4-3.6-1.6-0.6 31.6-18.4 74-39.6 42.2-21.2 77-38.6 77.2-38.6 0.4-0.2 2 3 3.6 7z m-311.4 3c29 12.4 49.4 23 68 35.2 9 6 16.4 11.2 16.4 11.4 0 1.2-21.2 11.2-23.6 11.2-2.6 0-28.8-15.4-45.2-26.4C34.9442 515 6.1442 488.6 6.1442 485.8c0-3.4 6.2-1.8 25.6 6.4z m707.6 30.6c37.2 20.8 70.6 39.8 74.2 42.4 3.4 2.6 7.4 4.8 8.8 4.8 1.4 0 6.4 2.2 11 5l8.6 5-3.4 5.8-3.2 5.8-12-6c-6.4-3.2-48.4-20.8-93-39s-82.6-33.8-84.4-34.8c-2.6-1.2-3-3.2-2-8.2 1.6-7 4.4-7.8 13.8-4.8 4 1.4 5 0.6 7.8-6.6 1.8-4.6 3.8-8 4.6-7.8 0.6 0.4 31.8 17.6 69.2 38.4z m-279.6-20.4c3 1.2 21.6 2.6 41.4 3 40 1 49.8-0.6 54.6-9.4 2.4-4.4 2.6-2 1.6 18-0.6 12.6-1.2 27.4-1.2 32.8v9.8l-55.2-1.2c-30.4-0.6-55.4-1.4-55.6-1.8-0.4-0.4-0.2-15.2 0.4-33.2l0.8-32.6 3.8 6.2c2.2 3.4 6.2 7 9.4 8.4z m554.6 12.4c-13.6 14.4-64.6 44-96.6 56.2l-9.4 3.4-9.4-5.6c-5-3.2-9.2-6.8-9.2-7.8-0.2-6.4 108.2-51 124.2-51h4.8l-4.4 4.8zM364.1442 534c0 11-0.6 13.8-3.4 15-8 3.2-167 57-168.8 57-1 0-1.8-5.8-1.8-12.6v-12.8l85.6-31c47-17 86-30.6 87-30.2 0.8 0.4 1.4 7 1.4 14.6z m361.8 19c43 17 80 31.8 82.2 33 3.8 2 4 3.4 2.8 14.6-0.8 6.8-1.6 12.6-1.8 12.8-0.8 1.2-162.8-60.8-165.6-63.4-2-1.8 0.4-28 2.6-28 0.8 0 36.6 14 79.8 31z m-590.8-3.8c2.8 2.8 2.8 3.8 0.4 7.6-5.8 8.6-27.4 8.8-27.4 0.4 0-9.2 19.8-15 27-8z m750 22.8c2 2.2 4.4 3.4 5.2 2.8 2.8-1.6 2.2 6-0.6 8.8-3.6 3.6-17.6 3-22-1-2-1.8-3.6-4.8-3.6-6.8 0-7.8 15-10.6 21-3.8z m-734 5.4c15 15.8 44.2 67 52.6 92.2 2.2 6.2 1.8 6.8-4 10.4-6.6 4-9 3.6-23-3.8-9.4-5-16.6-11.2-16.6-14 0-1.2-1.4-2.2-3.2-2.2-1.6 0-2.4-1-1.8-2 0.6-1.2-0.2-2-2-2s-2.6-1-2-2c0.6-1.2-0.2-2-2-2s-2.8-0.8-2.2-1.6c0.4-0.8 0.2-2.8-0.6-4.2-1.2-2-2.2-1.8-4.8 0.6-2 2-3.6 2.4-4.4 1.2-0.6-1-0.2-2 0.8-2 1.2 0 2.2-1.8 2.2-4.2 0-3-0.8-3.8-3.2-3-2.8 1-3 0.8-1-1.6 3-3.4 0-5.8-5.2-4-3 1-3.2 0.8-0.6-1 2-1.4 2.2-2.8 1-3.8-5.8-4-14.4-17.2-13.6-20.2 0.6-2.6-1-4.4-5.6-6.2-3.6-1.6-5.4-3.2-4.2-3.6 3.2-1 3-5.4-0.4-8.2-6.4-5.4-2.2-9 15-13.6 22-5.6 22.8-5.6 28.8 0.8z m35 11.4c0 3.6 0.6 9.4 1.2 13 1 4.6 0.4 6.4-2 7.4-3.6 1.4-6.2-1.2-13.2-13.8l-4.2-7.4 6.6-3c10-4.4 11.6-3.8 11.6 3.8z m-85-3c-0.6 1-0.2 2.4 1 3.2 1.2 0.8 1.4 2.2 0.8 3.4-0.8 1.2-2 1-3-0.6-2.4-3.8-2.2-7.8 0.4-7.8 1 0 1.6 0.8 0.8 1.8z m725.2 5.6c3.2 2 5.8 4 5.8 4.8 0 0.8-4.4 5-9.6 9.4l-9.6 8.2 0.6-6.4c2.4-21.2 2.8-21.8 12.8-16z m38.4 4.6c5 0 29.4 12.8 29.4 15.6 0 1.6-2.8 8-6.2 14.4-6.6 12.4-16.2 22.6-23.4 25-2.4 0.6-4.4 2-4.4 3s-1.8 2.4-4 3c-2.2 0.8-3.6 2-3 2.8 0.4 1-3.2 3.2-8 5.2-5 1.8-9 4.6-9 6.2 0 1.6-1.8 2.8-4 2.8s-4.6 1.2-5.2 2.8c-0.6 1.6-2.2 2.6-3.8 2-1.4-0.6-3.8 0.2-5.2 1.8-2.8 2.6-24.8 11.6-37.4 15.4-5.4 1.4-7.4 1-12-3l-5.4-4.6 14-20.6c14.4-21.2 43.2-53 63.6-70.2l11.6-9.6 5.2 4c2.8 2.2 6 4 7.2 4zM114.3442 635.4l9.6 12.4-9-2.8c-5-1.4-11.2-4-13.8-5.8-4.6-3-9-13.8-9-21.8 0-3.2 0.6-3 6.2 1 3.4 2.6 10.6 10.2 16 17zM470.1442 624v8h25.8c14.2 0 28.6 0.6 32 1.2l6.2 1.2v-9.2c0-7.8 0.6-9.2 3.8-9.2 9 0 10.2 1.8 10.2 16v13.4l-19.4-4.6c-24.6-5.8-33-5.8-56.4-0.2l-18.6 4.8 1.2-7.2c0.6-4 1.2-10.6 1.2-14.8 0-7.2 0.2-7.4 7-7.4s7 0.2 7 8z m58.8-1.6c0.6 3.4 1 6.4 0.8 6.6-0.4 0.2-13 0-28-0.6l-27.6-1V616h53.6l1.2 6.4z m-11.6 21.2c5.6 3 10 9.8 11.6 18.4l1.4 7-3.6-7c-2-3.8-6.6-9-10.4-11.4-12.8-8.6-33.8-4.4-39.2 7.8-2.6 6.2-2.8 6.4-3 1.4 0-6 8-14.4 17.6-18.4 7-3 17.8-2 25.6 2.2z m-43.6 3.8c-1.8 2-3.6 6.8-4.4 10.8-1.2 6.2-2 7.2-6 6.4-2.6-0.6-5.4 0-6 1.2-2.8 4.4-4.2 2-4.2-6.8-0.2-9 0-9.2 9-12 13-4 15.4-3.8 11.6 0.4z m68 0.8c3.6 1.4 4.4 3.2 4.4 10.8 0 8.6-0.2 9-6 9-5.4 0-6-0.6-6-6.8 0-3.8-1.8-9-4.2-12l-4.2-5.4 5.6 1.4c3.2 0.8 7.8 2.2 10.4 3z m-434.6 5.2c1.6 2.2 6.2 3.4 14.2 4 15.6 1.2 19 2.2 14.4 4.8-3.2 1.8-2.6 4.6 7.2 32.4 12.4 35.6 17.4 47.2 18.4 44.2 0.6-1.2-4.4-17.4-11-36-8.6-24.2-11.2-34.2-9.6-35.2 1.4-0.8 3-0.8 3.8 0 0.8 0.8 5.6 17.4 10.8 37.2 9.4 34.6 9.4 35.8 5.8 38.4-2.2 1.6-4.8 2.6-5.8 2.2-1-0.4-9-18.2-17.6-39.6-15-36.8-19.6-45-24.6-43-1.2 0.4-4.2-2.2-6.6-6-4.4-6.8-4-9.8 0.6-3.4z m417.4 16.4c0.4 10-6 15-18.2 14.6-5.6 0-13.2-1.6-17.2-3.6-6.4-3-7-4-6.6-11.6 0.2-7.4 0.4-7.6 1-1.6 0.6 4.8 2.6 7.6 7.2 10.6 8 4.8 14.8 4.8 22.8 0 7.4-4.6 9.6-10.4 6.4-16.6-2-4.2-2-4.4 1-1.4 2 1.8 3.6 6 3.6 9.6zM896.1442 662c0 1-1.6 2-3.4 2-3 0-3.2-0.4-0.6-2 3.8-2.4 4-2.4 4 0z m-22.6 5.2c-0.6 0.6-2.4 0.8-3.8 0.2-1.6-0.6-1-1.2 1.2-1.2 2.2-0.2 3.4 0.4 2.6 1z m15.6 2.8c-0.6 1-4.8 2.8-9 4-9.4 2.6-11.2 5.6-28.8 49-14 34.6-14 34.6-18 31.2-2.6-2.2-2.8-3.4-0.4-8 5.2-10.2 23.4-63.2 23.6-68.6 0.2-6.4 2.2-7.2 19.6-8.2 6-0.4 11.8-0.8 12.6-1 1-0.2 1 0.4 0.4 1.6z m-9 8.8c0 0.8-15 34.4-26.8 60-4 8.6-7.8 15.4-8.2 14.8-1.2-1 26.4-69.2 29.6-73.2 1.8-2.2 5.4-3.4 5.4-1.6z m-28.6 5.6c-0.6 1.6-1.2 1-1.2-1.2-0.2-2.2 0.4-3.4 1-2.6 0.6 0.6 0.8 2.4 0.2 3.8z" p-id="25955"></path><path d="M849.1442 329.6c-2.2 2.4-0.8 4.4 3.2 4.4 2.4 0 3.4 0.8 2.6 2.2-0.8 1.4 0.4 1.8 3.4 1.4 7-1 5.8-6.2-1.6-7.8-3.6-0.6-7-0.8-7.6-0.2zM362.7442 483.4c-5 2-2.4 3.8 4.2 3l6.8-0.8-1 8.2c-1 6.6-0.6 8.2 2.2 8.2 3.4 0 4-1.8 3.2-10-0.6-8.8-6.8-12.2-15.4-8.6zM390.7442 505.4c-2.4 0.4-6.6 3.2-9.4 6-10.6 10.6-3.4 22 9.8 15.6 12-5.6 16.8-16.8 9.2-21-2.2-1-4.2-1.8-4.6-1.8-0.4 0.2-2.6 0.8-5 1.2z m3.4 5.4c0 0.4-1.4 1.2-3 2-1.6 0.6-3 0.2-3-0.8 0-1.2 1.4-2 3-2s3 0.4 3 0.8z m2 8c0 0.6-0.8 1.6-2 2.2-1 0.6-2 0.2-2-0.8 0-1.2 1-2.2 2-2.2 1.2 0 2 0.4 2 0.8zM604.7442 509.4c-3.2 1.2-3.4 9.4-0.6 14.8 6.2 11.2 24 11.4 24 0 0-10-13.8-18.8-23.4-14.8z m12.4 4.6c0.6 1-0.6 2-2.8 2-2.4 0-4.2-1-4.2-2 0-1.2 1.2-2 2.8-2 1.6 0 3.6 0.8 4.2 2zM72.1442 531c0 4 16.6 15 22.8 15 8 0 6.2-2.8-7-10.6-13.8-8.2-15.8-8.8-15.8-4.4zM919.7442 559.2c-13 6.6-17 10.8-10.6 10.8 5.6 0 27-12 27-15 0-4-1-3.8-16.4 4.2zM136.3442 575.4c-2.6 0.6-6 2.2-7.4 3.6-1.6 1.4-3.8 3-5.2 3.6-1.4 0.4-2 1.4-1.4 2.2 0.6 0.8 3.8 0.2 7-1.2 5.8-2.4 7.8-3 12.4-3.4 1.2 0 2.4-1.6 2.4-3.2s-0.6-2.8-1.4-2.8c-1 0.2-3.8 0.8-6.4 1.2z" p-id="25956"></path><path d="M135.1442 584c0.8 1.2-1 2-3.8 2s-5.2 1-5.2 2c0 1.2 4 1.8 9 1.6 9.8-0.6 11.2-2.2 5.2-5.6-5-2.6-6.8-2.6-5.2 0zM135.1442 628c0.6 1 2.2 2 3.2 2 1.2 0 1.4-1 0.8-2-0.6-1.2-2.2-2-3.2-2-1.2 0-1.4 0.8-0.8 2zM851.7442 595.4c-2 0.4-3.6 1.8-3.6 2.8 0 1-0.8 1.8-1.8 1.8-2.8 0-12.2 9-12.2 11.8 0 1.2 2.2 2.2 5 2.2s5-0.8 5-1.6 2.8-3.2 6.2-5.2c4.6-2.8 5.8-4.6 5-7.8-0.8-3-0.4-3.4 1.4-1.6 1.2 1.2 3.6 2.2 5.4 2.2 2.4-0.2 2.2-0.8-0.8-3-2.2-1.6-4.4-2.8-5-2.8-0.6 0.2-2.8 0.6-4.6 1.2z" p-id="25957"></path></svg>