<svg t="1763284748833" class="icon" viewBox="0 0 1137 1024" version="1.1" xmlns="http://www.w3.org/2000/svg" p-id="80365" width="200" height="200"><path d="M440.888889 0a440.945778 440.945778 0 0 1 400.355555 256l0.199112 0.426667 7.907555 0.512c158.663111 12.259556 284.16 142.904889 288.312889 303.758222L1137.777778 568.888889c0 169.528889-135.025778 308.110222-304.526222 312.775111L824.888889 881.777778h-28.444445v-28.444445h28.444445l7.964444-0.113777C986.254222 849.009778 1109.333333 723.342222 1109.333333 568.888889c0-157.098667-127.345778-284.444444-284.444444-284.444445l-2.247111 0.028445C761.031111 134.257778 613.290667 28.444444 440.888889 28.444444 213.105778 28.444444 28.444444 213.105778 28.444444 440.888889c0 203.548444 147.427556 372.622222 341.333334 406.328889V876.088889C160.085333 842.069333 0 660.195556 0 440.888889 0 197.404444 197.404444 0 440.888889 0z" fill="#0072FF" p-id="80366"></path><path d="M398.222222 753.777778h56.888889a14.222222 14.222222 0 1 0 0-28.444445h-56.888889a14.222222 14.222222 0 1 0 0 28.444445z m113.777778 0h56.888889a14.222222 14.222222 0 1 0 0-28.444445h-56.888889a14.222222 14.222222 0 1 0 0 28.444445z m113.777778 0h56.888889a14.222222 14.222222 0 1 0 0-28.444445h-56.888889a14.222222 14.222222 0 1 0 0 28.444445z m113.777778 0h28.444444a14.222222 14.222222 0 1 0 0-28.444445h-28.444444a14.222222 14.222222 0 1 0 0 28.444445zM398.222222 1009.777778h56.888889a14.222222 14.222222 0 1 0 0-28.444445h-56.888889a14.222222 14.222222 0 1 0 0 28.444445z m113.777778 0h56.888889a14.222222 14.222222 0 1 0 0-28.444445h-56.888889a14.222222 14.222222 0 1 0 0 28.444445z m113.777778 0h56.888889a14.222222 14.222222 0 1 0 0-28.444445h-56.888889a14.222222 14.222222 0 1 0 0 28.444445z m113.777778 0h28.444444a14.222222 14.222222 0 1 0 0-28.444445h-28.444444a14.222222 14.222222 0 1 0 0 28.444445zM398.222222 839.111111h56.888889a14.222222 14.222222 0 1 0 0-28.444444h-56.888889a14.222222 14.222222 0 1 0 0 28.444444z m113.777778 0h56.888889a14.222222 14.222222 0 1 0 0-28.444444h-56.888889a14.222222 14.222222 0 1 0 0 28.444444z m113.777778 0h56.888889a14.222222 14.222222 0 1 0 0-28.444444h-56.888889a14.222222 14.222222 0 1 0 0 28.444444z m113.777778 0h28.444444a14.222222 14.222222 0 1 0 0-28.444444h-28.444444a14.222222 14.222222 0 1 0 0 28.444444zM398.222222 924.444444h56.888889a14.222222 14.222222 0 1 0 0-28.444444h-56.888889a14.222222 14.222222 0 1 0 0 28.444444z m113.777778 0h56.888889a14.222222 14.222222 0 1 0 0-28.444444h-56.888889a14.222222 14.222222 0 1 0 0 28.444444z m113.777778 0h56.888889a14.222222 14.222222 0 1 0 0-28.444444h-56.888889a14.222222 14.222222 0 1 0 0 28.444444z m113.777778 0h28.444444a14.222222 14.222222 0 1 0 0-28.444444h-28.444444a14.222222 14.222222 0 1 0 0 28.444444z" fill="#0072FF" p-id="80367"></path></svg>