<svg t="1763284640205" class="icon" viewBox="0 0 1024 1024" version="1.1" xmlns="http://www.w3.org/2000/svg" p-id="75794" width="200" height="200"><path d="M503.5 349.9m-229 0a229 229 0 1 0 458 0 229 229 0 1 0-458 0Z" fill="#FFFFFF" p-id="75795"></path><path d="M774.4 366.6m-130.8 0a130.8 130.8 0 1 0 261.6 0 130.8 130.8 0 1 0-261.6 0Z" fill="#FFFFFF" p-id="75796"></path><path d="M249.8 366.6m-138.6 0a138.6 138.6 0 1 0 277.2 0 138.6 138.6 0 1 0-277.2 0Z" fill="#FFFFFF" p-id="75797"></path><path d="M774.4 184.2c-18 0-35.4 2.7-51.9 7.6-49.1-67.9-128.8-112.3-219-112.3-88.6 0-166.9 42.8-216.3 108.6-12.1-2.5-24.6-3.9-37.4-3.9-100.7 0-182.4 81.6-182.4 182.4C67.4 467.3 149 549 249.8 549c21.1 0 41.3-3.8 60.2-10.4 49.1 50.4 117.6 81.7 193.5 81.7 78.3 0 148.6-33.5 197.9-86.6 22.4 9.8 47 15.3 73 15.3 100.7 0 182.4-81.6 182.4-182.4 0-100.7-81.7-182.4-182.4-182.4z m0 313.2c-29 0-55.7-9.6-77.4-25.5-40.6 64.2-112 107-193.5 107-75.3 0-142-36.6-183.7-92.7-20.6 12.1-44.4 19.1-70 19.1-76.6 0-138.6-62.1-138.6-138.6 0-76.6 62.1-138.6 138.6-138.6 19 0 37.1 3.8 53.6 10.8 39.1-70.2 114-117.8 200.1-117.8 91.6 0 170.4 53.9 207 131.6 18.9-10.6 40.7-16.8 64-16.8 72.2 0 130.8 58.6 130.8 130.8-0.1 72.1-58.6 130.7-130.9 130.7z" fill="#0745C0" p-id="75798"></path><path d="M503.4 623.8c-73.6 0-142.5-28.8-194.4-81.2-19.4 6.6-39.3 9.9-59.3 9.9-102.5 0-185.8-83.4-185.8-185.8s83.4-185.8 185.8-185.8c12 0 24.1 1.2 36 3.5 52.4-68.8 131.6-108.2 217.7-108.2 86.6 0 168.8 41.7 220.4 111.8 16.6-4.7 33.6-7.1 50.6-7.1 102.5 0 185.8 83.4 185.8 185.8s-83.4 185.8-185.8 185.8c-24.9 0-49.2-4.9-72.1-14.6-51.8 54.5-124.1 85.9-198.9 85.9z m-194.6-88.5l3.6 0.8c50.7 52 118.6 80.7 191 80.7 74.8 0 144.2-30.4 195.4-85.5l3.9-0.8c22.8 10 46.9 15 71.6 15 98.6 0 178.9-80.3 178.9-178.9 0-98.6-80.3-178.9-178.9-178.9-17.1 0-34.2 2.5-50.9 7.5l-3.8-1.3C669.4 124.4 588.6 83 503.4 83c-84.6 0-162.4 39.1-213.5 107.2l-3.5 1.3c-12.1-2.5-24.5-3.8-36.7-3.8-98.7 0-178.9 80.3-178.9 178.9 0 98.7 80.3 178.9 178.9 178.9 19.9 0 39.7-3.4 59.1-10.2z m194.6 47c-73.1 0-140.2-33.4-184.6-91.7-21.2 11.8-45 18-69 18-78.3 0-142.1-63.7-142.1-142.1s63.7-142.1 142.1-142.1c18 0 35.5 3.3 52.1 9.9 41.4-72.2 118.4-116.9 201.6-116.9 88.2 0 169.6 51 208.5 130.3 19.2-10.1 40.7-15.5 62.4-15.5 74 0 134.3 60.2 134.3 134.3s-60.2 134.3-134.3 134.3c-27.5 0-53.8-8.3-76.5-24.1-43.3 66.2-115.7 105.6-194.5 105.6z m-185.5-99.1l4.5 0.9c43.1 58 109.1 91.3 180.9 91.3 77.7 0 149-39.4 190.7-105.4l5-0.9c22.1 16.3 48.1 24.9 75.4 24.9 70.2 0 127.4-57.1 127.4-127.4s-57.1-127.4-127.4-127.4c-21.7 0-43.3 5.6-62.3 16.3l-4.8-1.5c-37.1-78.7-117.1-129.6-203.9-129.6-81.7 0-157.2 44.4-197.1 116l-4.3 1.5c-16.6-7-34.2-10.5-52.3-10.5-74.5 0-135.2 60.6-135.2 135.2 0 74.5 60.6 135.2 135.2 135.2 23.9 0 47.4-6.4 68.2-18.6z" fill="#00138A" p-id="75799"></path><path d="M710.5 252.6c-39.9 22.4-66.9 65-66.9 114 0 43.2 21.1 81.5 53.4 105.3 22.3-35.3 35.4-77.1 35.4-122 0-34.8-8-67.8-21.9-97.3z" fill="#FFFFFF" p-id="75800"></path><path d="M388.4 366.6c0-57.6-35.1-106.9-85-127.9-18.3 32.9-28.9 70.8-28.9 111.2 0 51.1 16.9 98.1 45.2 136.2 41.1-24 68.7-68.5 68.7-119.5z" fill="#FFFFFF" p-id="75801"></path><path d="M632 845l-46.8-27 0.2-41.4 47.5-27.4c9.7-5.6 13.1-18.2 7.5-27.9s-18.2-13.1-27.9-7.5L566.6 738 522 714.8v-49.6c0-11.2-9.3-20.4-20.5-20.4S481 654 481 665.2v51.9l-33.5 21.7-43.8-26.4c-9.7-5.6-21.3-2.3-26.9 7.5-5.6 9.7-1.7 22.3 8 27.9l50.6 29.1c0.4 0.2 0.9 0.3 1.3 0.5l-0.1 36.3c-0.6 0.3-1.2 0.5-1.8 0.8l-50.3 29.1c-9.7 5.6-13.1 18.2-7.5 27.9s18.2 13.1 27.9 7.5l50.3-29.1c1.8-1.1 3.3-2.4 4.7-3.9l25.6 16.5c-0.8 2.2-4.5 4.5-4.5 7v58.1c0 11.2 9.3 20.4 20.5 20.4s20.5-9.2 20.5-20.4v-58.1c0-1.5 2.9-2.9 2.6-4.3l31-17c1.2 1.2 3.3 2.3 4.9 3.2l50.7 29.1c9.7 5.6 22.5 2.3 28.1-7.5 5.6-9.9 2.4-22.4-7.3-28z" fill="#0745C0" p-id="75802"></path><path d="M504.8 789.6m-22.9 0a22.9 22.9 0 1 0 45.8 0 22.9 22.9 0 1 0-45.8 0Z" fill="#FFFFFF" p-id="75803"></path></svg>