<svg t="1763284668525" class="icon" viewBox="0 0 1024 1024" version="1.1" xmlns="http://www.w3.org/2000/svg" p-id="77164" width="200" height="200"><path d="M502.9 391.1m-228.8 0a228.8 228.8 0 1 0 457.6 0 228.8 228.8 0 1 0-457.6 0Z" fill="#FFFFFF" p-id="77165"></path><path d="M773.6 407.7m-130.7 0a130.7 130.7 0 1 0 261.4 0 130.7 130.7 0 1 0-261.4 0Z" fill="#FFFFFF" p-id="77166"></path><path d="M249.4 407.7m-138.5 0a138.5 138.5 0 1 0 277 0 138.5 138.5 0 1 0-277 0Z" fill="#FFFFFF" p-id="77167"></path><path d="M773.6 225.5c-18 0-35.4 2.7-51.9 7.6-49.1-67.9-128.7-112.2-218.9-112.2-88.5 0-166.8 42.7-216.1 108.5-12.1-2.5-24.6-3.9-37.4-3.9-100.6 0-182.2 81.6-182.2 182.2s81.6 182.2 182.2 182.2c21.1 0 41.3-3.8 60.2-10.4 49.1 50.3 117.5 81.7 193.3 81.7 78.2 0 148.5-33.4 197.8-86.6 22.3 9.8 47 15.3 72.9 15.3 100.6 0 182.2-81.6 182.2-182.2 0.1-100.6-81.4-182.2-182.1-182.2z m0 312.9c-29 0-55.7-9.6-77.4-25.5-40.5 64.2-111.9 106.9-193.4 106.9-75.3 0-141.9-36.5-183.6-92.7-20.5 12.1-44.4 19.1-69.9 19.1-76.5 0-138.5-62-138.5-138.5s62-138.5 138.5-138.5c19 0 37.1 3.8 53.6 10.8 39.1-70.2 113.9-117.7 199.9-117.7 91.5 0 170.2 53.9 206.8 131.5 18.9-10.6 40.7-16.8 63.9-16.8 72.2 0 130.7 58.5 130.7 130.7 0.1 72.2-58.4 130.7-130.6 130.7z" fill="#0745C0" p-id="77168"></path><path d="M503.4 664.7c-73.5 0-142.4-28.8-194.3-81.1-19.4 6.5-39.3 9.9-59.2 9.9-102.4 0-185.7-83.3-185.7-185.7s83.3-185.7 185.7-185.7c12 0 24.1 1.2 36 3.5 52.3-68.7 131.5-108.1 217.5-108.1 86.5 0 168.7 41.7 220.2 111.7 16.6-4.7 33.6-7.1 50.5-7.1 102.4 0 185.7 83.3 185.7 185.7s-83.3 185.7-185.7 185.7c-24.9 0-49.1-4.9-72.1-14.6-52.3 55.3-122.8 85.8-198.6 85.8zM311 575.6l1.5 1.6c50.7 52 118.5 80.6 190.9 80.6 74.7 0 144.1-30.4 195.3-85.5l1.7-1.8 2.2 1c22.7 10 46.8 15 71.6 15 98.6 0 178.8-80.2 178.8-178.8 0-98.6-80.2-178.8-178.8-178.8-17.1 0-34.2 2.5-50.9 7.4l-2.3 0.7-1.4-2c-50.2-69.4-130.9-110.8-216.1-110.8-84.5 0-162.3 39-213.3 107.1l-1.3 1.8-2.1-0.5c-12.1-2.5-24.4-3.8-36.7-3.8-98.6 0-178.8 80.2-178.8 178.8 0 98.6 80.2 178.8 178.8 178.8 19.9 0 39.7-3.4 59-10.2l1.9-0.6z m192.4 47.7c-73 0-140.1-33.3-184.5-91.6a141.5 141.5 0 0 1-69 18c-78.3 0-142-63.7-142-142s63.7-142 142-142c18 0 35.5 3.3 52.1 9.9 41.4-72.1 118.3-116.8 201.4-116.8 88.1 0 169.5 51 208.4 130.2 19.2-10.1 40.7-15.4 62.4-15.4 74 0 134.2 60.2 134.2 134.2S848.2 542 774.2 542c-27.5 0-53.8-8.3-76.4-24-43.3 65.9-115.6 105.3-194.4 105.3zM320.7 522.6l1.8 2.5c43.1 58 109 91.3 180.8 91.3 77.6 0 148.8-39.4 190.5-105.3l2-3.1 3 2.2c22.1 16.3 48.1 24.8 75.3 24.8 70.2 0 127.3-57.1 127.3-127.3s-57.1-127.3-127.3-127.3c-21.7 0-43.2 5.6-62.2 16.3l-3.2 1.8-1.6-3.4c-37.1-78.7-117-129.5-203.7-129.5-81.6 0-157.1 44.4-196.9 115.9l-1.5 2.7-2.8-1.2c-16.6-7-34.2-10.5-52.2-10.5-74.5 0-135.1 60.6-135.1 135.1S175.5 542.7 250 542.7c23.9 0 47.4-6.4 68.2-18.6l2.5-1.5z" fill="#00138A" p-id="77169"></path><path d="M709.7 293.8c-39.8 22.4-66.8 65-66.8 114 0 43.2 21 81.4 53.4 105.2 22.3-35.3 35.4-77 35.4-121.9 0-34.9-8-67.8-22-97.3zM387.9 407.7c0-57.5-35.1-106.8-85-127.8C284.6 312.8 274 350.7 274 391c0 51.1 16.9 98 45.2 136.1 41.1-24 68.7-68.4 68.7-119.4z" fill="#FFFFFF" p-id="77170"></path><path d="M712.6 835.8l-30.3-13.7-2.4-25.4 27.4-19.7c5.6-4 6.9-11.9 2.9-17.6-4-5.6-11.9-6.9-17.6-2.9l-24.3 17.4-26.5-11.7-3.1-30.4c-0.7-6.9-6.6-12-13.5-11.3-6.9 0.7-11.7 6.9-11 13.7l3.2 31.8-21.8 15.6-29.8-13.4c-6.3-2.8-13.8 0-16.7 6.3-2.8 6.3 0 13.8 6.3 16.6l32.6 14.7c0.2 0.1 0.5 0.2 0.7 0.3l2.1 22.3c-0.4 0.2-0.7 0.4-1.1 0.6l-29 20.9c-5.6 4-6.9 11.9-2.9 17.6 4 5.6 11.9 6.9 17.6 2.9l29-20.9c1.1-0.8 1.9-1.7 2.6-2.7l19.3 8.3c-0.4 1.4 0.1 2.8 0.3 4.3l3.6 35.6c0.7 6.9 6.6 12 13.5 11.3 6.9-0.7 11.7-6.9 11-13.7l-3.6-35.6c-0.1-0.9-0.7-1.7-0.9-2.6l16.8-12.2c0.8 0.7 1.6 1.3 2.6 1.7l32.6 14.7c6.3 2.8 13.8 0 16.6-6.3 3-6.1 0.1-13.6-6.2-16.5z" fill="#0745C0" p-id="77171"></path><path d="M631.2 809.8m-14.1 0a14.1 14.1 0 1 0 28.2 0 14.1 14.1 0 1 0-28.2 0Z" fill="#FFFFFF" p-id="77172"></path><path d="M406.5 760.7l-28.8-16.6 0.1-25.5 29.2-16.9c6-3.5 8-11.2 4.6-17.2-3.5-6-11.2-8-17.2-4.6l-25.9 14.9-25.2-14.3-0.1-30.5c0-6.9-5.4-12.6-12.3-12.6s-12.3 5.7-12.3 12.6l0.1 32-23.3 13.4-28.3-16.2c-6-3.4-13.8-1.4-17.2 4.6-3.4 6-1.4 13.7 4.6 17.2l31 17.8c0.2 0.1 0.5 0.2 0.7 0.3l-0.1 22.4c-0.4 0.2-0.8 0.3-1.2 0.5L254 760c-6 3.5-8 11.2-4.6 17.2 3.5 6 11.2 8 17.2 4.6l31-17.9c1.1-0.7 2.1-1.5 2.9-2.4l18.4 10.1c-0.5 1.4-0.1 2.8-0.1 4.3l0.1 35.8c0 6.9 5.4 12.6 12.3 12.6s12.3-5.7 12.3-12.6l-0.1-35.8c0-0.9-0.5-1.8-0.7-2.6l17.9-10.5c0.7 0.7 1.5 1.4 2.4 2l31 17.8c6 3.4 13.7 1.4 17.2-4.6 3.4-6.1 1.3-13.9-4.7-17.3z" fill="#0745C0" p-id="77173"></path><path d="M328.1 726.7m-14.1 0a14.1 14.1 0 1 0 28.2 0 14.1 14.1 0 1 0-28.2 0Z" fill="#FFFFFF" p-id="77174"></path></svg>