<svg t="1763284015630" class="icon" viewBox="0 0 1024 1024" version="1.1" xmlns="http://www.w3.org/2000/svg" p-id="58517" width="200" height="200"><path d="M421.399177 586.045855h-77.05585c-12.641975 0-18.962963-3.009994-9.93298-16.855967 25.885949-39.129924 50.567901-78.560847 75.851852-117.991769 6.922986-10.835979 13.243974-12.641975 21.069959 0 24.681952 38.828924 49.965902 77.356849 75.249853 115.884773 8.728983 13.243974 6.019988 18.962963-9.631982 18.962963zM170.064668 851.527337H93.911817c-12.942975 0-16.554968-4.815991-9.330982-16.554968q37.022928-60.199882 73.744856-120.399765c5.718989-9.631981 11.437978-9.029982 17.156966 0l82.17284 120.399765c6.922986 10.23398 2.407995 15.049971-9.029983 15.049971zM787.715461 363.30629h-76.152851c-13.243974 0-16.253968-5.11699-9.029982-16.253968l75.249853-120.399765c5.718989-9.330982 10.534979-9.330982 16.253968 0 27.992945 41.537919 56.28689 83.075838 83.978836 124.914756 7.825985 12.039976-2.106996 12.641975-9.93298 12.641976zM335.915344 259.461493h-72.239859c-14.748971 0-21.671958-3.310994-11.437978-18.962963l72.239859-112.874779c6.922986-10.835979 13.243974-13.544974 21.370959 0C371.132275 164.947678 396.416226 203.475603 421.399177 240.79953c8.728983 13.243974 3.009994 17.457966-9.932981 17.457966h-75.550852zM820.524397 748.585538H746.478542c-12.942975 0-18.962963-2.708995-10.534979-16.253968 24.681952-39.129924 48.761905-78.259847 73.142857-117.389771 6.922986-11.136978 13.243974-9.932981 19.865961 0q39.129924 58.092887 78.861846 116.185773c9.330982 14.146972 3.310994 17.758965-10.835979 17.457966-24.079953-0.300999-50.868901 0-76.453851 0zM543.303939 971.626102h-76.152851c-12.942975 0-18.360964-3.009994-9.330982-16.554967 25.885949-38.226925 50.868901-76.75485 76.152851-114.981776 6.621987-9.932981 12.942975-10.534979 20.166961 0q37.925926 57.791887 76.45385 114.981776c7.524985 11.437978 3.912992 16.253968-9.029982 16.253968z" fill="#AF621A" p-id="58518"></path></svg>