<svg t="1763284075576" class="icon" viewBox="0 0 1024 1024" version="1.1" xmlns="http://www.w3.org/2000/svg" p-id="60345" width="200" height="200"><path d="M240.01 797.93c33.15 40.23 57.59 83.09 62.14 137.54 2.96-33.2 16.48-60.87 36.74-86.41-7.33 31.31-13.57 63.56-14.81 95.76 6.4-30.26 16.14-62.92 38.93-87.9-6.66 28.67-12.68 58.38-14.34 87.8 10.97-3.98 15.68 12.23 5.61 13.69-4.76-3.69-131.18 8.71-123.81-6.34-0.09-5.84 2.86-7.28 7.81-6.88a259.56 259.56 0 0 0-5.23-35.28l-2.8-12.68 6.43 9.1c8.14 4.52 11.55 45.21 17.96 37.79-1.76-31.72-7.96-63.72-15.11-94.64 17.21 22.61 30.06 46.4 34.42 74.87-4.3-44.01-19.3-85.35-33.94-126.42z m99.42-1.79c-19.04 28.25-31.29 66.3-36.74 114.13-16.61-44.13-8.84-81.34 36.74-114.13z m0 0M384.2 736.43c34.38 41.72 59.72 86.18 64.45 142.64 3.07-34.43 17.1-63.12 38.11-89.62-7.6 32.48-14.07 65.92-15.35 99.31 6.64-31.39 16.74-65.26 40.38-91.16-6.91 29.74-13.16 60.55-14.88 91.06 11.38-4.13 16.26 12.69 5.82 14.19-4.94-3.83-136.04 9.03-128.41-6.58-0.1-6.06 2.97-7.55 8.1-7.14-0.97-12.36-2.79-24.6-5.42-36.59l-2.91-13.15 6.66 9.44c8.45 4.69 11.97 46.89 18.63 39.19-1.83-32.9-8.25-66.09-15.67-98.16 17.85 23.45 31.18 48.12 35.69 77.65-4.47-45.61-20.02-88.48-35.2-131.08z m103.11-1.86c-19.74 29.3-32.45 68.76-38.11 118.36-17.22-45.76-9.16-84.34 38.11-118.36z m0 0M652.66 510.94c42.46 109.61 76.85 227.18 94.11 378.46-4.81-92.67 2.22-170.7 16.46-243.32 0.01 87.74 1.31 177.98 7.61 267.74-0.68-84.74 1.4-176.4 18.3-247.62 0.06 80.33 0.99 163.51 6.21 245.55 10.01-11.89 18.5 32.92 8.79 37.7-5.61-9.94-128.79 33.85-124.97-8.61-1.46-16.27 1.15-20.49 6.18-19.74-3.72-33.11-8.22-65.85-13.46-97.87l-5.76-35.1 8.54 24.88c9.18 12 22.08 125.06 26.74 103.92-9.17-88.21-22.82-176.87-37.18-262.45 22.45 61.71 40.83 127.02 51.82 205.98-14.58-122.2-39.2-236.23-63.39-349.52z m98.74-12.27c-12.39 80.07-15.71 186.9-9.98 320.5-26.88-121.66-27.82-225.83 9.98-320.5z m0 0" p-id="60346" fill="#1afa29"></path><path d="M758.07 527.85c41.37 31.72 74.84 67.96 91.56 119.98-4.61-33.01 2.33-63.02 16.31-92.47-0.08 32.16 1.11 64.98 7.17 96.63-0.59-30.93 1.54-64.94 18.11-94.42-0.02 29.44 0.81 59.74 5.83 88.77 9.79-6.35 18.04 8.38 8.55 12.07-5.47-2.52-125.83 38.07-122.05 21.75-1.41-5.67 1.15-7.74 6.06-8.47-3.6-11.4-7.97-22.5-13.05-33.2l-5.59-11.72 8.31 7.42c8.95 2.57 21.45 41.44 26.02 32.77-8.87-30.51-22.12-60.29-36.07-88.8 21.87 18.15 39.75 38.42 50.42 65.18-14.13-41.89-38.06-78.78-61.58-115.49z m96.45-24.17c-12.17 31.82-15.53 71.64-10.06 119.47-26.13-39.24-26.95-77.24 10.06-119.47z m0 0M519.52 798.82c33.15 39.91 57.58 82.42 62.14 136.43 2.96-32.93 16.49-60.38 36.75-85.72-7.33 31.06-13.57 63.05-14.81 94.99 6.4-30.02 16.15-62.42 38.94-87.2-6.66 28.44-12.69 57.92-14.35 87.1 10.97-3.95 15.68 12.13 5.61 13.58-4.76-3.66-131.18 8.65-123.81-6.29-0.09-5.8 2.86-7.22 7.81-6.83-0.94-11.82-2.69-23.53-5.23-35l-2.8-12.58 6.42 9.03c8.14 4.49 11.54 44.85 17.96 37.49-1.76-31.47-7.95-63.21-15.11-93.89 17.21 22.43 30.06 46.03 34.41 74.27-4.3-43.63-19.29-84.64-33.93-125.38z m99.42-1.79c-19.04 28.03-31.29 65.77-36.75 113.21-16.6-43.76-8.83-80.67 36.75-113.21z m0 0M112.82 580.91c95.96 105.36 24.53 180.09 98.88 51.12-7.32 31.32-13.56 63.56-14.79 95.76 6.4-30.26 16.14-62.92 38.93-87.9-6.66 28.67-12.68 58.38-14.34 87.8 10.97-3.98 15.68 12.23 5.61 13.69-4.76-3.69-131.18 8.71-123.81-6.34 12.83-13.62 3.57-34.46-0.22-54.85 11.46 5.81 17.19 50.42 24.38 46.9-1.76-31.73-7.95-63.73-15.11-94.65 17.21 22.61 30.06 46.4 34.42 74.87-4.32-43.99-19.32-85.33-33.95-126.4z m99.42-1.79c-19.04 28.25-31.29 66.3-36.74 114.13-16.61-44.13-8.84-81.34 36.74-114.13z m0 0M252.13 387.56c100.17 268.31 26.55 457.78 102.86 130.51-7.4 79.54-13.68 161.43-14.76 243.25 6.46-76.86 16.36-159.8 39.84-223.13-6.73 72.82-12.8 148.28-14.34 223.02 11.36-10.05 16.34 31.18 5.9 34.81-4.96-9.41-135.99 21.33-128.45-16.87 13.22-34.53 3.49-87.54-0.57-139.38 11.92 14.83 18.13 128.24 25.58 119.33-2.02-80.63-8.64-161.99-16.25-240.6 17.99 57.56 31.46 118.09 36.15 190.47-4.72-111.81-20.53-216.96-35.96-321.41z m103.1-3.95c-19.57 71.68-32.04 168.27-37.41 289.79-17.5-112.24-9.66-206.73 37.41-289.79z m0 0M408.39 319.1c95.96 105.36 24.53 180.09 98.88 51.12-7.32 31.32-13.56 63.56-14.79 95.76 6.4-30.26 16.14-62.92 38.93-87.9-6.66 28.67-12.68 58.38-14.34 87.8 10.97-3.98 15.68 12.23 5.61 13.69-4.76-3.69-131.18 8.71-123.81-6.34 12.83-13.62 3.57-34.46-0.22-54.85 11.46 5.81 17.19 50.42 24.38 46.9-1.76-31.73-7.95-63.73-15.11-94.65 17.21 22.61 30.06 46.4 34.42 74.87-4.31-44-19.31-85.34-33.95-126.4z m99.42-1.8c-19.04 28.25-31.29 66.3-36.74 114.13-16.61-44.13-8.84-81.33 36.74-114.13z m0 0" p-id="60347" fill="#1afa29"></path><path d="M570.76 238.51c102.66 176.93-9.06 273.74 119.02 96.61-16.9 45.22-32.59 92.04-41.64 139.83 15.45-43.83 35.86-90.56 71.77-123.14-15.42 41.41-30.24 84.5-39.21 128.05 15.43-3.68 17.93 21.48 4.27 21.57-5.45-6.49-175.54-13.99-162.33-34.93 20.11-17.68 12.66-50.68 12.35-81.88 13.82 11.02 11.11 78.77 21.45 74.99 4.99-47.7 4.17-96.72 1.83-144.32 17.56 37.28 29.08 75.41 28.27 118.79 4.42-66.52-5.89-131.29-15.78-195.57z m131.93 17.77c-31.7 38.24-56.67 92.48-74.92 162.72-11.79-69.25 7.06-123.16 74.92-162.72z m0 0" p-id="60348" fill="#1afa29"></path><path d="M553.53 476.72c95.96 105.36 24.53 180.09 98.88 51.12-7.32 31.32-13.56 63.56-14.79 95.76 6.4-30.26 16.14-62.92 38.93-87.9-6.66 28.67-12.68 58.38-14.34 87.8 10.97-3.98 15.68 12.23 5.61 13.69-4.76-3.69-131.18 8.71-123.81-6.34 12.83-13.62 3.57-34.46-0.22-54.85 11.46 5.81 17.19 50.42 24.38 46.9-1.76-31.73-7.95-63.73-15.11-94.65 17.21 22.61 30.06 46.4 34.42 74.87-4.31-43.99-19.31-85.33-33.95-126.4z m99.42-1.79c-19.04 28.25-31.29 66.3-36.74 114.13-16.61-44.13-8.84-81.33 36.74-114.13z m0 0M110.6 285.64c60.95 199.28-21.36 319.1 76.65 104.77-14.14 53.7-27.53 109.19-36.41 165.38 13.06-52 29.7-107.68 56.24-147.89-12.91 49.17-25.5 100.27-34.08 151.51 10.84-5.28 11.16 23.84 1.75 24.83-3.4-7.2-120.15-5-109.89-30.22 14.83-21.87 11.52-59.78 13.03-96.07 8.91 11.94 3.31 90.94 10.63 85.88 6.07-55.82 8.21-112.81 9.23-168.05 10.04 42.25 15.86 85.88 12.91 136.4 6.73-77.68 3.2-152.38-0.06-226.54z m89.9 12.2c-23.95 46.53-44.14 111.25-60.59 194.15-4.31-79.82 11.66-143.76 60.59-194.15z m0 0M424.29 69.94c101.92 99.6 34.96 178.36 101.68 45.29-5.49 31.69-9.84 64.24-9.21 96.46 4.63-30.58 12.46-63.75 33.76-90.01-4.98 29.01-9.27 59.02-9.22 88.49 10.72-4.61 16.37 11.3 6.4 13.34-4.97-3.41-130.45 16.32-123.97 0.86 12.02-14.34 1.56-34.61-3.41-54.74 11.78 5.13 20.09 49.34 27.07 45.4-3.6-31.57-11.64-63.16-20.58-93.61 18.5 21.57 32.71 44.58 38.71 72.75-6.86-43.69-24.23-84.08-41.23-124.23z m99.14-7.57c-17.36 29.31-27.38 68-30.05 116.07-19.14-43.09-13.54-80.68 30.05-116.07z m0 0M396.77 588.39c95.96 105.36 24.53 180.09 98.88 51.12-7.32 31.32-13.56 63.56-14.79 95.76 6.4-30.26 16.14-62.92 38.93-87.9-6.66 28.67-12.68 58.38-14.34 87.8 10.97-3.98 15.68 12.23 5.61 13.69-4.76-3.69-131.18 8.71-123.81-6.34 12.83-13.62 3.57-34.46-0.22-54.85 11.46 5.81 17.19 50.42 24.38 46.9-1.76-31.73-7.95-63.73-15.11-94.65 17.21 22.61 30.06 46.4 34.42 74.87-4.31-43.99-19.31-85.33-33.95-126.4z m99.42-1.79c-19.04 28.25-31.29 66.3-36.74 114.13-16.61-44.13-8.84-81.34 36.74-114.13z m0 0M736.73 347.09c42.39 33.55 76.53 71.67 93.03 125.88-4.25-34.31 3.42-65.31 18.39-95.63-0.59 33.35 0.12 67.4 5.9 100.32-0.12-32.08 2.63-67.32 20.28-97.62-0.49 30.52-0.11 61.96 4.63 92.15 10.26-6.43 18.57 8.98 8.68 12.65-5.64-2.7-131.09 37.47-126.91 20.6-1.37-5.9 1.31-8.01 6.41-8.69-3.55-11.88-7.9-23.46-13-34.63l-5.61-12.24 8.5 7.83c9.24 2.81 21.58 43.32 26.46 34.39-8.71-31.78-21.98-62.87-35.98-92.66 22.39 19.17 40.61 40.48 51.24 68.4-13.99-43.67-38.22-82.31-62.02-120.75z m100.4-23.53c-13.13 32.8-17.25 74.05-12.34 123.73-26.46-41.11-26.71-80.52 12.34-123.73z m0 0M630.49 66.21c99.52 109.27 25.44 186.77 102.55 53.02-7.59 32.48-14.06 65.92-15.34 99.31 6.64-31.39 16.74-65.26 40.38-91.16-6.91 29.74-13.16 60.55-14.88 91.06 11.38-4.13 16.27 12.69 5.82 14.19-4.94-3.83-136.04 9.03-128.41-6.58 13.31-14.13 3.7-35.74-0.23-56.89 11.88 6.02 17.82 52.3 25.29 48.64-1.82-32.9-8.25-66.09-15.67-98.16 17.85 23.45 31.18 48.12 35.69 77.65-4.47-45.61-20.02-88.49-35.2-131.08z m103.1-1.86c-19.74 29.3-32.45 68.76-38.11 118.36-17.22-45.76-9.16-84.34 38.11-118.36z m0 0" p-id="60349" fill="#1afa29"></path><path d="M859.58 163.11c61.56 128.41-27.9 179.58 79.8 77.27-15.91 27.91-31.06 57.02-41.41 87.53 14.73-27.17 33.34-55.67 62.21-73.09-14.53 25.57-28.74 52.32-38.71 80.03 11.61-0.68 11.48 16.21 1.46 14.72-3.49-4.9-127.68-29.18-116.36-41.5 16.13-9.38 13.22-32 15.42-52.62 9.28 8.84 2.03 53.23 9.91 51.92 7.36-30.9 10.57-63.34 12.55-95.01 9.98 26.59 15.47 53.06 11.51 81.59 8.42-43.4 5.89-87.31 3.62-130.84z m95.4 26.72c-26.22 21.63-48.75 54.57-67.59 98.85-3.27-47.04 14.75-80.46 67.59-98.85z m0 0M129.4 67.11c99.52 109.27 25.44 186.77 102.55 53.02-7.59 32.48-14.06 65.92-15.34 99.31 6.64-31.39 16.74-65.26 40.38-91.16-6.91 29.74-13.16 60.55-14.88 91.06 11.38-4.13 16.27 12.69 5.82 14.19-4.94-3.83-136.04 9.03-128.41-6.58 13.31-14.13 3.7-35.74-0.23-56.89 11.88 6.02 17.82 52.3 25.29 48.64-1.82-32.9-8.25-66.09-15.67-98.16 17.85 23.45 31.18 48.12 35.69 77.65-4.47-45.61-20.02-88.49-35.2-131.08z m103.11-1.86c-19.74 29.3-32.45 68.76-38.11 118.36-17.22-45.76-9.16-84.35 38.11-118.36z m0 0M302.57 95.99c65.91 177.72-24.59 278.91 83.46 95.57-15.68 46.43-30.54 94.47-40.47 143.34 14.49-44.99 32.91-93.04 62.1-127.05-14.31 42.52-28.28 86.74-37.87 131.28 11.88-4.11 12.12 21.45 1.82 21.86-3.69-6.48-131.43-10.12-120.11-31.75 16.31-18.47 12.83-51.89 14.62-83.65 9.7 10.9 3.27 79.93 11.3 75.85 6.85-48.68 9.42-98.57 10.75-146.98 10.82 37.54 17.03 76.1 13.6 120.27 7.66-67.83 4.09-133.52 0.8-198.74z m98.31 15c-26.38 39.67-48.72 95.48-67.04 167.42-4.4-70.23 13.32-125.55 67.04-167.42z m0 0" p-id="60350" fill="#1afa29"></path></svg>