<svg t="1763284171681" class="icon" viewBox="0 0 1024 1024" version="1.1" xmlns="http://www.w3.org/2000/svg" p-id="63736" width="200" height="200"><path d="M177.28 772.864h65.834667v158.293333H177.28v-158.293333z" fill="#FF7920" p-id="63737"></path><path d="M304.085333 634.666667H116.842667l-10.666667 2.005333-80.149333 138.197333h368.32l-80.128-138.197333-10.133334-2.005333z" fill="#00AE0C" p-id="63738"></path><path d="M259.733333 499.648H160.853333l-5.610666 2.005333-78.293334 135.04h266.432l-78.293333-135.04-5.376-2.005333z" fill="#00CA0F" p-id="63739"></path><path d="M210.197333 359.786667l-82.261333 141.866666h164.522667l-82.261334-141.866666z" fill="#ABE700" p-id="63740"></path><path d="M780.885333 772.864h65.834667v158.293333h-65.834667v-158.293333z" fill="#FF7920" p-id="63741"></path><path d="M917.845333 636.672l-10.24-2.005333h-187.264l-10.56 2.005333-80.128 138.197333H997.973333l-80.128-138.197333z" fill="#00AE0C" p-id="63742"></path><path d="M868.736 501.653333l-5.653333-2.005333h-98.858667l-5.333333 2.005333-78.293334 135.04h266.410667l-78.293333-135.04z" fill="#00CA0F" p-id="63743"></path><path d="M813.802667 359.786667l-82.24 141.866666h164.48l-82.24-141.866666z" fill="#ABE700" p-id="63744"></path><path d="M423.232 848.32h65.834667v82.816h-65.834667v-82.816z" fill="#FF7920" p-id="63745"></path><path d="M505.728 713.301333h-98.858667l-5.653333 2.005334-78.293333 135.04h266.432l-78.293334-135.04-5.333333-2.005334z" fill="#00CA0F" p-id="63746"></path><path d="M456.149333 573.44l-82.261333 141.866667h164.522667l-82.261334-141.866667z" fill="#ABE700" p-id="63747"></path><path d="M0 929.152h1024v29.994667H0v-29.994667z" fill="#00AE0C" p-id="63748"></path><path d="M448.512 156.117333a91.562667 91.264 0 1 0 183.125333 0 91.562667 91.264 0 1 0-183.125333 0Z" fill="#FF7920" p-id="63749"></path><path d="M425.6 183.296a81.856 81.856 0 0 0-48.810667 16.085333 124.330667 124.330667 0 0 0-105.386666-58.304 124.522667 124.522667 0 0 0-124.458667 124.586667h360.96a82.346667 82.346667 0 0 0-82.282667-82.346667z m389.226667-94.165333a82.325333 82.325333 0 0 1 82.282666 82.368h-164.565333a82.325333 82.325333 0 0 1 82.282667-82.346667z" fill="#FFCEB7" p-id="63750"></path><path d="M671.082667 248h59.712v30.016h-59.733334v-30.016zM71.573333 131.882667h59.733334v29.994666h-59.733334V131.882667z m273.066667-56.512h59.733333V105.386667h-59.733333V75.370667z m549.290667 144.384h59.712v30.016h-59.733334V219.733333z" fill="#FFB380" p-id="63751"></path><path d="M531.434667 332.181333a94.72 94.72 0 0 1 94.677333 94.784h-189.354667a94.72 94.72 0 0 1 94.677334-94.784z" fill="#FFCEB7" p-id="63752"></path></svg>