<svg t="1763284246893" class="icon" viewBox="0 0 1024 1024" version="1.1" xmlns="http://www.w3.org/2000/svg" p-id="65100" width="200" height="200"><path d="M767.488 235.52a12.8512 12.8512 0 0 0-17.92-1.024c-43.008 38.912-101.888 92.16-237.568 92.16-137.728 0-199.168-55.296-239.616-92.16a12.8512 12.8512 0 0 0-17.92 1.024c-5.12 5.12-4.608 13.312 0.512 17.92 22.528 20.48 47.104 39.936 76.8 56.832v193.024c0 7.168 5.632 12.8 12.8 12.8s12.8-5.632 12.8-12.8V323.072c17.408 7.68 37.376 14.336 59.392 18.944v161.28c0 7.168 5.632 12.8 12.8 12.8s12.8-5.632 12.8-12.8V346.624c18.432 2.56 37.888 4.608 59.392 5.12v151.552c0 7.168 5.632 12.8 12.8 12.8s12.8-5.632 12.8-12.8V351.232c21.504-0.512 41.472-2.56 59.392-5.632v157.696c0 7.168 5.632 12.8 12.8 12.8s12.8-5.632 12.8-12.8V340.992c22.528-5.632 41.984-12.288 59.392-20.48v182.784c0 7.168 5.632 12.8 12.8 12.8s12.8-5.632 12.8-12.8V306.688c28.672-16.896 50.688-36.352 69.632-53.248 5.12-4.608 5.12-12.8 0.512-17.92z" fill="#10A957" p-id="65101"></path><path d="M972.8 490.496h-21.504l-110.592-190.976V153.088c0-7.168-5.632-12.8-12.8-12.8h-69.632c-7.168 0-12.8 5.632-12.8 12.8v337.408H276.48V153.088c0-7.168-5.632-12.8-12.8-12.8H194.56c-7.168 0-12.8 5.632-12.8 12.8v146.432l-112.64 190.976H51.2c-7.168 0-12.8 5.632-12.8 12.8v97.792c0 7.168 5.632 12.8 12.8 12.8h130.56v58.88c0 7.168 5.632 12.8 12.8 12.8h69.632c7.168 0 12.8-5.632 12.8-12.8v-58.88h468.48v58.88c0 7.168 5.632 12.8 12.8 12.8h69.632c7.168 0 12.8-5.632 12.8-12.8v-58.88H972.8c7.168 0 12.8-5.632 12.8-12.8V503.296c0-7.168-5.632-12.8-12.8-12.8z m-51.2 0h-30.208V438.272L921.6 490.496zM865.792 394.24v96.256h-25.6V350.72l25.6 43.52zM181.76 490.496h-27.648V395.776l27.136-46.08v140.8z m-53.248-51.2v51.2h-30.208l30.208-51.2z m-64.512 148.992v-72.192h117.76v72.192h-117.76z m186.88 71.68h-43.52V165.888h43.52v494.08z m25.6-71.68v-72.192h468.48v72.192H276.48z m538.112 71.68h-44.032V165.888h44.032v494.08z m145.408-71.68h-119.808v-72.192h119.808v72.192zM291.84 858.112H93.184c-7.168 0-12.8 5.632-12.8 12.8s5.632 12.8 12.8 12.8H291.84c7.168 0 12.8-5.632 12.8-12.8s-5.632-12.8-12.8-12.8zM481.28 731.136H316.416c-7.168 0-12.8 5.632-12.8 12.8s5.632 12.8 12.8 12.8H481.28c7.168 0 12.8-5.632 12.8-12.8s-5.632-12.8-12.8-12.8zM805.376 796.672c0-7.168-5.632-12.8-12.8-12.8h-227.328c-7.168 0-12.8 5.632-12.8 12.8s5.632 12.8 12.8 12.8h227.328c7.168 0 12.8-5.632 12.8-12.8zM959.488 858.112h-185.856c-7.168 0-12.8 5.632-12.8 12.8s5.632 12.8 12.8 12.8h185.856c7.168 0 12.8-5.632 12.8-12.8s-5.632-12.8-12.8-12.8z" fill="#02160A" p-id="65102"></path></svg>