<svg t="1763283854651" class="icon" viewBox="0 0 1024 1024" version="1.1" xmlns="http://www.w3.org/2000/svg" p-id="54657" width="200" height="200"><path d="M373.105137 1000.027024a27.554973 27.554973 0 0 1-19.425981-7.990992l-9.78199-9.643991a27.569973 27.569973 0 0 1 38.852961-39.128961l9.781991 9.64399a27.554973 27.554973 0 0 1-19.426981 47.119954z m-78.256923-77.567924a27.554973 27.554973 0 0 1-19.425981-7.990992L255.720253 895.040127a27.569973 27.569973 0 0 1 38.989961-38.989961l19.426981 19.287981a27.554973 27.554973 0 0 1-19.288981 47.119953zM225.960282 778.345242h-0.826999a27.554973 27.554973 0 0 1-26.589974-28.381972q0-7.990992 1.101999-15.981984a27.733973 27.733973 0 0 1 55.109946 6.199994c0 3.856996-0.688999 7.714992-0.825999 11.572989a27.554973 27.554973 0 0 1-27.692973 26.589973z m37.749963-101.5409a27.554973 27.554973 0 0 1-21.354979-44.915955A201.566801 201.566801 0 0 1 264.400244 608.880409a27.623973 27.623973 0 0 1 36.647964 41.33296 144.113858 144.113858 0 0 0-15.981984 16.669983 27.554973 27.554973 0 0 1-21.079979 9.91999z m79.772921-139.291862h-1.789998a27.554973 27.554973 0 0 1-25.764975-29.208971V496.73052a27.554973 27.554973 0 0 1 55.109946-0.826999v15.981984a27.554973 27.554973 0 0 1-27.279973 25.626975z m-27.554973-104.709897a27.554973 27.554973 0 0 1-23.008977-12.262988 143.699858 143.699858 0 0 0-13.776986-18.185982 27.554973 27.554973 0 1 1 40.36796-37.474963 199.224803 199.224803 0 0 1 19.83998 25.074975 27.554973 27.554973 0 0 1-23.421977 42.848958zM228.44028 296.127718a27.554973 27.554973 0 0 1-27.554973-23.007977q-1.239999-7.853992-1.929998-15.844985a27.651973 27.651973 0 1 1 55.110945-4.545995c0 3.857996 0.826999 7.714992 1.377999 11.434988a27.554973 27.554973 0 0 1-22.732978 31.688969z m17.221983-106.913895a27.554973 27.554973 0 0 1-24.385976-40.36896 195.090808 195.090808 0 0 1 17.221983-27.554973 27.582973 27.582973 0 1 1 43.949956 33.341967 140.118862 140.118862 0 0 0-12.399987 19.425981 27.554973 27.554973 0 0 1-24.385976 15.293985zM361.808148 72.930938a27.554973 27.554973 0 0 1-18.049982-48.359952l10.33399-9.092991a27.554973 27.554973 0 0 1 36.234964 41.332959l-10.33299 9.092991a27.554973 27.554973 0 0 1-18.185982 7.301993z m386.875619 946.385067a27.554973 27.554973 0 0 1-27.555973-27.555973 27.554973 27.554973 0 0 1 46.981953-19.701981 27.554973 27.554973 0 0 1-19.42598 47.257954z m-68.888933-67.923933a27.554973 27.554973 0 0 1-19.42598-7.990993l-47.669953-47.256953c-4.133996-4.133996-8.266992-8.679991-12.124988-13.777986a27.554973 27.554973 0 0 1 3.306996-38.852962 28.519972 28.519972 0 0 1 38.852962 3.306997 146.287856 146.287856 0 0 0 8.816991 9.64399l47.669953 47.256954a27.554973 27.554973 0 0 1-19.425981 47.669953z m-97.682903-159.544843a27.554973 27.554973 0 0 1-1.239999-55.109946 27.582973 27.582973 0 0 1 2.617997 55.109946h-1.377998z m22.181978-92.447909a26.452974 26.452974 0 0 1-13.777986-3.719996 27.554973 27.554973 0 0 1-10.19499-37.474963 192.88681 192.88681 0 0 1 42.434958-51.528949 149.762852 149.762852 0 0 0 14.879985-14.741986 28.243972 28.243972 0 0 1 38.852962-2.754997 27.554973 27.554973 0 0 1 2.754997 38.852962 203.495799 203.495799 0 0 1-20.52798 20.389979 143.149859 143.149859 0 0 0-30.58697 37.061964 27.554973 27.554973 0 0 1-23.834976 13.915986z m95.202906-162.16284h-1.652998a27.554973 27.554973 0 0 1-19.012982-9.230991 27.554973 27.554973 0 0 1-6.750993-19.97798 27.554973 27.554973 0 1 1 27.416973 29.208971z m-20.66598-92.860908a27.554973 27.554973 0 0 1-24.248976-13.777987 137.775864 137.775864 0 0 0-24.799975-32.514968l-16.394984-16.119984-8.541992-8.954991a27.554973 27.554973 0 0 1 2.066998-38.852962 28.381972 28.381972 0 0 1 38.989962 2.065998l6.062994 6.337994 16.394984 16.119984a192.88681 192.88681 0 0 1 34.443966 45.327956 27.554973 27.554973 0 0 1-10.74599 37.474963 27.554973 27.554973 0 0 1-13.226987 2.893997zM582.387931 282.350732a27.554973 27.554973 0 0 1-27.555973-24.661976 27.554973 27.554973 0 0 1 6.475993-19.97798 27.554973 27.554973 0 0 1 18.736982-9.643991 27.651973 27.651973 0 1 1 4.546995 55.109946h-2.203997z m19.012981-93.274908a27.554973 27.554973 0 0 1-12.950987-3.168997 27.554973 27.554973 0 0 1-11.435989-37.199964 196.055807 196.055807 0 0 1 44.914956-56.624944l15.155985-13.777986a28.243972 28.243972 0 0 1 38.852961 2.754997 27.554973 27.554973 0 0 1-2.617997 38.852962l-15.154985 13.777986a140.118862 140.118862 0 0 0-32.377968 41.332959 27.554973 27.554973 0 0 1-24.248976 14.052987zM738.349777 54.881956a27.554973 27.554973 0 0 1-20.80498-9.506991 27.554973 27.554973 0 0 1-6.749993-19.97698 27.554973 27.554973 0 0 1 9.505991-18.875981 28.243972 28.243972 0 0 1 38.852961 2.617997 27.554973 27.554973 0 0 1-20.666979 45.741955z" fill="#1296DB" p-id="54658"></path><path d="M808.478708 847.233174a128.407873 128.407873 0 0 1 6.612993-188.339814 210.935792 210.935792 0 0 0 10.19499-310.409694l-16.394984-16.119984a128.407873 128.407873 0 0 1 5.648995-188.339814L978.76954 1.148009H852.841664l-92.585909 80.59992a211.072792 211.072792 0 0 0-9.230991 309.719695l16.394984 16.119984a128.269873 128.269873 0 0 1-6.199994 188.753814 210.935792 210.935792 0 0 0-10.883989 309.720694L869.237648 1024H986.209532z m-688.055322-95.616905a127.029875 127.029875 0 0 1 44.501956-92.722909 210.935792 210.935792 0 0 0 10.19599-310.134694l-16.395984-16.119984a128.407873 128.407873 0 0 1 5.648995-188.339814L328.604181 1.425009H202.675305L110.090396 82.023929a211.072792 211.072792 0 0 0-8.954991 309.307695l16.394984 16.119984a128.269873 128.269873 0 0 1-6.199994 188.752814 210.935792 210.935792 0 0 0-10.883989 309.721694l118.624883 117.935884h116.282885L157.48535 847.508174a127.029875 127.029875 0 0 1-37.061964-95.891905z" fill="#1296DB" p-id="54659"></path></svg>