<svg t="1763261779449" class="icon" viewBox="0 0 1412 1024" version="1.1" xmlns="http://www.w3.org/2000/svg" p-id="15828" width="200" height="200"><path d="M393.309259 40.72225c12.268235-23.577812 26.725839-35.625815 43.398721-36.144009 49.098851-1.684129 177.222237-25.132393 174.242623 53.114852a6.866066 6.866066 0 0 1-6.866066 6.606969l-196.395403 0.647742c-5.72604 0.02591-11.011616-2.979614-13.96532-7.941318a16.763565 16.763565 0 0 1-0.414555-16.284236z" fill="#4F687D" p-id="15829"></path><path d="M392.714184 97.084693m4.145524 0.014471l209.34897 0.730769q4.145524 0.014471 4.131054 4.159995l-0.075067 21.504906q-0.014471 4.145524-4.159995 4.131054l-209.34897-0.730769q-4.145524-0.014471-4.131053-4.159995l0.075067-21.504907q0.014471-4.145524 4.159994-4.131053Z" fill="#4F687D" p-id="15830"></path><path d="M611.986991 188.277899c-38.994074 2.720517-213.625343 13.08439-219.195925-9.716131-2.163459-6.218324-1.813678-11.270712 1.036387-15.157165 1.917317-2.655743 6.166505-4.275098 11.270712-4.275098l194.581726-0.129548c4.49533 0 8.420647 2.046865 10.234325 5.311485 3.71804 6.917886 4.404646 14.898068 2.072775 23.966457z" fill="#4F687D" p-id="15831"></path><path d="M392.791066 178.561768c5.570582 22.800522 180.201851 12.436648 219.195925 9.716131 24.96398 1.127071 43.657817 11.918455 56.094465 32.387105l5.829679 210.64573a7.38426 7.38426 0 0 0 6.606969 6.995614c77.210858 7.436079 155.237871 8.602015 234.093994 3.497807 82.820304 3.71804 144.057842 4.49533 183.699658 2.331872 31.182304-1.722994 50.78298 11.231848 58.814982 38.864526l-7.902453 17.229939a10.234325 10.234325 0 0 1-9.457035 5.700131 16510.427815 16510.427815 0 0 0-443.573787 2.850065c-72.676663 1.425033-62.960532 90.94299 0.518194 90.813442 193.895119-0.518194 349.223673 0.349781 465.985663 2.590968l0.388645 29.277943-1011.12541 0.518194c-1.541626 0-4.650788-1.580491-8.161551-4.14555l-4.145549-2.850065c4.313962-31.091621 1.25662-61.146854-9.197938-90.1657l24.484651-28.6302c2.46142-2.86302 6.464466-4.482375 10.882067-4.404647l151.312554 3.886453a8.291099 8.291099 0 0 0 8.16155-6.477421c4.832156-20.209553 4.145549-39.589997-2.072774-58.16724l4.145549-136.803131c0.194323-8.16155-8.174505-15.157165-18.914069-15.804907l-39.253171-2.46142 49.357948-5.441033c3.497807-0.388645 6.309008-3.394169 6.736517-7.254712l8.679744-81.226858c20.080005-7.643357 48.580657 11.400261 58.814983-13.473036z m93.663507 92.562345a16.970843 16.970843 0 0 0-16.672882-17.255849l-61.665047-1.088207a16.970843 16.970843 0 0 0-17.25585 16.672882l-1.036387 59.851369a16.970843 16.970843 0 0 0 16.659927 17.25585l61.665047 1.075252a16.970843 16.970843 0 0 0 17.255849-16.672882l1.036388-59.838415z m125.053089-4.948749a13.473036 13.473036 0 0 0-13.615539-13.343487l-66.587888 0.712516a13.473036 13.473036 0 0 0-13.330532 13.602584l0.699561 66.846984a13.473036 13.473036 0 0 0 13.615539 13.343487l66.587888-0.712516a13.473036 13.473036 0 0 0 13.330532-13.602584l-0.699561-66.846984z m-124.97536 130.014793a13.213939 13.213939 0 0 0-13.084391-13.343487l-69.437952-0.738426a13.213939 13.213939 0 0 0-13.343487 13.08439l-0.673652 63.996919a13.213939 13.213939 0 0 0 13.08439 13.343487l69.437953 0.725472a13.213939 13.213939 0 0 0 13.343487-13.071436l0.673652-63.996919z m125.687876 0.310916a13.991229 13.991229 0 0 0-13.93941-14.043048l-65.810597-0.220233a13.991229 13.991229 0 0 0-14.030094 13.93941l-0.220232 62.701435a13.991229 13.991229 0 0 0 13.93941 14.043049l65.810597 0.220232a13.991229 13.991229 0 0 0 14.043048-13.93941l0.207278-62.701435z m-124.236934 131.996884a17.748133 17.748133 0 0 0-16.711746-18.745656l-62.325744-3.588491a17.748133 17.748133 0 0 0-18.745657 16.685836l-3.199846 55.615137A17.748133 17.748133 0 0 0 403.673133 597.223394l62.338699 3.588491a17.748133 17.748133 0 0 0 18.745656-16.698791l3.212801-55.602182z m124.003747-5.220801a18.00723 18.00723 0 0 0-18.162689-17.851772l-57.778595 0.505239a18.00723 18.00723 0 0 0-17.838817 18.162688l0.505239 57.778595a18.00723 18.00723 0 0 0 18.162688 17.851772l57.778595-0.518193a18.00723 18.00723 0 0 0 17.838818-18.149734l-0.505239-57.778595z" fill="#9EBED1" p-id="15832"></path><path d="M333.976083 192.034804l-8.679744 81.226858c-0.42751 3.860543-3.23871 6.866066-6.736517 7.254712l-49.357948 5.441033-130.196161 0.388646c-13.991229-27.541994-18.266327-56.301743-12.825294-86.279248a10.234325 10.234325 0 0 1 10.104777-8.420647l197.690887 0.388646z" fill="#4F687D" p-id="15833"></path><path d="M668.081456 220.665004c15.027617 26.777658 18.914069 54.203059 11.659358 82.263246a11.607538 11.607538 0 0 0 1.943226 10.027048c2.163459 2.850065 5.518763 4.49533 9.06839 4.482375l142.762357-0.259097a12.695745 12.695745 0 0 1 10.234325 5.052389 734.073162 734.073162 0 0 1 70.862986 119.57319c-78.856123 5.104208-156.883135 3.938272-234.093994-3.497807a7.38426 7.38426 0 0 1-6.606969-6.995614l-5.829679-210.64573zM139.005713 286.346053l130.196161-0.388646 39.253171 2.46142c10.739564 0.647742 19.108392 7.643357 18.914069 15.804907l-4.145549 136.803131-184.995143 2.072775 0.777291-156.753587z m155.756064 44.046462a13.08439 13.08439 0 0 0-13.213939-12.967797l-64.502158 0.557059a13.08439 13.08439 0 0 0-12.967796 13.213938l0.699561 80.825259a13.08439 13.08439 0 0 0 13.213939 12.967797l64.502158-0.557059a13.08439 13.08439 0 0 0 12.967796-13.213938l-0.699561-80.825259z" fill="#E2F0FA" p-id="15834"></path><path d="M323.223565 441.026865c6.218324 18.577243 6.904931 37.957687 2.072774 58.16724a8.291099 8.291099 0 0 1-8.16155 6.477421l-151.312554-3.886453c-4.417601-0.077729-8.420647 1.541626-10.882067 4.404647l-24.484651 28.6302c-10.195461-34.628292-7.604492-65.201719 7.772905-91.72028l184.995143-2.072775z" fill="#4F687D" p-id="15835"></path><path d="M1157.126738 483.000553c15.54581 42.155056 17.398353 81.874601 5.570582 119.184545-116.76199-2.241188-272.090545-3.109162-465.985663-2.590968-63.478725 0.129548-73.194857-89.388409-0.518194-90.813442 147.853611-2.927794 295.720176-3.886453 443.573787-2.850065a10.234325 10.234325 0 0 0 9.457035-5.700131l7.902453-17.229939zM139.653455 624.98562l4.145549 2.850065c3.510762 2.565059 6.619924 4.145549 8.161551 4.14555l1011.12541-0.518194 239.535027-0.518194a8.550196 8.550196 0 0 1 8.679744 7.902454c4.313962 75.746961-10.584106 146.869043-44.694204 213.366246l-1271.77683 0.906839c-52.726207-58.944531-94.958991-125.273321-94.829443-207.925213a13.343487 13.343487 0 0 1 13.213939-13.213938l114.261705-0.259097c1.645265 0 4.663743-1.463897 8.032002-3.886453l4.14555-2.850065z" fill="#E2F0FA" p-id="15836"></path><path d="M1366.606532 852.213547c-28.073142 70.137514-73.803734 126.23198-137.191776 168.283396-3.471898 2.293007-7.656312 3.497807-12.048003 3.497808l-1068.256264-0.129549a7.125163 7.125163 0 0 1-7.125163-6.995614c-0.777291-56.819937-16.491514-111.41164-47.155624-163.749202l1271.77683-0.906839z" fill="#DC1D4A" p-id="15837"></path><path d="M391.155384 252.484065m16.968258 0.296182l61.655655 1.076203q16.968258 0.296182 16.672077 17.26444l-1.044551 59.842254q-0.296182 16.968258-17.26444 16.672076l-61.655656-1.076203q-16.968258-0.296182-16.672076-17.26444l1.044551-59.842254q0.296182-16.968258 17.26444-16.672076Z" fill="#E2F0FA" p-id="15838"></path><path d="M517.834958 253.673962m13.472297-0.141086l66.584236-0.697294q13.472297-0.141087 13.613383 13.33121l0.700008 66.843319q0.141087 13.472297-13.33121 13.613383l-66.584237 0.697294q-13.472297 0.141087-13.613383-13.33121l-0.700008-66.843319q-0.141087-13.472297 13.331211-13.613383Z" fill="#E2F0FA" p-id="15839"></path><path d="M203.962491 318.094485m13.083892-0.114181l64.512656-0.562993q13.083892-0.114181 13.198073 12.96971l0.705438 80.835136q0.114181 13.083892-12.969711 13.198073l-64.512656 0.562994q-13.083892 0.114181-13.198073-12.969711l-0.705438-80.835136q-0.114181-13.083892 12.969711-13.198073Z" fill="#4F687D" p-id="15840"></path><path d="M390.805728 381.971515m13.213215 0.138374l69.434145 0.727139q13.213214 0.138374 13.074841 13.351588l-0.670162 63.99341q-0.138374 13.213214-13.351588 13.074841l-69.434145-0.72714q-13.213214-0.138374-13.074841-13.351587l0.670162-63.99341q0.138374-13.213214 13.351588-13.074841Z" fill="#E2F0FA" p-id="15841"></path><path d="M518.482042 382.178008m13.991144 0.048838l65.810196 0.229722q13.991144 0.048839 13.942306 14.039983l-0.218869 62.701053q-0.048839 13.991144-14.039983 13.942305l-65.810195-0.229722q-13.991144-0.048839-13.942306-14.039982l0.218869-62.701053q0.048839-13.991144 14.039982-13.942306Z" fill="#E2F0FA" p-id="15842"></path><path d="M391.222148 505.130594m17.718703 1.021654l62.338798 3.594432q17.718704 1.021654 16.697049 18.740358l-3.206651 55.61345q-1.021654 17.718704-18.740358 16.69705l-62.338797-3.594433q-17.718704-1.021654-16.69705-18.740358l3.206652-55.613449q1.021654-17.718704 18.740357-16.69705Z" fill="#E2F0FA" p-id="15843"></path><path d="M518.045574 506.082556m18.006544-0.157141l57.776395-0.504207q18.006545-0.157141 18.163685 17.849404l0.504207 57.776395q0.157141 18.006545-17.849403 18.163685l-57.776395 0.504207q-18.006545 0.157141-18.163686-17.849404l-0.504207-57.776394q-0.157141-18.006545 17.849404-18.163686Z" fill="#E2F0FA" p-id="15844"></path></svg>