<svg t="1763284346839" class="icon" viewBox="0 0 1024 1024" version="1.1" xmlns="http://www.w3.org/2000/svg" p-id="67525" width="200" height="200"><path d="M1017.384 429.7C978.012 186.066 766.752 0 512 0 229.23 0 0 229.232 0 512c0 44.922 5.806 88.482 16.672 129.996L1017.384 429.7z" fill="#34D8C7" p-id="67526"></path><path d="M1017.384 429.7L745.736 158.052v467.474L278.264 158.052v483.95h729.086C1018.214 600.49 1024 556.92 1024 512c0-28.02-2.286-55.504-6.616-82.3z" fill="#0DC2AF" p-id="67527"></path><path d="M300.528 664.258l-22.264-461.684-144.396 222.604L16.672 641.996" fill="#059866" p-id="67528"></path><path d="M539.854 641.996l-117.198-216.818-144.392-222.604v461.684z" fill="#02432C" p-id="67529"></path><path d="M767.996 664.258l-22.26-461.684-144.392 222.604-117.2 216.818z" fill="#02432C" p-id="67530"></path><path d="M1007.328 641.996l-117.202-216.818-144.39-222.604v461.684z" fill="#011911" p-id="67531"></path><path d="M422.956 133.566c0 49.176 39.866 89.044 89.044 89.044l22.26-89.044L512 44.522c-49.176 0-89.044 39.866-89.044 89.044z" fill="#EDD4B8" p-id="67532"></path><path d="M512 44.522v178.086c49.176 0 89.044-39.866 89.044-89.044S561.176 44.522 512 44.522z" fill="#ED9433" p-id="67533"></path><path d="M133.868 425.182l72.194 44.522 72.192-44.522 22.266-133.564-22.256-133.566z" fill="#FFFFFF" p-id="67534"></path><path d="M278.264 158.052l-0.01 267.13 72.204 44.522 72.2-44.522z" fill="#98F0E7" p-id="67535"></path><path d="M601.342 425.182l72.194 44.522 72.192-44.522 22.266-133.564-22.258-133.566z" fill="#FFFFFF" p-id="67536"></path><path d="M745.736 158.052l-0.008 267.13 72.204 44.522 72.2-44.522z" fill="#5CEDDE" p-id="67537"></path><path d="M512 641.996L467.478 850.12c0.012-0.018 503.628-111.304 503.628-111.304a508.326 508.326 0 0 0 36.222-96.82H512z" fill="#046E4A" p-id="67538"></path><path d="M916.702 690.086c-22.866 35.822-59.664 59.206-101.218 59.206-41.52 0-78.216-23.382-101.116-59.206-22.934 35.822-59.664 59.206-101.184 59.206-41.554 0-78.25-23.382-101.148-59.206l-0.036 0.134v-48.224H16.672a508.386 508.386 0 0 0 36.228 96.83L512.018 1024c201.31-0.006 375.448-116.212 459.088-285.184-21.84-10.14-40.64-27.162-54.404-48.73z" fill="#0DC2AF" p-id="67539"></path><path d="M410.852 749.292c-41.52 0-78.252-23.382-101.148-59.206-22.934 35.822-59.664 59.206-101.182 59.206-41.524 0-78.252-23.382-101.148-59.206-13.77 21.57-32.598 38.6-54.468 48.74C136.544 907.798 310.688 1024 512 1024c0.006 0 0.034-333.914 0.034-333.914-22.864 35.824-59.662 59.206-101.182 59.206z" fill="#5CEDDE" p-id="67540"></path></svg>