<svg t="1763283893293" class="icon" viewBox="0 0 1033 1024" version="1.1" xmlns="http://www.w3.org/2000/svg" p-id="55679" width="200" height="200"><path d="M286.227802 1024a158.122724 158.122724 0 0 1-63.525287-14.845583c-94.252192-39.703304-107.026298-98.395145-112.550236-123.252866v-2.416723l-5.869184-2.416723c-31.417397-10.70263-95.978422-34.524612-103.573837-85.275792-6.21443-42.465273 28.310182-108.062036 107.716791-162.95617a241.672286 241.672286 0 0 0 7.250168-47.643965c5.523938-82.513823 13.119353-196.099798 103.573837-197.480782h56.620364a69.049225 69.049225 0 0 1-34.524612-34.524612 84.5853 84.5853 0 0 1 8.631153-57.656103 136.026972 136.026972 0 0 0 6.21443-104.954821c-17.952798-52.132165-17.262306-126.014835 27.274444-165.718139 26.583951-23.476736 78.025624-42.465273 172.623061 2.416723 123.252866 59.727579 128.431558 62.489548 138.098449 63.525286a112.550236 112.550236 0 0 1 20.024275 3.797708 400.830748 400.830748 0 0 0 88.728254-7.595415c94.942684-15.881322 225.100472-37.286581 287.935266 18.643291a113.585974 113.585974 0 0 1 41.774781 94.942683c-4.4882 80.442347-88.037761 158.813216-131.538773 188.849629-5.523938 3.797707-6.559676 5.523938 0 29.000675 14.500337 56.620364 41.429535 162.265678-237.874578 365.96089-62.489548 45.572488-113.585974 84.930546-154.670263 116.693189-105.99056 79.406608-162.265678 122.90762-222.338503 122.90762zM228.916945 422.236008h-9.321645c-54.203641 0-63.525287 75.263655-69.049224 165.372893a385.985165 385.985165 0 0 1-10.012138 78.716116v5.869184l-4.833446 3.452461C44.555516 738.13621 34.888624 775.077546 37.305347 791.649359c4.142953 31.417397 57.310856 49.370196 80.097101 57.310857 12.083614 3.797707 17.262306 5.523938 21.060013 10.357383a40.739042 40.739042 0 0 1 7.595415 19.333783c4.833446 21.40526 14.500337 65.942009 92.180715 98.740391s111.169252 2.416723 250.993931-105.645313c41.084289-31.762643 92.525961-71.120701 155.360755-117.038436 260.315577-189.540121 237.184086-280.685098 224.755226-329.364801-5.523938-22.440998-12.083614-47.643965 14.155091-65.942009 41.084289-30.726905 112.20499-99.776129 114.621713-162.610924a79.061362 79.061362 0 0 0-30.036413-66.977748c-50.75118-44.881996-176.420769-24.167229-259.625084-10.70263a319.352664 319.352664 0 0 1-103.573837 8.9764 107.71679 107.71679 0 0 0-15.881322-3.107216c-15.536076 0-16.91706-2.071477-150.527309-66.632501-59.037087-29.000674-104.954821-31.417397-133.265003-5.869184S272.417957 138.098449 287.26354 181.254214a167.44437 167.44437 0 0 1-6.21443 129.812543c-6.559676 16.571814-10.357384 26.238705-7.940661 34.524612s31.072151 23.13149 47.643965 30.381659c24.857721 11.047876 44.53675 20.024275 44.53675 38.667565a24.512475 24.512475 0 0 1-9.666892 17.607553c-8.976399 5.869184-18.298045 4.142953-32.453135 0a452.617667 452.617667 0 0 0-94.252192-10.012138z" fill="#1381C5" p-id="55680"></path><path d="M285.53731 345.936615c-11.047876-34.524612 40.04855-60.418071 11.047875-144.658125s-20.714767-217.850303 142.586649-148.801079c103.573837 44.53675 132.574511 65.596763 170.896831 75.263654 45.917734 11.738368 282.411328-69.049225 361.47269 0 93.216453 86.311531-44.881996 204.730951-96.323668 239.255563-54.894134 37.977073 128.776804 131.884019-223.374241 388.401889-254.446392 185.397168-310.72151 265.839514-411.878625 223.374241s-103.573837-111.514498-95.633176-118.074174-238.219825-22.095752 2.761969-204.730951c17.952798-59.037087-18.298045-228.207687 78.025624-229.588671s159.848955 5.178692 162.265678-7.595415c6.21443-30.726905-92.180715-43.155765-101.847606-72.846932z" fill="#A5DBF5" p-id="55681"></path><path d="M292.787478 990.511126a133.955496 133.955496 0 0 1-56.620364-12.42886 144.312879 144.312879 0 0 1-100.121376-116.347944h-3.452461c-29.34592-6.559676-91.144976-20.714767-101.157114-69.049224-8.631153-40.739042 26.238705-90.79973 106.335806-152.25354a367.687121 367.687121 0 0 0 4.4882-61.45381c0-69.049225 3.452461-166.408631 85.966284-167.789616H356.658011l-26.583952-11.738368c-24.857721-10.357384-51.786918-21.40526-59.382333-42.465273a69.049225 69.049225 0 0 1 6.904923-50.405934 109.097775 109.097775 0 0 0 3.797707-88.728254c-17.607552-51.096426-23.821982-124.288604 16.91706-162.265677 30.726905-28.655428 79.061362-29.34592 143.622387-2.071477 47.643965 20.024275 79.406608 34.524612 103.573837 46.608227a307.614295 307.614295 0 0 0 60.418071 25.202967 402.556979 402.556979 0 0 0 85.966285-10.012138c93.906945-16.226568 222.338503-38.667566 279.994605 12.42886a93.216453 93.216453 0 0 1 34.524613 78.37087c-3.797707 64.561025-74.573163 126.705327-133.61025 167.789616-5.178692 3.452461-5.178692 8.285907 0 31.417397 11.047876 60.072825 31.762643 172.623061-220.957518 355.603506-57.310856 41.429535-103.573837 76.989885-143.622387 108.062037-101.50236 78.37087-157.086986 121.526635-215.433581 121.526635z m-34.524612-544.107889h-28.310182c-45.572488 0-50.405934 55.929872-51.786919 133.955495A305.888065 305.888065 0 0 1 170.915597 655.967633v5.523938l-4.4882 3.452461c-93.216453 69.049225-101.50236 105.99056-98.395145 121.181389 5.523938 25.548213 54.203641 36.596089 75.263655 41.429535 12.774107 2.761969 18.298045 4.142953 22.786244 9.321645a32.453136 32.453136 0 0 1 6.559676 18.298045c3.107215 20.024275 9.666891 61.45381 79.751855 91.144976s108.062036-5.523938 236.148348-103.573836c38.667566-29.691167 86.656777-66.977748 144.312879-108.752529 235.11261-172.623061 216.814565-268.94673 207.147674-321.42414-4.4882-24.167229-8.976399-49.024949 15.190829-65.94201 73.192178-51.096426 116.693189-103.573837 119.109912-141.55091a61.108564 61.108564 0 0 0-24.167228-50.405934c-45.227242-40.04855-169.1706-18.643291-251.339178-4.4882a316.590695 316.590695 0 0 1-100.466621 9.666892 330.745786 330.745786 0 0 1-66.632502-27.61969c-24.167229-10.70263-53.858395-27.274444-102.192852-45.227242-34.524612-14.845583-81.823331-27.61969-106.681052-4.4882s-22.786244 82.513823-7.940661 126.014835a141.55091 141.55091 0 0 1-4.142954 112.895482c-5.523938 13.119353-8.285907 20.024275-6.21443 26.583952s27.274444 16.91706 40.393797 22.440998c30.036413 12.774107 64.215779 27.274444 58.346594 56.620364-4.4882 22.440998-29.691167 22.095752-96.668914 21.405259z" fill="#EDF7FD" p-id="55682"></path></svg>