<svg t="1763261336732" class="icon" viewBox="0 0 1024 1024" version="1.1" xmlns="http://www.w3.org/2000/svg" p-id="7578" width="200" height="200"><path d="M492.472287 611.957373H178.826494v219.547859h313.645793V611.957373zM285.516185 580.592077L254.350434 432.550666c-2.848879-13.678507 1.149171-27.189191 9.653851-36.983236l111.237255-137.066475c4.740968-5.845113 10.395747-11.080337 17.229372-12.730927l43.169109-10.434632c-2.656498 12.471008-3.51505 27.145189-1.344622 44.133061 2.340297 18.251653 8.190526 39.225295 19.136811 63.013024a37.993237 37.993237 0 0 0-10.181876 13.447239c-3.690035 8.127082-4.832042 18.063365-2.013863 29.168262l16.976616 66.934325c1.570772 6.290251 7.949027 10.122525 14.243371 8.547659a11.941959 11.941959 0 0 0 1.810225-0.609889l10.471471-3.97042c6.065124-2.281968 9.131966-9.052149 6.845905-15.115226-2.116193-5.632266-8.104569-8.676596-13.805396-7.258296l-13.748092-54.226934c-1.414206-5.584171-0.991582-10.245321 0.630356-13.821769a14.513523 14.513523 0 0 1 8.098429-7.610313 14.60562 14.60562 0 0 1 11.191877 0.319271c3.560075 1.593285 6.951305 4.79111 9.58222 9.891258l25.648096 49.770444c-5.202478 2.693337-7.675804 8.921166-5.565752 14.543199 2.289131 6.063077 9.055218 9.12992 15.122389 6.840788l10.996426-4.164848c6.0641-2.284015 9.12685-9.052149 6.841812-15.115226-0.180102-0.492209-0.394995-0.951673-0.631379-1.39988l-31.55563-61.226334c-5.257737-10.198249-12.705344-16.890658-20.882568-20.547947a37.849974 37.849974 0 0 0-18.315097-3.238758c-10.189039-21.888476-15.567526-40.852348-17.642787-57.107535-2.534724-19.805029-0.146332-35.515817 4.325506-47.533501l13.944566-3.364624a43.561034 43.561034 0 0 1 2.970652-0.296758l41.148083 59.526626v-29.654331l11.764928-11.760835 11.761858 11.760835 5.068426 27.885038 24.101882-58.113443 33.412928 12.899772-13.538314 64.685102c-19.468362 0.020466-35.246688 15.809026-35.246689 35.287621 0 19.485758 15.79777 35.284551 35.284551 35.28455 19.487804-0.002047 35.285574-15.796746 35.285574-35.28455 0-11.042475-5.073542-20.900987-13.014383-27.3652l13.404262-64.04656 24.132581 9.323324c7.604173 5.693664 12.856793 13.550594 15.414031 22.18421L727.292961 448.094656l125.496998 62.743894c21.215142 10.608594 29.810897 36.403022 19.208442 57.61407-10.609617 21.215142-36.403022 29.81499-57.618164 19.212536L675.069657 518.006795c-10.510357-4.640684-19.148067-13.460543-23.227981-25.173282l-30.15882-86.217468v163.555726c34.441348 69.050518 63.22587 127.723708 77.759859 206.560083h-0.026606c0.459464 2.520398 0.69687 5.111404 0.69687 7.753576l-0.061398 180.200791c0.11154 1.248431 0.168845 2.515282 0.168845 3.794412 0 23.813311-19.308726 43.12613-43.127153 43.12613l-15.387425-0.008186v-0.167822c-23.72633 0-42.957285-19.227885-42.957285-42.950122l0.061398-179.802726c-9.636455-49.513595-28.646376-92.259056-50.802958-137.671248h-24.174537v196.188896c0 8.65306-7.016797 15.682136-15.682136 15.682136l-17.951825-0.00307-7.538682 106.654899c-0.417508 23.470504-19.560459 42.349442-43.114874 42.349442l-15.980941-0.00307v-0.077771c-0.949626 0-1.899253-0.018419-2.860135-0.086981-23.72633-1.577935-41.676108-22.096207-40.098173-45.81742l6.991214-103.018075H163.144358c-8.664316 0-15.682136-7.021913-15.682136-15.679067v-250.924411c0-8.65613 7.01782-15.67395 15.682136-15.67395l122.371827-0.00614zM532.539761 12.123084c-51.966455 0-94.097933 42.132502-94.097933 94.094864 0 51.972595 42.131479 94.09384 94.097933 94.09384 51.965432-0.002047 94.088724-42.119199 94.088724-94.09384 0-51.964408-42.123292-94.092817-94.088724-94.092817v-0.002047zM369.945941 564.010457a42.941935 42.941935 0 0 1 0.192381 16.585714l36.268969-0.004094-0.019443-224.033001-63.613702 78.399424 27.171795 129.051957z" fill="#1afa29" p-id="7579"></path><path d="M304.284606 643.317552h62.725475v47.054595h47.046409v62.725475h-47.046409v47.050501h-62.725475v-47.050501h-47.051524V690.372147h47.051524z" fill="#1afa29" p-id="7580"></path></svg>