<svg t="1763261598041" class="icon" viewBox="0 0 1024 1024" version="1.1" xmlns="http://www.w3.org/2000/svg" p-id="11620" width="200" height="200"><path d="M883.4 434.7H760.9s-31.5-136.9-56.1-184.1c-5.1-9.9-11.7-15.8-38.1-15.8H71.8c-24.2 0-44 19.7-44 44v359.3c0 24.2 19.7 44 44 44h51.8c0-61.4 49.7-111.1 111-111.1s111 49.8 111 111.1h300c0-61.4 49.7-111.1 111-111.1s111 49.8 111 111.1h102.6V521.5c0-47.9-38.7-86.8-86.8-86.8z" fill="#EDEDED" p-id="11621"></path><path d="M657.7 686.1c0 55.6 45.1 100.6 100.6 100.6 55.6 0 100.6-45.1 100.6-100.6 0-55.6-45-100.6-100.6-100.7-55.6 0-100.6 45-100.7 100.6l0.1 0.1z" fill="#333E48" p-id="11622"></path><path d="M715.2 686.1c0 23.9 19.3 43.1 43.1 43.1 23.9 0 43.1-19.3 43.1-43.1 0-23.9-19.3-43.1-43.1-43.1s-43.1 19.4-43.1 43.1z" fill="#D1D3D3" p-id="11623"></path><path d="M135.9 686.1c0 55.6 45.1 100.6 100.6 100.6S337 741.6 337 686.1c0-55.6-45.1-100.6-100.6-100.6s-100.5 45.1-100.5 100.6z" fill="#333E48" p-id="11624"></path><path d="M193.3 686.1c0 23.9 19.3 43.1 43.1 43.1s43.1-19.3 43.1-43.1c0-23.9-19.3-43.1-43.1-43.1s-43.1 19.4-43.1 43.1z" fill="#D1D3D3" p-id="11625"></path><path d="M227.4 424.7c0 7.6-5 13.8-11.1 13.8H94.8c-6 0-11.1-6.2-11.1-13.8v-90.8c0-7.6 5-13.8 11.1-13.8h121.5c6 0 11.1 6.2 11.1 13.8v90.8z m188.6 0c0 7.6-5 13.8-11.1 13.8H283.4c-6 0-11.1-6.2-11.1-13.8v-90.8c0-7.6 5-13.8 11.1-13.8h121.5c6 0 11.1 6.2 11.1 13.8v90.8z" fill="#B3F1FF" p-id="11626"></path><path d="M33 461.8h703.6v16.5H33zM34.1 483.2h702.5v69.1H34.1z" fill="#E51717" p-id="11627"></path><path d="M404.9 319H283.4c-6 0-11.1 5-11.1 11.1v18.6c0-6 5-11.1 11.1-11.1h121.5c6 0 11.1 5 11.1 11.1V330c0-6.2-5.1-11-11.1-11z" fill="#00B3E3" p-id="11628"></path><path d="M621.2 675.3c0 6-6.2 11.1-13.7 11.1H457.1c-7.4 0-13.7-5-13.7-11.1V355.1c0-6 6.2-11.1 13.7-11.1h150.4c7.4 0 13.7 5 13.7 11.1v320.2z" fill="#D6D6D6" p-id="11629"></path><path d="M607.5 344.2H457.1c-7.4 0-13.7 5-13.7 11.1v18.6c0-6 6.2-11.1 13.7-11.1h150.4c7.4 0 13.7 5 13.7 11.1v-18.7c0-6.2-6-11-13.7-11z" fill="" p-id="11630"></path><path d="M750.7 438.5h-90c-6 0-11.1-6.2-11.1-13.8v-90.8c0-7.6 5-13.8 11.1-13.8h59.4c-0.1 0 30.6 118.4 30.6 118.4z" fill="#B3F1FF" p-id="11631"></path><path d="M216.3 319H94.8c-6 0-11.1 5-11.1 11.1v18.6c0-6 5-11.1 11.1-11.1h121.5c6 0 11.1 5 11.1 11.1V330c0-6.2-5.1-11-11.1-11z m444.4 0c-6 0-11.1 5-11.1 11.1v18.6c0-6 5-11.1 11.1-11.1h63.8l-4.4-18.7h-59.4v0.1z" fill="#00B3E3" p-id="11632"></path><path d="M918.4 584.6h61.3V638h-61.3v-53.4z" fill="#00B3E3" p-id="11633"></path><path d="M973.7 584.2h18.2c4.2 0 7.8 3.4 7.8 7.8v38.1c0 4.2-3.4 7.8-7.8 7.8h-18.2v-53.7z" fill="#FFFFFF" p-id="11634"></path><path d="M394.2 410.3L379.1 384c-1-1.6-0.3-3.7 1.2-4.6 1.6-1 3.7-0.3 4.6 1.2l15.1 26.3c1 1.6 0.3 3.7-1.2 4.6-1.7 1-3.7 0.4-4.6-1.2zM389.8 427.8l-15.1-26.3c-1-1.6-0.3-3.7 1.2-4.6 1.6-1 3.7-0.3 4.6 1.2l15.1 26.3c1 1.6 0.3 3.7-1.2 4.6-1.6 1-3.7 0.4-4.6-1.2z" fill="#E1FEFF" p-id="11635"></path><path d="M302.6 508m-48.3 0a48.3 48.3 0 1 0 96.6 0 48.3 48.3 0 1 0-96.6 0Z" fill="#EDEDED" p-id="11636"></path><path d="M292 474.1h21.1v68H292z" fill="#E51717" p-id="11637"></path><path d="M268.6 497.5h68v21.1h-68z" fill="#E51717" p-id="11638"></path><path d="M220.9 671.5m-3.6 0a3.6 3.6 0 1 0 7.2 0 3.6 3.6 0 1 0-7.2 0Z" fill="" p-id="11639"></path><path d="M253.7 671.5m-3.6 0a3.6 3.6 0 1 0 7.2 0 3.6 3.6 0 1 0-7.2 0Z" fill="" p-id="11640"></path><path d="M220.9 704.4m-3.6 0a3.6 3.6 0 1 0 7.2 0 3.6 3.6 0 1 0-7.2 0Z" fill="" p-id="11641"></path><path d="M253.7 704.4m-3.6 0a3.6 3.6 0 1 0 7.2 0 3.6 3.6 0 1 0-7.2 0Z" fill="" p-id="11642"></path><path d="M741.9 671.5m-3.6 0a3.6 3.6 0 1 0 7.2 0 3.6 3.6 0 1 0-7.2 0Z" fill="" p-id="11643"></path><path d="M774.7 671.5m-3.6 0a3.6 3.6 0 1 0 7.2 0 3.6 3.6 0 1 0-7.2 0Z" fill="" p-id="11644"></path><path d="M741.9 704.4m-3.6 0a3.6 3.6 0 1 0 7.2 0 3.6 3.6 0 1 0-7.2 0Z" fill="" p-id="11645"></path><path d="M774.7 704.4m-3.6 0a3.6 3.6 0 1 0 7.2 0 3.6 3.6 0 1 0-7.2 0Z" fill="" p-id="11646"></path><path d="M515.1 475.5h-44.4c-5.5 0-10-4.5-10-10v-84.4c0-5.5 4.5-10 10-10h44.4c5.5 0 10 4.5 10 10v84.4c0 5.6-4.5 10-10 10z" fill="#B3F1FF" p-id="11647"></path><path d="M448 483.2h168.7v69.1H448z" fill="#E51717" p-id="11648"></path><path d="M591.7 475.5h-44.4c-5.5 0-10-4.5-10-10v-84.4c0-5.5 4.5-10 10-10h44.4c5.5 0 10 4.5 10 10v84.4c0 5.6-4.5 10-10 10z" fill="#B3F1FF" p-id="11649"></path><path d="M540.1 376.2c-1.2 1.6-2 3.7-2 5.9v82.2c0 5.4 4.4 9.7 9.7 9.7h44.3c0.4-4 0.7-8.1 0.7-12.3-0.1-44.2-23.1-80.5-52.7-85.5z" fill="#E1FEFF" p-id="11650"></path><path d="M651.6 224.8h-46.8l6.5-44.9c0.4-3.9 3.7-6.8 7.7-6.8h18.6c3.9 0 7.2 3 7.7 6.8l6.3 44.9z" fill="#00878A" p-id="11651"></path><path d="M624.5 174.9H618c-3.2 0-5.9 2.7-6.3 6.3l-5.4 42h6.5l5.4-42c0.3-3.6 3.1-6.3 6.3-6.3z" fill="#6AD1C6" p-id="11652"></path><path d="M599.1 222.6h58.7v7.8h-58.7z" fill="#F6F3DF" p-id="11653"></path></svg>