<svg t="1763261681444" class="icon" viewBox="0 0 1024 1024" version="1.1" xmlns="http://www.w3.org/2000/svg" p-id="13097" width="200" height="200"><path d="M597.306 674.424h42.684v85.372h-42.684zM746.608 663.426h42.684v85.37h-42.684z" fill="#434A54" p-id="13098"></path><path d="M597.306 266.708h42.684v131.552h-42.684z" fill="#CCD1D9" p-id="13099"></path><path d="M789.292 394.698H112.03L0.038 245.334 37.1 506.688l382.906 37.686c27.312 46.184 110.368 148.55 182.614 148.55 33.622 0 153.05 0.376 186.672 0.376 82.496 0 149.3-66.808 149.3-149.3 0-82.434-66.804-149.302-149.3-149.302z" fill="#E6E9ED" p-id="13100"></path><path d="M1002.588 266.708H234.646c-11.75 0-21.312 9.56-21.312 21.31 0 11.81 9.562 21.31 21.312 21.31h767.942c11.812 0 21.376-9.5 21.376-21.31-0.002-11.75-9.564-21.31-21.376-21.31z" fill="#E6E9ED" p-id="13101"></path><path d="M959.966 714.672a21.366 21.366 0 0 0-21.376-21.374c-11.746 0-21.308 9.562-21.308 21.374 0 11.748-9.562 21.31-21.312 21.31H469.314v42.684h426.656c35.31 0 63.996-28.684 63.996-63.994z" fill="#656D78" p-id="13102"></path><path d="M744.232 494.44c39.246 39.808 104.618 56.808 194.36 50.872V544c0-82.432-66.804-149.3-149.3-149.3h-85.68c0.874 23.118 7.374 66.116 40.62 99.74z" fill="#4FC2E9" p-id="13103"></path><path d="M0.038 245.334L37.1 506.688l166.734 14.998z" fill="#CCD1D9" p-id="13104"></path><path d="M639.24 523.654h-85.304c-11.812 0-21.376 9.532-21.376 21.344 0 11.748 9.562 21.31 21.376 21.31h85.304c11.75 0 21.312-9.562 21.312-21.31 0-11.812-9.562-21.344-21.312-21.344z" fill="#DA4453" p-id="13105"></path><path d="M596.556 481.002c-11.75 0-21.312 9.532-21.312 21.312v85.336c0 11.782 9.562 21.342 21.312 21.342 11.812 0 21.372-9.56 21.372-21.342v-85.336c0-11.78-9.558-21.312-21.372-21.312z" fill="#ED5564" p-id="13106"></path></svg>