<svg t="1763261184678" class="icon" viewBox="0 0 1024 1024" version="1.1" xmlns="http://www.w3.org/2000/svg" p-id="5935" width="200" height="200"><path d="M396.8 213.333333c51.2 0 89.6-42.666667 89.6-93.866666 0-51.2-38.4-93.866667-89.6-93.866667-51.2 0-89.6 42.666667-89.6 93.866667C307.2 170.666667 345.6 213.333333 396.8 213.333333z m55.466667 733.866667c-140.8 0-256-119.466667-256-264.533333v-17.066667L170.666667 576c-12.8 34.133333-17.066667 68.266667-17.066667 102.4 0 170.666667 136.533333 311.466667 298.666667 311.466667 123.733333 0 226.133333-76.8 273.066666-183.466667l-29.866666-51.2c-29.866667 110.933333-128 192-243.2 192z m413.866666-157.866667l-132.266666-243.2c-8.533333-12.8-21.333333-21.333333-38.4-21.333333h-179.2l-21.333334-213.333333c-8.533333-51.2-55.466667-85.333333-102.4-72.533334-12.8 0-21.333333 4.266667-29.866666 8.533334L183.466667 358.4c-17.066667 8.533333-25.6 34.133333-21.333334 51.2l55.466667 183.466667c4.266667 21.333333 21.333333 34.133333 42.666667 34.133333 4.266667 0 8.533333 0 12.8-4.266667 21.333333-8.533333 38.4-34.133333 29.866666-55.466666l-42.666666-149.333334 64-38.4 29.866666 162.133334c8.533333 42.666667 46.933333 76.8 89.6 76.8h230.4l119.466667 217.6c8.533333 12.8 21.333333 21.333333 38.4 21.333333 8.533333 0 17.066667-4.266667 21.333333-4.266667 17.066667-12.8 25.6-42.666667 12.8-64z" fill="#d81e06" p-id="5936"></path></svg>