<?xml version="1.0" encoding="utf-8"?>
<svg version="1.1" xmlns:xlink="http://www.w3.org/1999/xlink" width="30px" height="30px" xmlns="http://www.w3.org/2000/svg">
  <g transform="matrix(1 0 0 1 -340 -5 )">
    <path d="M 29.9328024009146 15  C 29.9328024009146 23.2317073170732  23.2317073170732 29.9328024009146  15 29.9328024009146  C 6.76829268292683 29.9328024009146  0.0671975990853663 23.2317073170732  0.0671975990853663 15  C 0.0671975990853663 6.76829268292683  6.76829268292683 0.0671975990853663  15 0.0671975990853663  C 23.2317073170732 0.0671975990853663  29.9328024009146 6.76829268292683  29.9328024009146 15  Z M 28.4395221393864 15  C 28.4395221393864 7.58959681068979  22.4104031893102 1.56047786061357  15 1.56047786061357  C 7.58959681068979 1.56047786061357  1.56047786061357 7.58959681068979  1.56047786061357 15  C 1.56047786061357 22.4104031893102  7.58959681068979 28.4395221393864  15 28.4395221393864  C 22.4104031893102 28.4395221393864  28.4395221393864 22.4104031893102  28.4395221393864 15  Z " fill-rule="nonzero" fill="#333333" stroke="none" transform="matrix(1 0 0 1 340 5 )" />
  </g>
</svg>