<?xml version="1.0" encoding="utf-8"?>
<svg version="1.1" xmlns:xlink="http://www.w3.org/1999/xlink" width="50px" height="43px" xmlns="http://www.w3.org/2000/svg">
  <g transform="matrix(1 0 0 1 -550 -2 )">
    <path d="M 32.1428571428571 33.677734375  C 32.3846726190476 33.677734375  32.5985863095238 33.5844184027778  32.7845982142857 33.3977864583333  L 36.8582589285714 29.310546875  C 37.0442708333333 29.1239149305556  37.1372767857143 28.9092881944444  37.1372767857143 28.6666666666667  C 37.1372767857143 28.4240451388889  37.0442708333333 28.2094184027778  36.8582589285714 28.0227864583333  L 30.3571428571429 21.5  L 36.8582589285714 14.9772135416667  C 37.0442708333333 14.7905815972222  37.1372767857143 14.5759548611111  37.1372767857143 14.3333333333333  C 37.1372767857143 14.0907118055556  37.0442708333333 13.8760850694444  36.8582589285714 13.689453125  L 32.7845982142857 9.60221354166666  C 32.5985863095238 9.41558159722222  32.3846726190476 9.322265625  32.1428571428571 9.322265625  C 31.9010416666667 9.322265625  31.6871279761905 9.41558159722222  31.5011160714286 9.60221354166666  L 25 16.125  L 18.4988839285714 9.60221354166666  C 18.3128720238095 9.41558159722222  18.0989583333333 9.322265625  17.8571428571429 9.322265625  C 17.6153273809524 9.322265625  17.4014136904762 9.41558159722222  17.2154017857143 9.60221354166666  L 13.1417410714286 13.689453125  C 12.9557291666667 13.8760850694444  12.8627232142857 14.0907118055556  12.8627232142857 14.3333333333333  C 12.8627232142857 14.5759548611111  12.9557291666667 14.7905815972222  13.1417410714286 14.9772135416667  L 19.6428571428571 21.5  L 13.1417410714286 28.0227864583333  C 12.9557291666667 28.2094184027778  12.8627232142857 28.4240451388889  12.8627232142857 28.6666666666667  C 12.8627232142857 28.9092881944444  12.9557291666667 29.1239149305556  13.1417410714286 29.310546875  L 17.2154017857143 33.3977864583333  C 17.4014136904762 33.5844184027778  17.6153273809524 33.677734375  17.8571428571429 33.677734375  C 18.0989583333333 33.677734375  18.3128720238095 33.5844184027778  18.4988839285714 33.3977864583333  L 25 26.875  L 31.5011160714286 33.3977864583333  C 31.6871279761905 33.5844184027778  31.9010416666667 33.677734375  32.1428571428571 33.677734375  Z M 48.6886160714286 1.31575520833333  C 49.5628720238095 2.19292534722222  50 3.24739583333333  50 4.47916666666667  L 50 38.5208333333333  C 50 39.7526041666667  49.5628720238095 40.8070746527778  48.6886160714286 41.6842447916667  C 47.8143601190476 42.5614149305556  46.7633928571429 43  45.5357142857143 43  L 4.46428571428571 43  C 3.23660714285714 43  2.18563988095238 42.5614149305556  1.31138392857143 41.6842447916667  C 0.437127976190476 40.8070746527778  0 39.7526041666667  0 38.5208333333333  L 0 4.47916666666667  C 0 3.24739583333333  0.437127976190476 2.19292534722222  1.31138392857143 1.31575520833333  C 2.18563988095238 0.43858506944444  3.23660714285714 0  4.46428571428571 0  L 45.5357142857143 0  C 46.7633928571429 0  47.8143601190476 0.43858506944444  48.6886160714286 1.31575520833333  Z " fill-rule="nonzero" fill="#555555" stroke="none" transform="matrix(1 0 0 1 550 2 )" />
  </g>
</svg>