<?xml version="1.0" encoding="utf-8"?>
<svg version="1.1" xmlns:xlink="http://www.w3.org/1999/xlink" width="37px" height="30px" xmlns="http://www.w3.org/2000/svg">
  <g transform="matrix(1 0 0 1 -261 0 )">
    <path d="M 15.0548469387755 27.43359375  C 15.0391156462585 27.51953125  15.0548469387755 27.625  15.1020408163265 27.75  C 15.1020408163265 27.8125  15.109906462585 27.96875  15.125637755102 28.21875  C 15.141369047619 28.46875  15.1453018707483 28.67578125  15.1374362244898 28.83984375  C 15.1295705782313 29.00390625  15.1059736394558 29.1875  15.0666454081633 29.390625  C 15.0273171768707 29.59375  14.9486607142857 29.74609375  14.8306760204082 29.84765625  C 14.7126913265306 29.94921875  14.5514455782313 30  14.3469387755102 30  L 6.79591836734694 30  C 4.92389455782313 30  3.32323554421769 29.33984375  1.99394132653061 28.01953125  C 0.664647108843537 26.69921875  0 25.109375  0 23.25  L 0 6.75  C 0 4.89062499999999  0.664647108843537 3.30078125  1.99394132653061 1.98046875  C 3.32323554421769 0.660156249999996  4.92389455782313 0  6.79591836734694 0  L 14.3469387755102 0  C 14.5514455782313 0  14.7284226190476 0.0742187499999958  14.8778698979592 0.222656250000001  C 15.0273171768707 0.371093749999999  15.1020408163265 0.546874999999999  15.1020408163265 0.750000000000001  C 15.1020408163265 0.812499999999997  15.109906462585 0.968749999999998  15.125637755102 1.21875  C 15.141369047619 1.46875  15.1453018707483 1.67578125  15.1374362244898 1.83984375  C 15.1295705782313 2.00390625  15.1059736394558 2.1875  15.0666454081633 2.390625  C 15.0273171768707 2.59375  14.9486607142857 2.74609375  14.8306760204082 2.84765625  C 14.7126913265306 2.94921875  14.5514455782313 3  14.3469387755102 3  L 6.79591836734694 3  C 5.75765306122449 3  4.86883503401361 3.3671875  4.12946428571429 4.1015625  C 3.39009353741497 4.8359375  3.02040816326531 5.71875  3 6.75  L 3 23.25  C 3.02040816326531 24.28125  3.39009353741497 25.1640625  4.12946428571429 25.8984375  C 4.86883503401361 26.6328125  5.75765306122449 27  6.79591836734694 27  L 13.5918367346939 27  L 13.8514030612245 27  L 14.1581632653061 27  C 14.1581632653061 27  14.2486181972789 27.0078125  14.4295280612245 27.0234375  C 14.6104379251701 27.0390625  14.7008928571429 27.0625  14.7008928571429 27.09375  C 14.7008928571429 27.125  14.7638180272109 27.16796875  14.8896683673469 27.22265625  C 15.015518707483 27.27734375  15.0705782312925 27.34765625  15.0548469387755 27.43359375  Z M 36.5516581632653 13.9453125  C 36.8505527210884 14.2421875  37 14.59375  37 15  C 37 15.40625  36.8505527210884 15.7578125  36.5516581632653 16.0546875  L 23.7149234693878 28.8046875  C 23.4160289115646 29.1015625  23.062074829932 29.25  22.6530612244898 29.25  C 22.2440476190476 29.25  21.890093537415 29.1015625  21.5911989795918 28.8046875  C 21.2923044217687 28.5078125  21.1428571428571 28.15625  21.1428571428571 27.75  L 21.1428571428571 21  L 10.5714285714286 21  C 10.1624149659864 21  9.80846088435374 20.8515625  9.50956632653061 20.5546875  C 9.21067176870748 20.2578125  9.06122448979592 19.90625  9.06122448979592 19.5  L 9.06122448979592 10.5  C 9.06122448979592 10.09375  9.21067176870748 9.7421875  9.50956632653061 9.4453125  C 9.80846088435374 9.1484375  10.1624149659864 9  10.5714285714286 9  L 21.1428571428571 9  L 21.1428571428571 2.25  C 21.1428571428571 1.84375  21.2923044217687 1.4921875  21.5911989795918 1.1953125  C 21.890093537415 0.898437499999999  22.2440476190476 0.750000000000001  22.6530612244898 0.750000000000001  C 23.062074829932 0.750000000000001  23.4160289115646 0.898437499999999  23.7149234693878 1.1953125  L 36.5516581632653 13.9453125  Z " fill-rule="nonzero" fill="#000000" stroke="none" transform="matrix(1 0 0 1 261 0 )" />
  </g>
</svg>