<?xml version="1.0" encoding="utf-8"?>
<svg version="1.1" xmlns:xlink="http://www.w3.org/1999/xlink" width="16px" height="22px" xmlns="http://www.w3.org/2000/svg">
  <g transform="matrix(1 0 0 1 -791 -12 )">
    <path d="M 15.4051339285714 16.1541015625  C 15.4051339285714 16.650390625  14.9832589285714 17.0564453125  14.4676339285714 17.0564453125  L 6.43191964285714 17.0564453125  C 5.91629464285714 17.0564453125  5.49441964285714 16.650390625  5.49441964285714 16.1541015625  C 5.49441964285714 15.6578125  5.91629464285714 15.2517578125  6.43191964285714 15.2517578125  L 14.4676339285714 15.2517578125  C 14.9832589285714 15.2517578125  15.4051339285714 15.6578125  15.4051339285714 16.1541015625  Z M 5.90959821428571 8.8  C 5.87276785714286 8.8  5.84263392857143 8.77099609375  5.84263392857143 8.735546875  L 5.84263392857143 0.26640625  C 5.84263392857143 0.230957031250001  5.87276785714286 0.201953125  5.90959821428571 0.201953125  L 7.76116071428571 0.201953125  C 7.79799107142857 0.201953125  7.828125 0.230957031250001  7.828125 0.26640625  L 7.828125 8.735546875  C 7.828125 8.77099609375  7.79799107142857 8.8  7.76116071428571 8.8  L 5.90959821428571 8.8  Z M 15.421875 20.28232421875  C 15.421875 20.77861328125  15 21.18466796875  14.484375 21  L 1.42633928571428 21  C 0.910714285714286 21.18466796875  0.488839285714284 20.77861328125  0.488839285714284 20.28232421875  C 0.488839285714284 19.78603515625  0.910714285714286 19.37998046875  1.42633928571428 19  L 14.484375 19  C 15 19.37998046875  15.421875 19.78603515625  15.421875 20.28232421875  Z " fill-rule="nonzero" fill="#00ffff" stroke="none" transform="matrix(1 0 0 1 791 12 )" />
  </g>
</svg>