<?xml version="1.0" encoding="utf-8"?>
<svg version="1.1" xmlns:xlink="http://www.w3.org/1999/xlink" width="33px" height="4px" xmlns="http://www.w3.org/2000/svg">
  <g transform="matrix(1 0 0 1 -534 -27 )">
    <path d="M 8.73244565217391 3.76500001302083  L 5.96869566618546 1.39333333333334  C 5.57870392700815 1.01936174660534  5.04405449815224 0.805742001941193  4.48369566618546 0.800000013020835  L 1.07608695652174 0.800000013020835  L 1.07608695652174 1.49166665364584  C 1.07608695652174 2.28166665364584  1.18190215990149 3.07333333333334  1.18190215990149 3.76500001302083  L 8.73244565217391 3.76500001302083  Z M 32.9802717251189 1.49166665364584  L 32.9784782748811 0.800000013020835  L 29.6820652033798 0.80000001302084  C 29.1204583015637 0.804854416702833  28.5843416102498 1.01854425063074  28.1934782608696 1.39333333333334  L 25.3239130294667 3.76500001302083  L 32.8744565217391 3.76500001302083  C 32.9676142062481 3.01050696936815  33.0029749493583 2.25081692146249  32.9802717251189 1.49166665364584  Z M 10.3286412903363 0.800000013020835  L 13.5174456661855 3.76500001302083  L 20.535326072945 3.76500001302083  L 23.7277173913044 0.800000013020835  L 10.3286412903363 0.800000013020835  Z " fill-rule="nonzero" fill="#00ffff" stroke="none" transform="matrix(1 0 0 1 534 27 )" />
  </g>
</svg>