<?xml version="1.0" encoding="utf-8"?>
<svg version="1.1" xmlns:xlink="http://www.w3.org/1999/xlink" width="27px" height="27px" xmlns="http://www.w3.org/2000/svg">
  <g transform="matrix(1 0 0 1 -157 -13 )">
    <path d="M 27 1.2  C 26.94375 0.682233047033632  26.5240169529664 0.2625  26.00625 0.2625  C 25.4884830470336 0.2625  25.06875 0.682233047033631  25 1.2  L 25 25  L 1.10625 25  C 1.10625 25.125  1.10625 25.125  1.10625 25.125  C 0.588483047033631 25.125  0.16875 25.5447330470336  0.16875 26.0625  C 0.16875 26.5802669529664  0.588483047033631 27  1.10625 27  L 26.00625 27  C 26.5240169529664 27  26.94375 26.5802669529664  27 26.0625  L 27 1.2  Z " fill-rule="nonzero" fill="#00ffff" stroke="none" transform="matrix(1 0 0 1 157 13 )" />
  </g>
</svg>