<?xml version="1.0" encoding="utf-8"?>
<svg version="1.1" xmlns:xlink="http://www.w3.org/1999/xlink" width="22px" height="22px" xmlns="http://www.w3.org/2000/svg">
  <g transform="matrix(1 0 0 1 -158 -14 )">
    <path d="M 15.25625 19.71875  C 14.7384830470336 19.71875  14.31875 20.1384830470336  14.31875 20.65625  C 14.31875 21.1740169529664  14.7384830470336 21.59375  15.25625 21.59375  L 20.65625 21.59375  C 21.1740169529664 21.59375  21.59375 21.1740169529664  21.59375 20.65625  L 21.59375 15.275  C 21.59375 14.7572330470336  21.1740169529664 14.3375  20.65625 14.3375  C 20.1384830470336 14.3375  19.71875 14.7572330470336  19.71875 15.275  L 19.71875 18.3875  L 3.5 2.16875  L 6.6125 2.16875  C 7.13026695296637 2.16875  7.55 1.74901695296637  7.55 1.23125  C 7.55 0.713483047033631  7.13026695296637 0.29375  6.6125 0.29375  L 1.23125 0.29375  C 0.713483047033631 0.29375  0.29375 0.713483047033631  0.29375 1.23125  L 0.29375 6.65  C 0.29375 7.16776695296637  0.713483047033631 7.5875  1.23125 7.5875  C 1.74901695296637 7.5875  2.16875 7.16776695296637  2.16875 6.65  L 2.16875 3.5  L 18.3875 19.71875  L 15.25625 19.71875  Z " fill-rule="nonzero" fill="#00ffff" stroke="none" transform="matrix(1 0 0 1 158 14 )" />
  </g>
</svg>