<?xml version="1.0" encoding="utf-8"?>
<svg version="1.1" xmlns:xlink="http://www.w3.org/1999/xlink" width="35px" height="30px" xmlns="http://www.w3.org/2000/svg">
  <g>
    <path d="M 20.25390625 14.1233766233766  L 34.12109375 0.292207792207791  C 34.3684895833333 0.0454545454545441  34.5768229166667 -0.0389610389610406  34.74609375 0.0389610389610373  C 34.9153645833333 0.116883116883115  35 0.324675324675322  35 0.662337662337661  L 35 29.3376623376623  C 35 29.6753246753247  34.9153645833333 29.8831168831169  34.74609375 29.961038961039  C 34.5768229166667 30.038961038961  34.3684895833333 29.9545454545455  34.12109375 29.7077922077922  L 20.25390625 15.8766233766234  C 20.13671875 15.7597402597403  20.0520833333333 15.6363636363636  20 15.5064935064935  L 20 29.3376623376623  C 20 29.6753246753247  19.9153645833333 29.8831168831169  19.74609375 29.961038961039  C 19.5768229166667 30.038961038961  19.3684895833333 29.9545454545455  19.12109375 29.7077922077922  L 5.25390625 15.8766233766234  C 5.13671875 15.7597402597403  5.05208333333333 15.6363636363636  5 15.5064935064935  L 5 28.7142857142857  C 5 29.0519480519481  4.87630208333333 29.3441558441558  4.62890625 29.5909090909091  C 4.38151041666667 29.8376623376623  4.08854166666667 29.961038961039  3.75 29.961038961039  L 1.25 29.961038961039  C 0.911458333333333 29.961038961039  0.618489583333333 29.8376623376623  0.37109375 29.5909090909091  C 0.123697916666667 29.3441558441558  0 29.0519480519481  0 28.7142857142857  L 0 1.28571428571428  C 0 0.948051948051946  0.123697916666667 0.655844155844154  0.37109375 0.40909090909091  C 0.618489583333333 0.162337662337659  0.911458333333333 0.0389610389610373  1.25 0.0389610389610373  L 3.75 0.0389610389610373  C 4.08854166666667 0.0389610389610373  4.38151041666667 0.162337662337659  4.62890625 0.40909090909091  C 4.87630208333333 0.655844155844154  5 0.948051948051946  5 1.28571428571428  L 5 14.4935064935065  C 5.05208333333333 14.3636363636364  5.13671875 14.2402597402597  5.25390625 14.1233766233766  L 19.12109375 0.292207792207791  C 19.3684895833333 0.0454545454545441  19.5768229166667 -0.0389610389610406  19.74609375 0.0389610389610373  C 19.9153645833333 0.116883116883115  20 0.324675324675322  20 0.662337662337661  L 20 14.4935064935065  C 20.0520833333333 14.3636363636364  20.13671875 14.2402597402597  20.25390625 14.1233766233766  Z " fill-rule="nonzero" fill="#000000" stroke="none" />
  </g>
</svg>