<?xml version="1.0" encoding="utf-8"?>
<svg version="1.1" xmlns:xlink="http://www.w3.org/1999/xlink" width="30px" height="30px" xmlns="http://www.w3.org/2000/svg">
  <g transform="matrix(1 0 0 1 -211 0 )">
    <path d="M 15.0221443176269 0.61584949511719  C 7.09019780163574 0.61584949511719  0.638573169799803 7.06747412695313  0.638573169799804 14.9994206429443  C 0.638573169799804 22.93133497229  7.09019780163574 29.3829917907715  15.0221443176269 29.3829917907715  C 22.9540586469727 29.3829917907715  29.4057154654541 22.93133497229  29.4057154654541 14.9994206429443  C 29.4057154654541 7.06747412695313  22.9540586469727 0.61584949511719  15.0221443176269 0.61584949511719  Z M 13.727442026001 19.6896708013916  C 12.1899247166748 19.6897029880371  10.9390604494629 18.4393537045898  10.9390604494629 16.9025123118896  C 10.9390604494629 15.3656387329102  12.1899247166748 14.1153538227539  13.727442026001 14.1153538231201  C 15.264347791626 14.1153538231201  16.5147292613525 15.3657031062012  16.5147292613525 16.9025123118896  C 16.5147292613525 18.4393215175781  15.2643477912598 19.6896708010254  13.727442026001 19.6896708013916  Z M 13.84682178479 8.32741498937988  C 15.5283851047488 8.32945763950465  17.1522748437673 8.94062168490368  18.4179174898682 10.0477838518066  C 19.6555953489021 11.1302079498934  20.469736543389 12.6161404978546  20.7158410550537 14.2418467998047  L 23.2875430583496 14.2418467998047  L 21.4194703103027 12.3738384246826  C 21.2210083007813 12.182039022583  21.1063277720947 11.9117689134521  21.1063277717285 11.6338062286377  C 21.1063277717285 11.5458726884766  21.1176252359619 11.4580357075195  21.1399304868164 11.3728380205078  C 21.2345045488948 11.0125725531019  21.515906596911 10.7312443153539  21.8761968614502 10.6367647646484  C 22.2365516341692 10.5426531620254  22.6196562121815 10.6500730187559  22.878549098877 10.917817354248  L 26.5037477017822 14.5429837705078  C 26.6989910603027 14.7376799586182  26.8065905573731 14.9970066547852  26.8065905570068 15.2729415893555  C 26.8065905570068 15.4085755349121  26.7802619934082 15.5409586431885  26.7283773424072 15.6664860249023  C 26.677126235134 15.7918890801902  26.6015591772465 15.9059069496938  26.5060329437256 16.0019659991455  L 22.8770685194092 19.6308016776123  C 22.6202523706055 19.896855354126  22.2361385819092 20.0045835970459  21.8762290477295 19.91050243396  C 21.51594996698 19.8159030720921  21.2345777848236 19.5345431904115  21.1399626727295 19.1742682456055  C 21.1176658911151 19.0890921538551  21.106373064687 19.0014104943818  21.1063599587402 18.9133644104004  C 21.1063599587402 18.6353373526611  21.2210404874268 18.3650672435303  21.4210152626953 18.1718838215332  L 23.2894098757324 16.3034570218506  L 19.7595477103271 16.3034570218506  C 19.1912305352783 16.3034570218506  18.7288391590576 15.8410334589844  18.7288391590576 15.2726519106445  C 18.7259101867676 12.5827288626709  16.5349745749512 10.3918576237793  13.8449871540527 10.3889286518555  C 11.1561906339111 10.3928232194824  8.96528720874024 12.5837588309326  8.96139264074707 15.2728128435059  C 8.96139264074707 15.8410334586182  8.49903345080566 16.3034570218506  7.93068408984375 16.3034570218506  L 4.23164963708496 16.3034570218506  C 3.66323590283203 16.3034570218506  3.2007801529541 15.8410334589844  3.20078015332031 15.2726519110107  C 3.20078015332031 14.7042703626709  3.66323590319824 14.2418468001709  4.23164963708496 14.2418467998047  L 6.97612881665039 14.2418467998047  C 7.22229641541486 12.6157968026015  8.03674406202092 11.1295971982853  9.27485704431152 10.04714012146  C 10.5407952884413 8.93997617802978  12.1650343304259 8.32902555623779  13.84682178479 8.32741498937988  Z " fill-rule="nonzero" fill="#000000" stroke="none" transform="matrix(1 0 0 1 211 0 )" />
  </g>
</svg>