<svg t="1763343760741" class="icon" viewBox="0 0 1024 1024" version="1.1" xmlns="http://www.w3.org/2000/svg" p-id="10737" width="200" height="200"><path d="M871.9872 363.52c0-22.784-16.512-42.6496-40.96-52.7104 6.5536-7.6544 10.496-16.7936 10.496-26.6752 0-21.0176-17.5104-38.7584-41.8816-45.3888 1.9456-5.5296 3.072-11.3664 3.072-17.3568 0-36.9152-39.0656-66.9952-87.1424-66.9952-6.912 0-13.6448 0.64-20.0192 1.8432C685.3888 139.6224 663.7056 128 638.336 128c-26.2144 0-48.7424 12.3648-58.24 29.9008a76.0832 76.0832 0 0 0-39.936-10.8032c-35.3536 0-63.9744 22.0672-63.9744 49.2032 0 1.28 0.1024 2.4832 0.256 3.6864a92.9536 92.9536 0 0 0-50.4576-14.3104c-33.024 0-61.2864 15.872-72.448 38.2976a66.7648 66.7648 0 0 0-13.7472-1.5616c-28.6208 0-51.6864 17.7152-51.6864 39.7824 0 2.304 0.384 4.5056 0.9216 6.7328-17.4336 6.272-41.6256 17.536-61.0816 36.2496-20.6848 19.84-42.752 65.3568-41.1648 72.5504h23.808s15.232-23.0656 34.2528-26.6752c9.856-1.8432 25.2672 5.376 37.8368 12.7488 5.888 5.5296 13.0816 10.1376 20.9408 13.9264h0.0768a105.7792 105.7792 0 0 0 42.368 9.6768c-10.24 9.8816-18.3552 20.48-22.6048 31.744-21.0432 55.6544-11.264 97.3824-11.264 97.3824h27.776s-9.0368-81.024 41.728-84.6336c25.1904-1.664 48.64 2.304 69.376 3.6864 3.968 4.352 8.4992 8.3968 13.4912 12.0832-9.1392 40.704-2.688 68.7616-2.688 68.7616h27.776s-3.1232-28.8768 5.0944-52.8896a135.9872 135.9872 0 0 0 67.5328 6.0928c3.968 1.1264 8.1408 2.048 12.288 2.5856 7.552 22.272 27.8784 40.448 54.528 49.664a66.56 66.56 0 0 1 29.3632-6.7328h66.6112c9.6-5.1712 17.9968-11.5456 24.6528-18.944 45.8752-5.632 80.9216-36.0704 80.9216-72.8832 0-2.304-0.1792-4.608-0.4608-6.8352 24.832-9.8816 41.8048-30.0032 41.8048-52.992zM565.7088 721.1264h-13.1072l-23.9104-194.2784h-103.424l-23.8336 194.2784h-2.7648l-23.9104-194.2784H271.36l-23.808 194.2784h-2.432l-13.2864-322.6368H164.1728l-13.312 322.6368H148.48v115.712a59.136 59.136 0 0 0 59.0592 59.0592h290.816c-2.304-7.6544-3.6096-15.6672-3.6096-24.064 0-0.9472 0-1.7664 0.0768-2.5856-0.256-12.032 2.5856-23.808 8.4992-34.3296l62.3872-113.792z m92.544 78.336a8.0384 8.0384 0 1 0 0 16.0768 8.0384 8.0384 0 0 0 0-16.0768z m0 0a8.0384 8.0384 0 1 0 0 16.0768 8.0384 8.0384 0 0 0 0-16.0768z m216.9856 69.6832a8.5504 8.5504 0 0 0-0.9216-5.632l-111.488-202.5728v-70.5024h8.0128a8.0384 8.0384 0 0 0 0-16.0512h-112.5888a8.0384 8.0384 0 0 0 0 16.0512h8.0384v70.5024l-111.488 202.6752a8.448 8.448 0 0 0-0.9216 5.632c-0.0768 0.9216-0.1792 1.7408-0.1792 2.6624 0 13.312 10.8032 24.0896 24.0896 24.0896h273.4336c13.312 0 24.0896-10.8032 24.0896-24.064a9.2928 9.2928 0 0 0-0.0768-2.7904z m-216.9856-37.4784a24.1152 24.1152 0 1 1 0.0512-48.2048 24.1152 24.1152 0 0 1-0.0512 48.2048z m72.3712-64.3072a16.0768 16.0768 0 1 1 0-32.1536 16.0768 16.0768 0 0 1 0 32.1536z m48.256 80.384a24.1152 24.1152 0 1 1 0.0256-48.2048 24.1152 24.1152 0 0 1 0 48.2048z m0-32.2048a8.0384 8.0384 0 1 0 0 16.0512 8.0384 8.0384 0 0 0 0-16.0512z m-120.6272-16.0768a8.0384 8.0384 0 1 0 0 16.0768 8.0384 8.0384 0 0 0 0-16.0768z m0 0a8.0384 8.0384 0 1 0 0 16.0768 8.0384 8.0384 0 0 0 0-16.0768z m0 0a8.0384 8.0384 0 1 0 0 16.0768 8.0384 8.0384 0 0 0 0-16.0768z m0 0a8.0384 8.0384 0 1 0 0 16.0768 8.0384 8.0384 0 0 0 0-16.0768z m120.6272 16.0768a8.0384 8.0384 0 1 0 0 16.0512 8.0384 8.0384 0 0 0 0-16.0512z m0 0a8.0384 8.0384 0 1 0 0 16.0512 8.0384 8.0384 0 0 0 0-16.0512z m-120.6272-16.0768a8.0384 8.0384 0 1 0 0 16.0768 8.0384 8.0384 0 0 0 0-16.0768z" fill="#FF863F" p-id="10738"></path></svg>