<svg t="1763283618415" class="icon" viewBox="0 0 1024 1024" version="1.1" xmlns="http://www.w3.org/2000/svg" p-id="51912" width="200" height="200"><path d="M981.333333 960l-106.666666-648.533333V256L524.8 19.2 168.533333 264.533333v64L64 960H0v44.8h1024V960h-42.666667zM162.133333 960H108.8l55.466667-339.2L162.133333 960zM832 960H206.933333l6.4-629.333333v-42.666667L524.8 72.533333 832 281.6V960z m42.666667 0V588.8L936.533333 960H874.666667z" fill="#FF0000" p-id="51913"></path><path d="M443.733333 317.866667v123.733333H320v149.333333h123.733333v123.733334h149.333334v-123.733334h123.733333v-149.333333h-123.733333v-123.733333h-149.333334z m228.266667 168.533333v59.733333H548.266667V669.866667h-59.733334V546.133333H364.8v-59.733333H488.533333V362.666667h59.733334V486.4H672z" fill="#FF0000" p-id="51914"></path></svg>