<svg t="1763283641344" class="icon" viewBox="0 0 1024 1024" version="1.1" xmlns="http://www.w3.org/2000/svg" p-id="52080" width="200" height="200"><path d="M620.8 624.085333H396.373333a4.138667 4.138667 0 0 0-3.925333 4.309334v263.04h232.234667v-263.04a4.138667 4.138667 0 0 0-3.968-4.266667z m243.797333-298.752l-320.853333-188.714666a62.72 62.72 0 0 0-63.530667 0l-320.853333 188.714666a64.341333 64.341333 0 0 0-31.146667 60.501334l37.12 447.061333a63.829333 63.829333 0 0 0 62.933334 58.538667h104.96v-263.04c0-37.76 28.373333-68.522667 63.189333-68.522667h224.341333c34.858667 0 63.146667 30.72 63.146667 68.522667v263.04h111.786667a63.872 63.872 0 0 0 62.976-58.538667l37.12-447.061333a64.341333 64.341333 0 0 0-31.146667-60.501334zM607.573333 394.368h-68.266666v68.949333a29.610667 29.610667 0 0 1-59.178667 0V394.368h-68.266667a29.909333 29.909333 0 0 1 0-59.818667h68.266667V265.6a29.610667 29.610667 0 1 1 59.221333 0v68.949333h68.224a29.909333 29.909333 0 0 1 0 59.818667z" fill="#d81e06" p-id="52081"></path></svg>