<svg t="1763283705392" class="icon" viewBox="0 0 1024 1024" version="1.1" xmlns="http://www.w3.org/2000/svg" p-id="53465" width="200" height="200"><path d="M62.060606 400.290909h899.878788v539.927273H62.060606z" fill="#DAE5EF" p-id="53466"></path><path d="M62.060606 871.951515h899.878788v65.163637H62.060606z" fill="#BBC7D1" p-id="53467"></path><path d="M961.939394 449.939394v-49.648485H62.060606z" fill="#CBD6E0" p-id="53468"></path><path d="M1008.484848 294.787879v83.781818c0 9.309091-9.309091 18.618182-18.618181 18.618182H34.133333c-9.309091 0-18.618182-9.309091-18.618181-18.618182V294.787879c0-12.412121 9.309091-18.618182 18.618181-18.618182h952.630303c12.412121 0 21.721212 6.206061 21.721212 18.618182z" fill="#8CC63E" p-id="53469"></path><path d="M459.248485 474.763636v347.539394c0 6.206061-6.206061 12.412121-12.412121 12.412122h-310.303031c-6.206061 0-12.412121-6.206061-12.412121-12.412122V474.763636c0-6.206061 6.206061-9.309091 12.412121-9.309091h310.303031c6.206061 0 12.412121 3.10303 12.412121 9.309091z" fill="#FFFFFF" p-id="53470"></path><path d="M145.842424 484.072727h291.684849v328.921212H145.842424z" fill="#38C0DC" p-id="53471"></path><path d="M350.642424 484.072727c6.206061 152.048485-77.575758 251.345455-207.90303 328.921212H434.424242V484.072727h-83.781818z" fill="#2AB4CD" p-id="53472"></path><path d="M279.272727 474.763636h21.721212v347.539394H279.272727z" fill="#FFFFFF" p-id="53473"></path><path d="M136.533333 639.224242h310.303031v21.721213h-310.303031z" fill="#FFFFFF" p-id="53474"></path><path d="M512 214.109091m-127.224242 0a127.224242 127.224242 0 1 0 254.448484 0 127.224242 127.224242 0 1 0-254.448484 0Z" fill="#E9EFF4" p-id="53475"></path><path d="M586.472727 214.109091c0 9.309091-6.206061 15.515152-15.515151 15.515151H527.515152v46.545455c0 9.309091-6.206061 15.515152-15.515152 15.515151-3.10303 0-9.309091-3.10303-9.309091-3.10303-3.10303-6.206061-6.206061-9.309091-6.206061-12.412121V229.624242h-46.545454c-9.309091 0-15.515152-6.206061-15.515152-15.515151s6.206061-15.515152 15.515152-15.515152H496.484848V155.151515c0-9.309091 6.206061-15.515152 15.515152-15.515151 3.10303 0 9.309091 3.10303 9.309091 3.10303 3.10303 6.206061 6.206061 9.309091 6.206061 12.412121v46.545455h46.545454c6.206061 0 12.412121 6.206061 12.412121 12.412121z" fill="#E24B4B" p-id="53476"></path><path d="M536.824242 487.175758h375.466667v449.939394H536.824242z" fill="#5A5F63" p-id="53477"></path><path d="M567.854545 583.369697h313.406061v353.745455H567.854545z" fill="#E9EFF4" p-id="53478"></path><path d="M586.472727 629.915152H713.69697v307.2h-127.224243z" fill="#38C0DC" p-id="53479"></path><path d="M592.678788 937.115152h15.515151l40.339394-307.2h-15.515151zM626.812121 937.115152h43.442424l40.339394-307.2h-40.339394z" fill="#FFFFFF" opacity=".2" p-id="53480"></path><path d="M735.418182 629.915152h127.224242v307.2h-127.224242z" fill="#38C0DC" p-id="53481"></path><path d="M738.521212 937.115152h15.515152l40.339394-307.2h-15.515152zM772.654545 937.115152h43.442425l40.339394-307.2h-40.339394z" fill="#FFFFFF" opacity=".2" p-id="53482"></path></svg>