<svg t="1763261462825" class="icon" viewBox="0 0 1024 1024" version="1.1" xmlns="http://www.w3.org/2000/svg" p-id="9219" width="200" height="200"><path d="M496.602342 74.396259h30.832155v27.083791l26.98453-0.106424v30.941648l-26.98453 0.004093v26.975321h-30.832155v-26.979414h-26.979414V101.48005h26.979414V74.396259z m212.871824 480.700195a1335.28503 1335.28503 0 0 0-23.127698-5.850229c-30.060583-7.341184-57.62021-13.154575-73.346348-17.614135a101.92928 101.92928 0 0 1-3.854787 17.832098c-14.684415 48.076876-62.322293 95.763873-97.166822 127.545653-34.685918-31.662054-82.095599-79.108574-96.973418-127.008418-1.924835-6.126522-3.274573-12.257137-4.047168-18.36831-16.418915 4.656034-45.713043 10.789719-77.353608 18.592414a1172.895871 1172.895871 0 0 0-19.079506 4.871951l-15.726138 80.810329 67.91465-0.128937-31.526978 55.163257c55.537786 31.218963 113.696255 56.729936 176.791142 75.416493 63.136843-18.68758 121.293265-44.19446 176.797282-75.413423l-31.488092-55.166327 67.910557 0.128937-15.723068-80.811353z" fill="#13227a" p-id="9220"></path><path d="M281.344174 564.580437c-40.277251 12.574361-82.484455 28.127561-88.381756 47.10883-28.63512 92.406412-48.024687 300.554663-51.301308 392.990751h740.67778c-3.274573-92.438134-22.666187-300.582292-51.340193-392.990751-5.858416-18.984339-48.101435-34.534469-88.340824-47.10883l12.759579 65.545701c3.199872 16.694184-7.748459 32.817364-24.437526 36.010073-2.69743 0.511652-5.358021 0.664124-7.938794 0.483l-12.75651-0.026606 5.241364 9.171875c8.403374 14.769349 3.196802 33.54084-11.565383 41.916585l-0.150426 0.086981 0.038886 0.028652c-28.751777 16.175369-58.163585 30.844434-88.458505 43.855746a851.662278 851.662278 0 0 1-87.990854 32.178823v126.042419h-30.834201V793.82922a852.701955 852.701955 0 0 1-87.99597-32.176776c-30.293896-13.012336-59.661702-27.681401-88.453388-43.852676-14.795955-8.305137-20.081321-27.074581-11.79358-41.914538 0.309038-0.550538 0.653891-1.088796 1.000791-1.606587l4.358253-7.686038-14.878843 0.026606c-16.958196 0-30.718567-13.745021-30.718567-30.710381 0.002047-1.968837 0.192381-3.896742 0.539281-5.771435l-0.039909-0.01228 12.760603-65.544678z m104.023984-458.313371l-4.355183-51.027061h0.035816c-0.652868-7.904001 4.858648-15.118296 12.799488-16.438358l115.319215-19.221745a15.575713 15.575713 0 0 1 5.393836-0.048096L629.343311 38.660431c8.250901 0.907671 14.336491 8.246808 13.644737 16.579574l-4.277411 50.570668c6.20634 5.265923 12.600967 11.154015 19.307703 17.732837 83.792237 82.460919 118.442339 252.371363 60.126282 363.497078-26.515857 2.351553-98.979094 0-140.681809-5.471607 27.754055-28.610561 61.591654-87.835312 60.473183-172.219019-0.033769-1.199312-0.036839-11.946053-0.074702-13.152528-44.555686-8.838278-82.175417-38.189711-94.083607-89.231099-14.220858 55.416013-95.123284 114.703186-157.523348 117.818124 2.505049 76.182948 34.261246 129.950418 60.318663 156.784522-36.536051 5.469561-119.560811 8.370628-140.71967 5.471607-58.274102-111.127761-23.62707-281.031043 60.164144-363.497078a253.998417 253.998417 0 0 1 19.347612-17.276444h0.00307z m36.733549 68.427326h179.837518l9.134013-107.88491-99.050725-16.50692-99.096775 16.50692 9.175969 107.88491z m197.800599 641.116425h115.626207v30.835224H619.902306v-30.835224z" fill="#13227a" p-id="9221"></path></svg>